<svg xmlns="http://www.w3.org/2000/svg" width="90.914" height="90.914" viewBox="0 0 90.914 90.914"><g transform="translate(-501.141 -687.169)"><g transform="translate(501.141 687.169)"><rect width="90.914" height="90.914" rx="45.457" transform="translate(0.001)" fill="#e8e8e8" opacity="0.859"/><rect width="90.914" height="90.914" rx="45.457" fill="none"/></g><g transform="translate(511.132 685.669)"><g transform="translate(5 14.467)"><path d="M254.153,248.935V227.014l-21.866,8.222,2.882,24.659Z" transform="translate(-204.661 -201.18)" fill="#fd5426"/><path d="M99.816,248.935l18.984,10.96V233.85l-18.984-6.836Z" transform="translate(-88.291 -201.18)" fill="#fe7d43"/><path d="M326.1,363.137l-11.524-6.653V351l15.5,7.124Z" transform="translate(-276.944 -310.1)" fill="#01998d"/><path d="M409.379,426.537v-5.481l7.28-1.448,4.585,2.817v5.481Z" transform="translate(-360.228 -370.364)" fill="#0ab69f"/><path d="M318.974,330.078l14.238,8.22,2.373-1.37,2.373,6.85-11.865-1.37,2.714-1.567-14.238-8.22Z" transform="translate(-276.942 -291.716)" fill="#5de1c4"/><path d="M73.856,363.137l11.524-6.653V351l-15.5,7.124Z" transform="translate(-61.991 -310.1)" fill="#ffc344"/><path d="M16.866,426.537v-5.481l-7.28-1.448L5,422.425v5.481Z" transform="translate(-5 -370.364)" fill="#ffd15b"/><path d="M23.986,330.078,9.748,338.3l-2.373-1.37L5,343.778l11.865-1.37-2.714-1.567,14.238-8.22Z" transform="translate(-5.002 -291.716)" fill="#fff0ad"/><path d="M118.8,136.841,99.816,147.8l18.984,10.96,18.984-10.96Z" transform="translate(-88.291 -121.967)" fill="#fead8a"/><path d="M249.308,110.729v13.307l-4.745,2.739-1.583-16.988Z" transform="translate(-214.054 -98.201)" fill="#0593fc"/><path d="M247.7,25.428l-4.747,2.739-4.894-5.58.148-5.379,4.747-2.741Z" transform="translate(-209.732 -14.467)" fill="#b3dafe"/><path d="M202.607,60.3V43.863l-2.373-1.37,4.746-5.48,4.746,10.96-2.714-1.567v16.44Z" transform="translate(-176.504 -34.273)" fill="#60b7ff"/></g><g transform="translate(5 14.467)"><path d="M0,22.3a.5.5,0,0,1-.5-.5V0A.5.5,0,0,1,0-.5.5.5,0,0,1,.5,0V21.8A.5.5,0,0,1,0,22.3Z" transform="translate(30.508 36.795)" fill="#072f75"/><path d="M120.172,238.863a.5.5,0,0,1-.25-.067l-18.794-10.851a.5.5,0,1,1,.5-.866l18.544,10.706,18.641-10.762a.5.5,0,1,1,.5.866L120.422,238.8A.5.5,0,0,1,120.172,238.863Z" transform="translate(-89.664 -201.569)" fill="#072f75"/><path d="M209.726,13.967a.5.5,0,0,1,.459.3l4.747,10.961a.5.5,0,0,1-.209.632l-2.465,1.423V40.3a.5.5,0,0,1-.25.433l-4.736,2.734-.009.005a.5.5,0,0,1-.5,0l-4.405-2.543a.5.5,0,0,1-.25-.433V24.346l-2.123-1.226a.5.5,0,0,1-.128-.76l4.737-5.47a.5.5,0,0,1,.145-.12l4.737-2.736A.5.5,0,0,1,209.726,13.967Zm4.111,11.25L209.49,15.181,205.3,17.6l-4.294,4.959,1.849,1.067a.5.5,0,0,1,.25.433V40.209l3.9,2.254,4.246-2.451V27a.5.5,0,0,1,.25-.441Z" transform="translate(-176.504 -14.467)" fill="#072f75"/><path d="M256,130a.5.5,0,0,1-.5-.5V112.892a.5.5,0,0,1,.75-.433l2.368,1.367,1.756-1.013a.5.5,0,1,1,.5.866l-2.006,1.157a.5.5,0,0,1-.5,0l-1.868-1.078V129.5A.5.5,0,0,1,256,130Z" transform="translate(-225.492 -100.929)" fill="#072f75"/><path d="M4.648,11.233a.5.5,0,0,1-.459-.3L-.459.2A.5.5,0,0,1-.2-.459.5.5,0,0,1,.459-.2L5.106,10.534a.5.5,0,0,1-.459.7Z" transform="translate(28.476 2.74)" fill="#072f75"/><path d="M337.958,349.759a.5.5,0,0,1-.057,0l-11.866-1.369a.5.5,0,0,1-.443-.5v-2.846l-11.274-6.509a.5.5,0,0,1-.25-.433v-5.468a.5.5,0,0,1,.25-.445l4.405-2.543a.5.5,0,0,1,.5,0l13.988,8.076,2.123-1.226a.5.5,0,0,1,.722.269l2.369,6.838a.5.5,0,0,1,.031.159h0c0,.007,0,.014,0,.021v5.475a.5.5,0,0,1-.5.5Zm-11.366-2.315,10.865,1.254v-4.835l-2.147-6.2-1.849,1.067a.5.5,0,0,1-.5,0l-13.988-8.076-3.9,2.254v4.9l11.263,6.5a.5.5,0,0,1,.261.431s0,0,0,0v0s0,0,0,0a.014.014,0,0,0,0,0v0h0Z" transform="translate(-276.942 -291.716)" fill="#072f75"/><path d="M326.337,363.635h0a.5.5,0,0,1-.5-.5v-2.316a.5.5,0,0,1,.25-.433l1.868-1.078-13.636-7.873a.5.5,0,0,1,.5-.866l14.386,8.306a.5.5,0,0,1,0,.866l-2.368,1.367v2.027A.5.5,0,0,1,326.337,363.635Z" transform="translate(-276.942 -310.097)" fill="#072f75"/><path d="M11.619,1.842a.505.505,0,0,1-.058,0L-.057.5A.5.5,0,0,1-.5-.057.5.5,0,0,1,.057-.5L11.676.845a.5.5,0,0,1-.057,1Z" transform="translate(49.398 50.72)" fill="#072f75"/><path d="M5,349.759a.5.5,0,0,1-.5-.5v-5.47a.5.5,0,0,1,.023-.161l.005-.016L6.9,336.764a.5.5,0,0,1,.722-.269l2.123,1.226,13.988-8.076a.5.5,0,0,1,.5,0l4.405,2.543a.5.5,0,0,1,.25.455h0V338.1a.5.5,0,0,1-.25.433l-11.274,6.509v2.846a.5.5,0,0,1-.443.5L5.057,349.755A.5.5,0,0,1,5,349.759Zm.5-5.9V348.7l10.865-1.254v-2.689a0,0,0,0,0,0,0,.5.5,0,0,1,.26-.439l11.264-6.5v-4.9l-3.9-2.254L10,338.731a.5.5,0,0,1-.5,0l-1.849-1.067Z" transform="translate(-5 -291.716)" fill="#072f75"/><path d="M81.693,363.635a.5.5,0,0,1-.5-.5v-2.027l-2.368-1.367a.5.5,0,0,1,0-.866l14.386-8.306a.5.5,0,1,1,.5.866l-13.636,7.873,1.868,1.078a.5.5,0,0,1,.25.433v2.316A.5.5,0,0,1,81.693,363.635Z" transform="translate(-70.071 -310.097)" fill="#072f75"/><path d="M0,1.842A.5.5,0,0,1-.5,1.4.5.5,0,0,1-.057.845L11.561-.5a.5.5,0,0,1,.554.439A.5.5,0,0,1,11.676.5L.057,1.838A.505.505,0,0,1,0,1.842Z" transform="translate(0 50.72)" fill="#072f75"/><path d="M153.972,439.127a.5.5,0,0,1-.25-.067L139.6,430.91a.5.5,0,0,1,.5-.866l13.867,8.006,13.867-8.006a.5.5,0,1,1,.5.866l-14.117,8.15A.5.5,0,0,1,153.972,439.127Z" transform="translate(-123.464 -379.912)" fill="#072f75"/><path d="M99.816,183.883a.5.5,0,0,1-.5-.5V166.69a.5.5,0,0,1,.25-.433l14.457-8.347a.5.5,0,0,1,.5.866l-14.207,8.2v16.4A.5.5,0,0,1,99.816,183.883Z" transform="translate(-88.291 -140.855)" fill="#072f75"/><path d="M310.156,185.3a.5.5,0,0,1-.5-.5V168.4l-13.867-8.006a.5.5,0,1,1,.5-.866l14.117,8.15a.5.5,0,0,1,.25.433V184.8A.5.5,0,0,1,310.156,185.3Z" transform="translate(-260.664 -142.274)" fill="#072f75"/></g></g></g></svg>