<svg xmlns="http://www.w3.org/2000/svg" width="50.594" height="50.17" viewBox="0 0 50.594 50.17"><g transform="translate(0 -1.969)"><g transform="translate(0 1.969)"><g transform="translate(0)"><path d="M53.342,10.964V35.348a2.148,2.148,0,0,1-1.216,1.934L16.04,54.664a2.148,2.148,0,0,1-1.813.025L4.774,50.44A2.148,2.148,0,0,1,3.5,48.483V46.657a2.148,2.148,0,0,1,1.208-1.934L10,42.146,37.978,29.017a2.148,2.148,0,0,0,1.239-1.944V8.584a2.148,2.148,0,0,1,1.246-1.951l2.113-.974a2.148,2.148,0,0,1,1.756-.019l7.718,3.355a2.148,2.148,0,0,1,1.292,1.97Z" transform="translate(-3.124 -5.087)" fill="#fcf4f6"/><path d="M288.106,156.022v7.247a2.148,2.148,0,0,1-1.213,1.934l-3.848,1.859a2.159,2.159,0,0,1-1.812.027l-4.253-1.907a2.148,2.148,0,0,1-1.271-1.961v-7.244a2.148,2.148,0,0,1,1.213-1.934l3.844-1.858a2.088,2.088,0,0,1,.266-.107,2.148,2.148,0,0,1,1.547.079l4.255,1.9a2.159,2.159,0,0,1,1.271,1.96Z" transform="translate(-246.094 -135.858)" fill="#9dcdff"/><path d="M282.149,158.182v9.99a2.121,2.121,0,0,1-.912-.186l-4.256-1.911a2.148,2.148,0,0,1-1.271-1.961v-7.244a2.148,2.148,0,0,1,1.213-1.934l3.844-1.858a2.084,2.084,0,0,1,.266-.107,4.707,4.707,0,0,1,.874.322C282.212,153.552,282.149,158.182,282.149,158.182Z" transform="translate(-246.094 -136.75)" fill="#4096ff"/><path d="M290.686,154.811,286,157.076a2.148,2.148,0,0,1-1.812.027l-5.168-2.313a2.135,2.135,0,0,1,.857-.747l3.844-1.858a2.082,2.082,0,0,1,.266-.107,2.148,2.148,0,0,1,1.547.079l4.255,1.9A2.148,2.148,0,0,1,290.686,154.811Z" transform="translate(-249.048 -135.858)" fill="#67b0ff"/><path d="M53.342,10.964V35.348a2.148,2.148,0,0,1-1.216,1.934L16.04,54.664a2.148,2.148,0,0,1-1.813.025L4.774,50.44A2.148,2.148,0,0,1,3.5,48.483V46.657a2.138,2.138,0,0,1,.357-1.182l10.366,4.655a2.148,2.148,0,0,0,1.826-.028L47.9,34.6a2.148,2.148,0,0,0,1.208-1.934V12.917a2.148,2.148,0,0,0-1.289-1.97L39.589,7.372a2.14,2.14,0,0,1,.873-.739l2.113-.974a2.148,2.148,0,0,1,1.756-.019l7.718,3.355a2.148,2.148,0,0,1,1.292,1.97Z" transform="translate(-3.124 -5.087)" fill="#f0e3e7"/><path d="M176.206,232.646v4.57a2.148,2.148,0,0,1-1.213,1.934l-3.844,1.86a2.159,2.159,0,0,1-1.812.027l-4.256-1.9a2.148,2.148,0,0,1-1.271-1.96V232.6a2.148,2.148,0,0,1,1.213-1.934l2.72-1.315,1.125-.544a2.148,2.148,0,0,1,1.813-.027l4.255,1.9a2.148,2.148,0,0,1,1.271,1.961Z" transform="translate(-146.214 -204.251)" fill="#9dcdff"/><path d="M171.153,237.308l-.884,2.9v7.313a2.121,2.121,0,0,1-.912-.186l-4.256-1.9a2.148,2.148,0,0,1-1.271-1.96V238.9a2.148,2.148,0,0,1,1.213-1.934l2.72-1.315C169.434,236.448,171.153,237.308,171.153,237.308Z" transform="translate(-146.232 -210.549)" fill="#4096ff"/><path d="M178.813,231.381l-4.683,2.264a2.148,2.148,0,0,1-1.812.027l-5.168-2.313a2.142,2.142,0,0,1,.854-.752l3.844-1.858a2.148,2.148,0,0,1,1.813-.027l4.255,1.9A2.135,2.135,0,0,1,178.813,231.381Z" transform="translate(-149.195 -204.198)" fill="#67b0ff"/><path d="M64.306,170.457v16.8a2.148,2.148,0,0,1-1.213,1.934l-3.844,1.859a2.159,2.159,0,0,1-1.812.027l-4.256-1.9a2.148,2.148,0,0,1-1.271-1.96v-16.8a2.148,2.148,0,0,1,1.213-1.934l2.268-1.1,1.578-.763a2.148,2.148,0,0,1,1.813-.027l4.255,1.9a2.148,2.148,0,0,1,1.271,1.961Z" transform="translate(-46.334 -148.741)" fill="#9dcdff"/><path d="M58.349,179.847v19.536a2.121,2.121,0,0,1-.912-.186l-4.256-1.9a2.148,2.148,0,0,1-1.271-1.96v-16.8a2.148,2.148,0,0,1,1.213-1.934l2.268-1.1C56.775,177.441,58.349,179.847,58.349,179.847Z" transform="translate(-46.334 -156.86)" fill="#4096ff"/><path d="M66.913,169.245l-4.683,2.269a2.154,2.154,0,0,1-1.812.028l-5.168-2.317a2.134,2.134,0,0,1,.859-.747l3.84-1.859a2.148,2.148,0,0,1,1.813-.027l4.255,1.9A2.135,2.135,0,0,1,66.913,169.245Z" transform="translate(-49.315 -148.741)" fill="#67b0ff"/><ellipse cx="5.739" cy="5.759" rx="5.739" ry="5.759" transform="translate(6.275 2.286)" fill="#88ffc3"/><path d="M49.076,5.533l-7.72-3.355a2.534,2.534,0,0,0-2.063.023l-2.113.974a2.536,2.536,0,0,0-1.009.848c-.01.013-.018.026-.027.04a2.526,2.526,0,0,0-.43,1.405V17.713a2.5,2.5,0,0,0-1.2.249l-3.844,1.859a2.519,2.519,0,0,0-.98.848.384.384,0,0,0-.038.055,2.526,2.526,0,0,0-.408,1.37v6.174a2.359,2.359,0,0,0-.365-.2L24.62,26.157a2.521,2.521,0,0,0-2.13.031l-3.846,1.858a2.89,2.89,0,0,0-.3.17V23.685a2.524,2.524,0,0,0-.437-1.414c-.008-.011-.014-.021-.021-.031a2.522,2.522,0,0,0-1.034-.859l-4.255-1.9a2.521,2.521,0,0,0-2.13.031L6.625,21.368a2.517,2.517,0,0,0-.979.845.353.353,0,0,0-.042.062,2.525,2.525,0,0,0-.4,1.364V39.43L1.42,41.269a2.509,2.509,0,0,0-.975.846.379.379,0,0,0-.04.059A2.525,2.525,0,0,0,0,43.54v1.826a2.526,2.526,0,0,0,1.491,2.3l9.458,4.249a2.525,2.525,0,0,0,2.13-.029L49.165,34.5a2.537,2.537,0,0,0,1.429-2.275V7.847a2.525,2.525,0,0,0-1.518-2.315ZM30.992,20.494l3.844-1.859a1.769,1.769,0,0,1,1.5-.021l4.255,1.9a1.759,1.759,0,0,1,.446.283L36.79,22.85a1.768,1.768,0,0,1-1.494.021l-4.708-2.1a1.766,1.766,0,0,1,.4-.274Zm-1,1.6a1.769,1.769,0,0,1,.147-.7l4.85,2.173a2.514,2.514,0,0,0,2.129-.031l4.364-2.117a1.768,1.768,0,0,1,.154.719v7.247a1.783,1.783,0,0,1-1,1.6l-3.844,1.858a1.767,1.767,0,0,1-1.5.023l-4.253-1.9a1.773,1.773,0,0,1-.672-.526v-.064A2.522,2.522,0,0,0,30,29.042Zm-11.02,6.634,3.844-1.858a1.769,1.769,0,0,1,1.5-.021l4.26,1.9a1.734,1.734,0,0,1,.441.284l-4.243,2.05a1.767,1.767,0,0,1-1.5.021l-4.708-2.106a1.8,1.8,0,0,1,.4-.272Zm-.624,1,4.619,2.068a2.514,2.514,0,0,0,2.129-.031l4.364-2.111a1.768,1.768,0,0,1,.154.719v4.57a1.782,1.782,0,0,1-1,1.6l-3.844,1.859a1.767,1.767,0,0,1-1.5.023l-4.256-1.9a1.773,1.773,0,0,1-.672-.526ZM6.953,22.045,10.8,20.185a1.769,1.769,0,0,1,1.5-.021l4.255,1.9a1.764,1.764,0,0,1,.441.284L12.751,24.4a1.759,1.759,0,0,1-.744.177,1.791,1.791,0,0,1-.752-.154l-4.7-2.106A1.747,1.747,0,0,1,6.953,22.045Zm-1,1.6a1.771,1.771,0,0,1,.147-.7l4.85,2.171a2.512,2.512,0,0,0,1.02.215h.05a2.506,2.506,0,0,0,1.058-.251l4.365-2.111a1.766,1.766,0,0,1,.153.719v5.339a.383.383,0,0,0,0,.215V40.481a1.78,1.78,0,0,1-1,1.6l-3.844,1.859a1.767,1.767,0,0,1-1.5.023L7,42.06a1.773,1.773,0,0,1-1.048-1.618Zm-4.2,18.3L5.2,40.266v.176a2.529,2.529,0,0,0,1.493,2.3l4.256,1.9a2.521,2.521,0,0,0,2.13-.032l3.844-1.858a2.539,2.539,0,0,0,1.424-2.273v-3.5a2.47,2.47,0,0,0,.365.2l4.256,1.9a2.519,2.519,0,0,0,2.129-.032l3.844-1.86a2.537,2.537,0,0,0,1.425-2.273V31.438a2.574,2.574,0,0,0,.365.2l4.256,1.909a2.519,2.519,0,0,0,2.129-.032l3.844-1.858a2.537,2.537,0,0,0,1.425-2.273V22.134a2.517,2.517,0,0,0-.43-1.409.373.373,0,0,0-.029-.042,2.512,2.512,0,0,0-1.031-.852l-4.258-1.9c-.057-.026-.116-.048-.174-.07V5.467a1.763,1.763,0,0,1,.163-.732l7.916,3.437A1.77,1.77,0,0,1,45.61,9.8v19.75a1.784,1.784,0,0,1-1,1.594l-31.859,15.5a1.772,1.772,0,0,1-1.5.023L1.345,42.218a1.732,1.732,0,0,1,.4-.273Zm48.093-9.719a1.783,1.783,0,0,1-1,1.6L12.753,51.208a1.769,1.769,0,0,1-1.5.02L1.8,46.977A1.772,1.772,0,0,1,.752,45.366V43.54a1.748,1.748,0,0,1,.146-.7l10.047,4.512a2.515,2.515,0,0,0,2.139-.033l31.855-15.5a2.539,2.539,0,0,0,1.42-2.27V9.8A2.521,2.521,0,0,0,44.84,7.486L37.091,4.118a1.739,1.739,0,0,1,.4-.26l2.112-.974a1.781,1.781,0,0,1,1.45-.016l7.717,3.355a1.773,1.773,0,0,1,1.067,1.625Z" transform="translate(0 -1.969)"/><path d="M332.526,230.328a.376.376,0,0,0,.376-.376v-4.9a.376.376,0,1,0-.752,0v4.9A.376.376,0,0,0,332.526,230.328Z" transform="translate(-296.471 -200.757)"/><path d="M220.626,299.64a.376.376,0,0,0,.376-.376v-2.778a.376.376,0,1,0-.752,0v2.777a.376.376,0,0,0,.375.377Z" transform="translate(-196.591 -264.514)"/><path d="M108.726,254.314a.376.376,0,0,0,.376-.376V239.486a.376.376,0,1,0-.752,0v14.452A.376.376,0,0,0,108.726,254.314Z" transform="translate(-96.711 -213.637)"/><path d="M61.035,32.019a6.135,6.135,0,1,0-6.115-6.154v.019A6.132,6.132,0,0,0,61.035,32.019Zm0-11.516a5.383,5.383,0,1,1-5.363,5.4v-.02A5.378,5.378,0,0,1,61.035,20.5Z" transform="translate(-49.021 -17.84)"/><path d="M82.439,81.869a5.353,5.353,0,0,0,3.472-1.445.376.376,0,1,0-.444-.607.366.366,0,0,0-.038.032c-3.284,2.772-5.686.155-5.789.038a.376.376,0,1,0-.564.5A4.874,4.874,0,0,0,82.439,81.869Z" transform="translate(-70.498 -71.391)"/><path d="M91.876,55.406a.376.376,0,0,0,.376-.376v-.824a.376.376,0,0,0-.752,0v.821a.376.376,0,0,0,.373.379Z" transform="translate(-81.671 -48.259)"/><path d="M125.6,55.406a.376.376,0,0,0,.376-.376v-.824a.376.376,0,0,0-.752,0v.821a.376.376,0,0,0,.373.379Z" transform="translate(-111.769 -48.259)"/></g></g></g></svg>