<svg xmlns="http://www.w3.org/2000/svg" width="64" height="60.314" viewBox="0 0 64 60.314"><g transform="translate(-1 -2.836)"><path d="M1.25,49.45a1.5,1.5,0,0,0,.88,1.24l20.25,11.7a4.682,4.682,0,0,0,4.25-.01L63.85,40.75a1.491,1.491,0,0,0,.87-1.23l.01-3.92a1.491,1.491,0,0,1-.87,1.23L26.65,58.47a4.682,4.682,0,0,1-4.25.01L2.15,46.77a1.518,1.518,0,0,1-.88-1.23Z" fill="#0084ce"/><path d="M24.51,63.15a4.583,4.583,0,0,1-2.24-.54L2.01,50.91A1.756,1.756,0,0,1,1,49.45l.01-3.91a.25.25,0,0,1,.5,0,1.3,1.3,0,0,0,.76,1.01l20.25,11.7a4.428,4.428,0,0,0,4.01-.01L63.75,36.61a1.288,1.288,0,0,0,.75-1.01v-.01a.25.25,0,1,1,.5,0v.01l-.01,3.92a1.7,1.7,0,0,1-1,1.44L26.77,62.6a4.584,4.584,0,0,1-2.26.55ZM1.5,49.45a1.286,1.286,0,0,0,.76,1.03l20.25,11.7a4.428,4.428,0,0,0,4.01-.01L63.74,40.54a1.267,1.267,0,0,0,.75-1.01l.01-2.85a2.5,2.5,0,0,1-.5.37L26.78,58.68a4.927,4.927,0,0,1-4.5.01L2.02,46.98a3.067,3.067,0,0,1-.52-.39Z" fill="#111925"/><path d="M63.86,34.37a1.3,1.3,0,0,1,.01,2.46L26.65,58.47a4.7,4.7,0,0,1-4.26,0L2.15,46.77a1.3,1.3,0,0,1-.01-2.47L39.36,22.67a4.7,4.7,0,0,1,4.26,0Z" fill="#0296f6"/><path d="M24.52,59.23a4.519,4.519,0,0,1-2.25-.55L2.02,46.98a1.743,1.743,0,0,1-1.01-1.45,1.7,1.7,0,0,1,1-1.44L39.23,22.46a4.978,4.978,0,0,1,4.51,0l20.25,11.7a1.549,1.549,0,0,1,.01,2.9L26.78,58.68a4.531,4.531,0,0,1-2.26.55ZM41.48,22.41a4.054,4.054,0,0,0-2,.48L2.26,44.52a1.06,1.06,0,0,0,.01,2.03l20.25,11.7a4.428,4.428,0,0,0,4.01,0L63.75,36.62a1.246,1.246,0,0,0,.75-1.02,1.273,1.273,0,0,0-.76-1.02L43.49,22.88a4.23,4.23,0,0,0-2.01-.47Z" fill="#111925"/><path d="M24.52,56.99a2.5,2.5,0,0,1-1.13-.24L5.25,46.27a.863.863,0,0,1,0-1.49l35.1-20.4a2.34,2.34,0,0,1,1.13-.24,2.515,2.515,0,0,1,1.14.24L60.75,34.86a.863.863,0,0,1,0,1.49l-35.1,20.4a2.34,2.34,0,0,1-1.13.24Z" fill="#fff"/><path d="M24.52,57.24a2.583,2.583,0,0,1-1.26-.28L5.13,46.49a1.088,1.088,0,0,1-.55-.96,1.108,1.108,0,0,1,.55-.96l35.1-20.4a3.155,3.155,0,0,1,2.52,0L60.88,34.65a1.088,1.088,0,0,1,.55.96,1.108,1.108,0,0,1-.55.96l-35.1,20.4a2.705,2.705,0,0,1-1.26.27ZM41.48,24.39a2.143,2.143,0,0,0-1.01.21L5.38,45a.6.6,0,0,0-.3.53.594.594,0,0,0,.31.53L23.53,56.54a2.534,2.534,0,0,0,2.02,0l35.1-20.4a.6.6,0,0,0,.3-.53.594.594,0,0,0-.31-.53L42.5,24.61a2.167,2.167,0,0,0-1.02-.22Z" fill="#111925"/><path d="M57.4,32.93l-.62.36a5.063,5.063,0,0,1-4.58,0l-7.65-4.42c-1.27-.73-1.27-1.92-.01-2.65l.62-.36Z" fill="#0084ce"/><path d="M54.5,34.09a4.922,4.922,0,0,1-2.42-.58l-7.65-4.42A1.65,1.65,0,0,1,44.41,26l.62-.36a.275.275,0,0,1,.25,0l12.25,7.07a.235.235,0,0,1,.12.21.244.244,0,0,1-.12.21l-.62.36a4.788,4.788,0,0,1-2.41.6Zm-9.34-7.94-.5.29a1.38,1.38,0,0,0-.82,1.11,1.407,1.407,0,0,0,.83,1.12l7.65,4.42a4.787,4.787,0,0,0,4.33,0l.25-.15Z" fill="#111925"/><path d="M42.63,37.55l-4.35-2.53-.03-13.61,4.35,2.52Z" fill="#ffe08a"/><path d="M42.63,37.8a.238.238,0,0,1-.12-.03l-4.35-2.53a.235.235,0,0,1-.12-.21L38,21.41a.245.245,0,0,1,.37-.22l4.35,2.53a.235.235,0,0,1,.12.21l.03,13.61a.275.275,0,0,1-.12.22.214.214,0,0,1-.12.04Zm-4.1-2.92,3.85,2.24-.03-13.04L38.5,21.84Z" fill="#111925"/><path d="M42.6,23.93l-4.35-2.52,4.38-2.53,4.34,2.53Z" fill="#fff"/><path d="M42.6,24.18a.238.238,0,0,1-.12-.03l-4.35-2.53a.239.239,0,0,1-.01-.42l4.38-2.53a.275.275,0,0,1,.25,0L47.1,21.2a.235.235,0,0,1,.12.21.244.244,0,0,1-.12.21l-4.38,2.53A.266.266,0,0,1,42.6,24.18Zm-3.85-2.77,3.85,2.24,3.88-2.24-3.85-2.24Z" fill="#111925"/><path d="M46.97,21.41l.04,13.61-4.38,2.53L42.6,23.93Z" fill="#f8d555"/><path d="M42.63,37.8a.238.238,0,0,1-.12-.03.235.235,0,0,1-.12-.21l-.03-13.61a.275.275,0,0,1,.12-.22l4.38-2.53a.275.275,0,0,1,.25,0,.235.235,0,0,1,.12.21l.03,13.61a.275.275,0,0,1-.12.22l-4.38,2.53A.5.5,0,0,1,42.63,37.8Zm.22-13.72.03,13.04,3.88-2.24-.03-13.04Z" fill="#111925"/><path d="M34.42,42.29l-4.34-2.53-.06-22.5,4.34,2.53Z" fill="#ff8288"/><path d="M34.42,42.53a.238.238,0,0,1-.12-.03l-4.35-2.53a.235.235,0,0,1-.12-.21l-.06-22.5a.245.245,0,0,1,.37-.22l4.35,2.53a.235.235,0,0,1,.12.21l.06,22.5a.236.236,0,0,1-.25.25Zm-4.1-2.91,3.85,2.24-.06-21.92L30.26,17.7Z" fill="#111925"/><path d="M34.36,19.79l-4.34-2.53,4.37-2.53,4.35,2.53Z" fill="#fff"/><path d="M34.36,20.04a.238.238,0,0,1-.12-.03l-4.35-2.53a.235.235,0,0,1-.12-.21.244.244,0,0,1,.12-.21l4.38-2.53a.275.275,0,0,1,.25,0l4.35,2.53a.235.235,0,0,1,.12.21.244.244,0,0,1-.12.21L34.49,20a.2.2,0,0,1-.13.04Zm-3.85-2.78,3.85,2.24,3.88-2.24-3.85-2.24Z" fill="#111925"/><path d="M38.74,17.26l.06,22.5-4.38,2.53-.06-22.5Z" fill="#ef5e70"/><path d="M34.42,42.53a.238.238,0,0,1-.12-.03.235.235,0,0,1-.12-.21l-.06-22.5a.275.275,0,0,1,.12-.22l4.38-2.53a.275.275,0,0,1,.25,0,.235.235,0,0,1,.12.21l.06,22.5a.275.275,0,0,1-.12.22L34.55,42.5A.277.277,0,0,1,34.42,42.53Zm.19-22.6.06,21.92,3.88-2.24L38.5,17.69Z" fill="#111925"/><path d="M26.22,47.02,21.87,44.5l-.04-16.72,4.34,2.53Z" fill="#0296f6"/><path d="M26.22,47.27a.238.238,0,0,1-.12-.03l-4.35-2.53a.235.235,0,0,1-.12-.21l-.04-16.72a.245.245,0,0,1,.37-.22l4.35,2.53a.235.235,0,0,1,.12.21l.04,16.72a.275.275,0,0,1-.12.22.345.345,0,0,1-.13.03Zm-4.1-2.92,3.85,2.24-.04-16.14-3.85-2.24Z" fill="#111925"/><path d="M26.17,30.31l-4.34-2.53,4.37-2.53,4.35,2.53Z" fill="#fff"/><path d="M26.17,30.55a.238.238,0,0,1-.12-.03L21.7,27.99a.235.235,0,0,1-.12-.21.244.244,0,0,1,.12-.21l4.38-2.53a.275.275,0,0,1,.25,0l4.35,2.53a.235.235,0,0,1,.12.21.244.244,0,0,1-.12.21L26.3,30.52A.277.277,0,0,1,26.17,30.55Zm-3.85-2.77,3.85,2.24,3.88-2.24L26.2,25.54Z" fill="#111925"/><path d="M30.55,27.78l.04,16.72-4.37,2.52-.05-16.71Z" fill="#0084ce"/><path d="M26.22,47.27a.238.238,0,0,1-.12-.03.235.235,0,0,1-.12-.21l-.04-16.72a.275.275,0,0,1,.12-.22l4.38-2.53a.275.275,0,0,1,.25,0,.235.235,0,0,1,.12.21l.04,16.72a.275.275,0,0,1-.12.22l-4.38,2.53A.345.345,0,0,1,26.22,47.27Zm.2-16.82.04,16.15,3.88-2.24L30.3,28.21Z" fill="#111925"/><path d="M18.01,51.76l-4.35-2.52L13.59,23.5l4.35,2.52Z" fill="#00cb98"/><path d="M18.01,52.01a.238.238,0,0,1-.12-.03l-4.35-2.53a.235.235,0,0,1-.12-.21L13.34,23.5a.245.245,0,0,1,.37-.22l4.35,2.53a.235.235,0,0,1,.12.21l.07,25.74a.275.275,0,0,1-.12.22.266.266,0,0,1-.12.03Zm-4.1-2.92,3.85,2.24-.07-25.17-3.85-2.24Z" fill="#111925"/><path d="M17.94,26.02,13.59,23.5l4.38-2.53,4.34,2.53Z" fill="#fff"/><path d="M17.94,26.27a.238.238,0,0,1-.12-.03l-4.35-2.53a.235.235,0,0,1-.12-.21.244.244,0,0,1,.12-.21l4.38-2.53a.275.275,0,0,1,.25,0l4.35,2.53a.235.235,0,0,1,.12.21.244.244,0,0,1-.12.21l-4.38,2.53A.345.345,0,0,1,17.94,26.27ZM14.09,23.5l3.85,2.24,3.88-2.24-3.85-2.24Z" fill="#111925"/><path d="M22.31,23.5l.07,25.74-4.37,2.52-.07-25.74Z" fill="#02a879"/><path d="M18.01,52.01a.238.238,0,0,1-.12-.03.235.235,0,0,1-.12-.21L17.7,26.03a.275.275,0,0,1,.12-.22l4.38-2.53a.275.275,0,0,1,.25,0,.235.235,0,0,1,.12.21l.07,25.74a.275.275,0,0,1-.12.22l-4.38,2.53A.345.345,0,0,1,18.01,52.01Zm.18-25.84.07,25.17,3.88-2.24-.07-25.17Z" fill="#111925"/><path d="M56.77,22.67l3.24-1.84-2.23,2.61-3.24,1.84Z" fill="#111925"/><path d="M54.54,25.53a.246.246,0,0,1-.19-.09.243.243,0,0,1,0-.32l2.23-2.61a.179.179,0,0,1,.07-.05l3.25-1.84a.246.246,0,0,1,.31.06.243.243,0,0,1,0,.32l-2.23,2.61a.179.179,0,0,1-.07.05L54.66,25.5a.266.266,0,0,1-.12.03Zm2.39-2.66-1.28,1.5,1.98-1.12,1.28-1.5Z" fill="#111925"/><path d="M64.75,16.01c-.01,2.18-.78,3.72-2.02,4.44l-3.25,1.84c1.25-.72,2.01-2.26,2.02-4.44A15.174,15.174,0,0,0,54.59,5.89c-1.93-1.11-3.67-1.21-4.93-.49l3.25-1.84c1.26-.73,3-.63,4.93.48A15.276,15.276,0,0,1,64.75,16.01Z" fill="#ffe08a"/><path d="M59.48,22.54a.251.251,0,0,1-.22-.12.247.247,0,0,1,.09-.34c1.22-.71,1.89-2.21,1.9-4.23A14.948,14.948,0,0,0,54.46,6.1c-1.76-1.01-3.39-1.2-4.62-.52l-.06.03a.249.249,0,0,1-.25-.43.209.209,0,0,0,.06-.04l3.18-1.8c1.39-.81,3.23-.64,5.17.48A15.543,15.543,0,0,1,64.98,16c0,2.2-.77,3.86-2.14,4.65l-3.25,1.84a.127.127,0,0,1-.11.05Zm-8-17.85a6.559,6.559,0,0,1,3.24.99,15.505,15.505,0,0,1,7.03,12.18,6.364,6.364,0,0,1-.81,3.33l1.67-.95c1.22-.7,1.89-2.2,1.89-4.22A15,15,0,0,0,57.71,4.27c-1.78-1.03-3.44-1.2-4.68-.48l-1.6.91a.09.09,0,0,1,.05-.01Z" fill="#111925"/><path d="M54.59,5.89A15.207,15.207,0,0,1,61.5,17.86c-.01,3.51-1.99,5.34-4.73,4.82l-2.23,2.61-2.2-5.16A15.371,15.371,0,0,1,47.65,9.86c0-4.41,3.11-6.18,6.94-3.97Z" fill="#fff"/><path d="M54.54,25.53H54.5a.243.243,0,0,1-.19-.15l-2.18-5.11A15.615,15.615,0,0,1,47.4,9.85c.01-2.21.77-3.87,2.16-4.67s3.23-.63,5.16.49a15.543,15.543,0,0,1,7.04,12.18,5.471,5.471,0,0,1-1.67,4.32,3.884,3.884,0,0,1-3.22.76l-2.14,2.5a.228.228,0,0,1-.19.1ZM51.48,5.18a3.258,3.258,0,0,0-1.68.43c-1.23.7-1.9,2.21-1.91,4.24a15.094,15.094,0,0,0,4.62,10.09.555.555,0,0,1,.06.08l2.04,4.79,1.97-2.3a.233.233,0,0,1,.23-.08,3.487,3.487,0,0,0,2.95-.63,5.037,5.037,0,0,0,1.49-3.94A14.974,14.974,0,0,0,54.46,6.11a5.975,5.975,0,0,0-2.98-.93Z" fill="#111925"/><path d="M54.76,19.82a11.123,11.123,0,0,1-5.04-8.73c.01-3.2,2.29-4.49,5.07-2.88a11.077,11.077,0,0,1,5.03,8.71c-.01,3.21-2.27,4.51-5.06,2.9" fill="#fff"/><path d="M57.02,20.76a4.816,4.816,0,0,1-2.38-.72,11.42,11.42,0,0,1-5.17-8.95,3.725,3.725,0,0,1,1.61-3.45A3.8,3.8,0,0,1,54.92,8a11.378,11.378,0,0,1,5.15,8.93,3.782,3.782,0,0,1-1.61,3.47,2.931,2.931,0,0,1-1.44.36ZM52.52,7.77a2.309,2.309,0,0,0-1.2.31,3.3,3.3,0,0,0-1.36,3.02,10.851,10.851,0,0,0,4.92,8.52,3.321,3.321,0,0,0,3.33.35,3.3,3.3,0,0,0,1.36-3.04,10.8,10.8,0,0,0-4.9-8.49,4.308,4.308,0,0,0-2.15-.67Z" fill="#111925"/><path d="M56.81,12.43c-.6-.35-1.09-.07-1.09.63a2.412,2.412,0,0,0,1.09,1.88c.6.35,1.09.07,1.1-.62A2.452,2.452,0,0,0,56.81,12.43Z" fill="#fff"/><path d="M57.29,15.33a1.313,1.313,0,0,1-.62-.18,2.63,2.63,0,0,1-1.21-2.1.91.91,0,0,1,1.47-.84,2.619,2.619,0,0,1,1.21,2.1,1,1,0,0,1-.44.91.744.744,0,0,1-.41.11Zm-.97-2.8a.293.293,0,0,0-.16.04.554.554,0,0,0-.2.49,2.154,2.154,0,0,0,.96,1.66.429.429,0,0,0,.73-.4,2.156,2.156,0,0,0-.97-1.67.727.727,0,0,0-.36-.12Z" fill="#111925"/><path d="M52.74,13.09c-.6-.35-1.09-.07-1.09.62a2.4,2.4,0,0,0,1.09,1.88c.6.35,1.09.06,1.1-.62A2.45,2.45,0,0,0,52.74,13.09Z" fill="#fff"/><path d="M53.22,16a1.248,1.248,0,0,1-.61-.18,2.645,2.645,0,0,1-1.21-2.1.984.984,0,0,1,.44-.91,1,1,0,0,1,1.02.08,2.619,2.619,0,0,1,1.21,2.1,1,1,0,0,1-.45.92,1.064,1.064,0,0,1-.4.09Zm-.97-2.81a.273.273,0,0,0-.16.04.551.551,0,0,0-.19.49,2.173,2.173,0,0,0,.96,1.67.566.566,0,0,0,.53.08.554.554,0,0,0,.2-.49,2.172,2.172,0,0,0-.97-1.67A.792.792,0,0,0,52.25,13.19Z" fill="#111925"/><path d="M53.34,10.43l2.85,7.17" fill="#fff"/><path d="M56.19,17.85a.247.247,0,0,1-.23-.16l-2.85-7.17a.247.247,0,1,1,.46-.18l2.85,7.17a.243.243,0,0,1-.14.32.149.149,0,0,1-.09.02Z" fill="#111925"/></g></svg>