<svg xmlns="http://www.w3.org/2000/svg" width="48.58" height="50.17" viewBox="0 0 48.58 50.17"><g transform="translate(-2.5 -1.503)"><g transform="translate(32.118 4.206)"><g transform="translate(0 1.511)"><path d="M54.892,15.2a2.249,2.249,0,0,1,1.019,1.768l-.024,9.023c0,.653-.462.908-1.027.581L43.894,20.245a.647.647,0,0,0-.709-.048L41.7,21.225a.7.7,0,0,1-.749-.04,2.24,2.24,0,0,1-1.027-1.776l.032-11.643c0-.645.462-.908,1.027-.581Z" transform="translate(-39.737 -6.845)" fill="#fff"/><path d="M55.275,26.86a1.12,1.12,0,0,1-.557-.167L43.76,20.361a.476.476,0,0,0-.5-.056l-1.489,1.027a.871.871,0,0,1-.956-.032,2.433,2.433,0,0,1-1.123-1.943l.032-11.643a.813.813,0,0,1,1.314-.757l13.913,8.036a2.432,2.432,0,0,1,1.115,1.935l-.024,9.015a.911.911,0,0,1-.4.828.8.8,0,0,1-.366.088Zm-11.85-6.992a1.055,1.055,0,0,1,.526.159l10.966,6.331a.562.562,0,0,0,.534.072.531.531,0,0,0,.2-.486l.024-9.015a2.064,2.064,0,0,0-.924-1.593L40.837,7.293a.562.562,0,0,0-.534-.072.54.54,0,0,0-.2.486L40.072,19.35a2.024,2.024,0,0,0,.932,1.6.532.532,0,0,0,.542.056l1.489-1.027A.721.721,0,0,1,43.425,19.868Z" transform="translate(-39.69 -6.794)" fill="#111925"/></g><g transform="translate(0.331)"><path d="M58.585,15.079,58.562,24.1a.688.688,0,0,1-.3.653l-2.588,1.505a.709.709,0,0,0,.295-.653L56,16.584a2.261,2.261,0,0,0-1.019-1.768L41.073,6.789a.715.715,0,0,0-.733-.072l2.588-1.505a.7.7,0,0,1,.725.072l13.913,8.028A2.24,2.24,0,0,1,58.585,15.079Z" transform="translate(-40.153 -4.947)" fill="#ff8288"/><path d="M55.631,26.4a.192.192,0,0,1-.1-.358.54.54,0,0,0,.2-.486l.024-9.023a2.092,2.092,0,0,0-.924-1.6L40.929,6.906a.562.562,0,0,0-.534-.072A.193.193,0,0,1,40.2,6.5l2.588-1.505a.893.893,0,0,1,.924.072l13.905,8.028a2.42,2.42,0,0,1,1.115,1.935l-.024,9.015a.888.888,0,0,1-.4.82l-2.58,1.505A.193.193,0,0,1,55.631,26.4ZM40.977,6.492l.143.072,13.913,8.028a2.432,2.432,0,0,1,1.115,1.935l-.024,9.015a.964.964,0,0,1-.008.151l2.007-1.163a.533.533,0,0,0,.207-.486l.024-9.023a2.064,2.064,0,0,0-.924-1.593L43.51,5.4a.562.562,0,0,0-.534-.072Z" transform="translate(-40.106 -4.897)" fill="#111925"/></g></g><g transform="translate(36.825 12.013)"><g transform="translate(2.126)"><path d="M50.911,15.027a1.189,1.189,0,0,1,.406.414,1.247,1.247,0,0,1,.215.653,4.3,4.3,0,0,1-.725,2.095l2.333,1.362a1.138,1.138,0,0,1,.518.836.374.374,0,0,1-.143.358.355.355,0,0,1-.35-.032l-.04-.024a1.1,1.1,0,0,1,.494.86.342.342,0,0,1-.143.319.355.355,0,0,1-.35-.032l-.056-.032a1.1,1.1,0,0,1,.494.86.351.351,0,0,1-.143.319.355.355,0,0,1-.35-.032l-.048-.032a1.1,1.1,0,0,1,.494.86.351.351,0,0,1-.143.319.355.355,0,0,1-.35-.032l-4.181-2.413a.689.689,0,0,1-.311-.542l.008-3.624c0-.167.1-.247.239-.207,1.011.295,1.465-1.067,1.617-2,.04-.366.231-.422.518-.255Z" transform="translate(-48.323 -14.748)" fill="#fff"/><path d="M53.176,24.257a.615.615,0,0,1-.319-.1l-4.181-2.413a.881.881,0,0,1-.406-.709l.008-3.624a.411.411,0,0,1,.151-.342.377.377,0,0,1,.334-.056.646.646,0,0,0,.557-.064,2.7,2.7,0,0,0,.812-1.776.523.523,0,0,1,.271-.438.575.575,0,0,1,.55.08,1.517,1.517,0,0,1,.478.478,1.572,1.572,0,0,1,.247.757,4.228,4.228,0,0,1-.645,2.031l2.158,1.258a1.309,1.309,0,0,1,.613,1,.542.542,0,0,1-.247.534,1.269,1.269,0,0,1,.2.629.5.5,0,0,1-.247.486,1.206,1.206,0,0,1,.191.621.532.532,0,0,1-.247.486h-.008a1.229,1.229,0,0,1,.191.621.523.523,0,0,1-.247.486.452.452,0,0,1-.215.056Zm-4.508-6.865v.024l-.008,3.624a.508.508,0,0,0,.215.374l4.181,2.413a.185.185,0,0,0,.159.032c.032-.016.048-.072.048-.151a.884.884,0,0,0-.4-.685.193.193,0,0,1,.191-.334l.048.032c.08.048.135.048.159.032s.048-.072.048-.151a.884.884,0,0,0-.4-.685.193.193,0,1,1,.191-.334l.056.032c.08.048.135.048.159.032s.048-.072.048-.151a.884.884,0,0,0-.4-.685.193.193,0,0,1,.191-.334l.04.024a.185.185,0,0,0,.159.032.207.207,0,0,0,.048-.175.973.973,0,0,0-.422-.677l-2.333-1.362a.19.19,0,0,1-.064-.279,4.093,4.093,0,0,0,.685-1.975,1.125,1.125,0,0,0-.183-.55,1.032,1.032,0,0,0-.342-.35c-.119-.072-.175-.072-.191-.064s-.04.04-.056.151a3.12,3.12,0,0,1-.988,2.039,1.021,1.021,0,0,1-.844.1Z" transform="translate(-48.27 -14.7)" fill="#111925"/></g><g transform="translate(0 0.918)"><path d="M47.554,16.886a.918.918,0,0,1,.414.725l-.008,3.982c0,.263-.191.374-.422.239L46.264,21.1a.918.918,0,0,1-.414-.725l.008-3.99c0-.263.191-.374.422-.239Z" transform="translate(-45.651 -15.901)" fill="#0296f6"/><path d="M47.679,22.039a.649.649,0,0,1-.287-.08l-1.274-.733a1.13,1.13,0,0,1-.518-.892l.008-3.99a.475.475,0,0,1,.223-.438.484.484,0,0,1,.494.032l1.274.733a1.1,1.1,0,0,1,.518.892L48.1,21.545a.475.475,0,0,1-.223.438.342.342,0,0,1-.2.056Zm-1.633-5.8H46.03c-.008,0-.024.032-.024.1L46,20.334a.75.75,0,0,0,.319.557l1.274.733a.15.15,0,0,0,.1.032c.008,0,.024-.032.024-.1l.008-3.99a.75.75,0,0,0-.319-.557l-1.274-.733A.193.193,0,0,0,46.046,16.241Z" transform="translate(-45.6 -15.853)" fill="#111925"/></g><g transform="translate(5.627 5.101)"><path d="M54.023,21.985,52.9,21.34" transform="translate(-52.713 -21.153)" fill="#fff"/><path d="M53.975,22.136a.212.212,0,0,1-.1-.024l-1.115-.645a.193.193,0,0,1,.191-.334l1.115.645a.189.189,0,0,1,.072.263A.216.216,0,0,1,53.975,22.136Z" transform="translate(-52.666 -21.106)" fill="#111925"/></g><g transform="translate(5.563 6.208)"><path d="M53.945,23.375,52.83,22.73" transform="translate(-52.635 -22.543)" fill="#fff"/><path d="M53.9,23.526a.212.212,0,0,1-.1-.024l-1.115-.645a.193.193,0,0,1,.191-.334l1.115.645a.189.189,0,0,1,.072.263A.187.187,0,0,1,53.9,23.526Z" transform="translate(-52.586 -22.496)" fill="#111925"/></g><g transform="translate(5.508 7.315)"><path d="M53.875,24.775,52.76,24.13" transform="translate(-52.565 -23.935)" fill="#fff"/><path d="M53.825,24.916a.212.212,0,0,1-.1-.024l-1.115-.645a.193.193,0,0,1,.191-.334l1.115.645a.189.189,0,0,1,.072.263.179.179,0,0,1-.167.1Z" transform="translate(-52.516 -23.886)" fill="#111925"/></g></g><g transform="translate(2.5 1.503)"><path d="M28.975,3.35a1.474,1.474,0,0,0-1.5.151L7.377,15a4.631,4.631,0,0,0-2.11,3.647l.088,31.386a1.473,1.473,0,0,0,.613,1.354L3.451,49.924a1.465,1.465,0,0,1-.613-1.354L2.75,17.184a4.622,4.622,0,0,1,2.11-3.647l20.1-11.5a1.47,1.47,0,0,1,1.5-.143Z" transform="translate(-2.551 -1.553)" fill="#e4e8f2"/><path d="M5.917,51.53a.212.212,0,0,1-.1-.024H5.813L3.3,50.041a1.64,1.64,0,0,1-.709-1.521L2.5,17.134a4.874,4.874,0,0,1,2.206-3.823L24.815,1.819A1.646,1.646,0,0,1,26.5,1.676L29.02,3.133a.193.193,0,0,1-.191.334,1.294,1.294,0,0,0-1.306.151l-20.1,11.5a4.407,4.407,0,0,0-2.007,3.472L5.5,49.977a1.294,1.294,0,0,0,.51,1.179.189.189,0,0,1,.072.263.169.169,0,0,1-.167.111ZM25.842,1.891a1.67,1.67,0,0,0-.836.263l-20.1,11.5A4.421,4.421,0,0,0,2.9,17.134l.08,31.386A1.286,1.286,0,0,0,3.5,49.707l1.712,1a2.511,2.511,0,0,1-.1-.717L5.025,18.6a4.838,4.838,0,0,1,2.206-3.815l20.093-11.5a2.477,2.477,0,0,1,.693-.279l-1.712-1a.887.887,0,0,0-.462-.119Z" transform="translate(-2.5 -1.503)" fill="#111925"/><g transform="translate(2.525 1.464)"><path d="M28.122,3.876c1.171-.677,2.11-.127,2.118,1.211l.088,31.386a4.641,4.641,0,0,1-2.1,3.64L8.116,51.612C6.945,52.289,6,51.747,6,50.409L5.91,19.023a4.643,4.643,0,0,1,2.11-3.647Z" transform="translate(-5.719 -3.391)" fill="#fff"/><path d="M7.119,52.048a1.307,1.307,0,0,1-.653-.167A1.644,1.644,0,0,1,5.75,50.36L5.67,18.974a4.9,4.9,0,0,1,2.206-3.823L27.969,3.659a1.667,1.667,0,0,1,1.688-.151,1.65,1.65,0,0,1,.717,1.529l.088,31.386a4.872,4.872,0,0,1-2.2,3.815L8.171,51.729a2.1,2.1,0,0,1-1.051.319ZM29.012,3.731a1.771,1.771,0,0,0-.852.263L8.067,15.493a4.421,4.421,0,0,0-2.007,3.48L6.148,50.36a1.289,1.289,0,0,0,.526,1.187,1.313,1.313,0,0,0,1.306-.151l20.093-11.5a4.437,4.437,0,0,0,2.007-3.472L29.992,5.037a1.313,1.313,0,0,0-.526-1.195.934.934,0,0,0-.454-.111Z" transform="translate(-5.67 -3.341)" fill="#111925"/></g><g transform="translate(5.285 39.264)"><path d="M12.645,51.05,9.38,52.914" transform="translate(-9.185 -50.855)" fill="#fff"/><path d="M9.33,53.055a.192.192,0,0,1-.1-.358l3.257-1.864a.193.193,0,0,1,.191.334L9.426,53.031A.17.17,0,0,1,9.33,53.055Z" transform="translate(-9.136 -50.806)" fill="#111925"/></g><g transform="translate(10.828 30.48)"><path d="M29.417,40.02,16.34,47.5" transform="translate(-16.145 -39.825)" fill="#fff"/><path d="M16.29,47.64a.192.192,0,0,1-.1-.358L29.271,39.8a.193.193,0,0,1,.191.334L16.386,47.616A.212.212,0,0,1,16.29,47.64Z" transform="translate(-16.096 -39.776)" fill="#111925"/></g><g transform="translate(5.285 42.729)"><path d="M12.645,55.39,9.38,57.262" transform="translate(-9.185 -55.203)" fill="#fff"/><path d="M9.33,57.4a.192.192,0,0,1-.1-.358l3.257-1.864a.193.193,0,0,1,.191.334L9.426,57.381A.17.17,0,0,1,9.33,57.4Z" transform="translate(-9.136 -55.156)" fill="#111925"/></g><g transform="translate(10.828 33.944)"><path d="M29.417,44.36,16.34,51.846" transform="translate(-16.145 -44.173)" fill="#fff"/><path d="M16.29,51.99a.192.192,0,0,1-.1-.358l13.077-7.478a.193.193,0,0,1,.191.334L16.386,51.966A.212.212,0,0,1,16.29,51.99Z" transform="translate(-16.096 -44.126)" fill="#111925"/></g><g transform="translate(9.421 11.336)"><path d="M19.866,16.713c2.939-1.7,5.32-.334,5.328,3.034a11.664,11.664,0,0,1-5.3,9.174c-2.931,1.7-5.32.334-5.328-3.042A11.649,11.649,0,0,1,19.866,16.713Z" transform="translate(-14.379 -15.787)" fill="#fff"/><path d="M17.468,29.8a2.912,2.912,0,0,1-1.481-.382A3.9,3.9,0,0,1,14.33,25.83,11.908,11.908,0,0,1,19.722,16.5a3.92,3.92,0,0,1,3.966-.374A3.9,3.9,0,0,1,25.344,19.7a11.889,11.889,0,0,1-5.392,9.342A5.083,5.083,0,0,1,17.468,29.8ZM19.913,16.83a11.466,11.466,0,0,0-5.2,9,3.547,3.547,0,0,0,1.465,3.249,3.569,3.569,0,0,0,3.576-.374,11.48,11.48,0,0,0,5.2-9.007A3.546,3.546,0,0,0,23.5,16.456a3.563,3.563,0,0,0-3.584.374Z" transform="translate(-14.33 -15.737)" fill="#111925"/><g transform="translate(3.401 2.564)"><path d="M20.7,19.455c1.027-.589,1.856-.119,1.864,1.059a4.068,4.068,0,0,1-1.848,3.2c-1.027.589-1.856.119-1.864-1.059A4.089,4.089,0,0,1,20.7,19.455Z" transform="translate(-18.651 -19.006)" fill="#0296f6"/><path d="M19.826,24.12a1.132,1.132,0,0,1-.581-.151,1.49,1.49,0,0,1-.645-1.362,4.305,4.305,0,0,1,1.943-3.369,1.509,1.509,0,0,1,1.513-.135,1.469,1.469,0,0,1,.637,1.362,4.305,4.305,0,0,1-1.943,3.369,1.8,1.8,0,0,1-.924.287Zm.916-4.547a3.863,3.863,0,0,0-1.752,3.034,1.123,1.123,0,0,0,.446,1.027,1.137,1.137,0,0,0,1.123-.127,3.863,3.863,0,0,0,1.752-3.034,1.1,1.1,0,0,0-.446-1.019,1.113,1.113,0,0,0-1.123.119Z" transform="translate(-18.6 -18.956)" fill="#111925"/></g><g transform="translate(0.759 6.339)"><path d="M24.617,25a11.533,11.533,0,0,1-4.524,5.543c-1.927,1.115-3.624.908-4.563-.327a11.578,11.578,0,0,1,4.524-5.543C21.989,23.549,23.685,23.756,24.617,25Z" transform="translate(-15.333 -23.745)" fill="#0296f6"/><path d="M17.654,31.408a2.835,2.835,0,0,1-2.333-1.131.2.2,0,0,1-.024-.191,11.67,11.67,0,0,1,4.611-5.638c1.943-1.123,3.791-.98,4.81.374a.2.2,0,0,1,.024.191,11.67,11.67,0,0,1-4.611,5.638A4.928,4.928,0,0,1,17.654,31.408ZM15.7,30.126c.924,1.123,2.5,1.195,4.237.191a11.266,11.266,0,0,0,4.4-5.344c-.924-1.123-2.5-1.195-4.237-.191a11.3,11.3,0,0,0-4.4,5.344Z" transform="translate(-15.283 -23.696)" fill="#111925"/></g></g><g transform="translate(5.558 22.784)"><g transform="translate(0 7.685)"><path d="M12.23,40.034c.048-.032.1-.032.127.016l.677,1.171a.076.076,0,0,0,.1.024l1.5-.613c.119-.048.159.088.08.231L13.632,42.7a.273.273,0,0,0-.04.167l.263,1.569a.306.306,0,0,1-.135.271.1.1,0,0,1-.064.016l-1.346-.04a.246.246,0,0,0-.064.016.142.142,0,0,0-.064.056l-1.338,1.577a.348.348,0,0,1-.064.056c-.08.048-.151.008-.135-.111l.255-1.864a.112.112,0,0,0-.04-.119l-1.091-.589c-.08-.048-.04-.239.08-.327l1.5-1.115a.289.289,0,0,0,.1-.151l.661-1.943a.281.281,0,0,1,.119-.135Z" transform="translate(-9.53 -39.813)" fill="#f8d555"/><path d="M10.666,46.562a.262.262,0,0,1-.151-.048.3.3,0,0,1-.119-.3l.247-1.824-1.019-.55A.285.285,0,0,1,9.48,43.6a.484.484,0,0,1,.2-.406l1.5-1.115a.167.167,0,0,0,.04-.056l.661-1.943a.494.494,0,0,1,.215-.271.272.272,0,0,1,.39.088l.621,1.083,1.41-.581a.276.276,0,0,1,.319.064.381.381,0,0,1,.008.438l-1.083,1.84a.375.375,0,0,0-.016.04L14,44.34a.5.5,0,0,1-.231.47.307.307,0,0,1-.159.048l-1.33-.024-1.338,1.585a.375.375,0,0,1-.119.1.425.425,0,0,1-.159.04Zm-.788-3.018,1.011.55a.32.32,0,0,1,.143.319l-.207,1.545,1.155-1.362a.353.353,0,0,1,.119-.1.284.284,0,0,1,.175-.04l1.33.032c-.024-.008.008-.048.008-.064l-.263-1.561a.445.445,0,0,1,.064-.295l1-1.688-1.25.51a.277.277,0,0,1-.342-.1l-.6-1.035-.653,1.911a.483.483,0,0,1-.175.239l-1.5,1.115c0-.016-.008,0-.016.016Zm2.373,1.29Zm.765-3.815Z" transform="translate(-9.479 -39.762)" fill="#111925"/></g><g transform="translate(6.65 3.831)"><path d="M20.592,35.2c.048-.032.1-.032.127.016l.677,1.171a.076.076,0,0,0,.1.024L23,35.8c.119-.048.159.088.08.231l-1.083,1.84a.273.273,0,0,0-.04.167l.263,1.569a.306.306,0,0,1-.135.271.1.1,0,0,1-.064.016l-1.346-.04a.246.246,0,0,0-.064.016.215.215,0,0,0-.064.056L19.215,41.5a.348.348,0,0,1-.064.056c-.08.048-.151.008-.135-.111l.255-1.864a.112.112,0,0,0-.04-.119l-1.091-.589c-.08-.048-.04-.239.08-.327l1.5-1.115a.261.261,0,0,0,.1-.151l.661-1.943a.258.258,0,0,1,.111-.135Z" transform="translate(-17.884 -34.975)" fill="#f8d555"/><path d="M19.016,41.737a.262.262,0,0,1-.151-.048.3.3,0,0,1-.119-.3l.247-1.824-1.019-.55a.285.285,0,0,1-.143-.239.509.509,0,0,1,.2-.414l1.5-1.115a.145.145,0,0,0,.04-.064l.661-1.943a.494.494,0,0,1,.215-.271.272.272,0,0,1,.39.088l.621,1.083,1.41-.581a.276.276,0,0,1,.319.064.381.381,0,0,1,.008.438L22.107,37.9a.375.375,0,0,0-.016.04l.263,1.561a.5.5,0,0,1-.231.47.287.287,0,0,1-.159.048l-1.314-.032L19.311,41.57a.693.693,0,0,1-.119.1.28.28,0,0,1-.175.064Zm-.78-3.026,1.011.55a.32.32,0,0,1,.143.319l-.207,1.545,1.147-1.362a.486.486,0,0,1,.119-.1.284.284,0,0,1,.175-.04l1.338.032c-.024-.008.008-.048.008-.064l-.263-1.561a.445.445,0,0,1,.064-.295l1-1.688-1.25.51a.277.277,0,0,1-.35-.1l-.589-1.027-.653,1.911a.5.5,0,0,1-.175.239l-1.5,1.115A.114.114,0,0,1,18.236,38.711ZM20.609,40Z" transform="translate(-17.829 -34.922)" fill="#111925"/></g><g transform="translate(13.308)"><path d="M28.953,30.374c.048-.032.1-.032.127.016l.677,1.171a.076.076,0,0,0,.1.024l1.5-.613c.119-.048.159.088.08.231l-1.075,1.84a.273.273,0,0,0-.04.167l.263,1.569a.3.3,0,0,1-.143.271.1.1,0,0,1-.064.016l-1.346-.04a.246.246,0,0,0-.064.016.215.215,0,0,0-.064.056l-1.33,1.577a.348.348,0,0,1-.064.056c-.08.048-.151.008-.135-.111l.255-1.864a.112.112,0,0,0-.04-.119l-1.083-.589c-.088-.048-.04-.239.08-.319l1.5-1.115a.261.261,0,0,0,.1-.151l.661-1.943a.187.187,0,0,1,.1-.143Z" transform="translate(-26.245 -30.161)" fill="#f8d555"/><path d="M27.376,36.912a.262.262,0,0,1-.151-.048.317.317,0,0,1-.119-.3l.247-1.816-1.019-.55a.29.29,0,0,1-.143-.231.509.509,0,0,1,.2-.414l1.5-1.115a.145.145,0,0,0,.04-.064l.661-1.943a.523.523,0,0,1,.215-.271.272.272,0,0,1,.39.088l.621,1.083,1.41-.581a.276.276,0,0,1,.319.064.381.381,0,0,1,0,.446L30.467,33.1a.375.375,0,0,0-.016.04l.263,1.561a.5.5,0,0,1-.231.47.307.307,0,0,1-.159.048l-1.314-.032-1.338,1.585a.693.693,0,0,1-.119.1.5.5,0,0,1-.175.04Zm-.788-3.018,1.011.55a.3.3,0,0,1,.143.319l-.207,1.545,1.155-1.362a.375.375,0,0,1,.119-.1.284.284,0,0,1,.175-.04l1.306.032a.121.121,0,0,0,.032-.064l-.263-1.561a.445.445,0,0,1,.064-.295l1-1.688-1.242.51a.277.277,0,0,1-.35-.1L28.937,30.6l-.653,1.911a.536.536,0,0,1-.175.239l-1.5,1.115c-.008-.008-.016.008-.024.024Zm.828.884.008.008Zm2.31-3.417Z" transform="translate(-26.189 -30.112)" fill="#111925"/></g></g></g></g></svg>