<svg xmlns="http://www.w3.org/2000/svg" width="63" height="63" viewBox="0 0 63 63"><g transform="translate(-1243.117 -1679)"><rect width="63" height="63" rx="5" transform="translate(1243.117 1679)" fill="#dcbafa"/><g transform="translate(1210.854 1652.498)"><g transform="translate(40.418 35.502)"><g transform="translate(0.279 0.28)"><g transform="translate(0 1.313)"><path d="M85.363,317.911v3.221a1.785,1.785,0,0,1-1.035,1.44L66.857,332.725a5.483,5.483,0,0,1-5,0L44.283,322.579a1.789,1.789,0,0,1-1.048-1.46l.007-3.221a1.758,1.758,0,0,0,1.048,1.453L61.867,329.5a5.484,5.484,0,0,0,5,0l17.471-10.152a1.762,1.762,0,0,0,1.028-1.44Z" transform="translate(-43.235 -291.532)" fill="#fff"/><path d="M84.394,205.5c1.386.8,1.389,2.1.011,2.9L66.934,218.551a5.5,5.5,0,0,1-5,0L44.358,208.4c-1.386-.8-1.394-2.093-.016-2.894l17.471-10.153a5.508,5.508,0,0,1,5,0Z" transform="translate(-43.306 -180.579)" fill="#fff"/><path d="M184.475,109.5l20.457-11.811.043,15.2a4.948,4.948,0,0,1-2.245,3.889l-15.952,9.21c-1.244.718-2.256.142-2.26-1.288Z" transform="translate(-170.491 -93.122)" fill="#fff"/><path d="M202.587,51.9c1.244-.718,2.256-.142,2.26,1.288l.008,2.967L184.4,67.968,184.39,65a4.948,4.948,0,0,1,2.245-3.889Z" transform="translate(-170.415 -51.593)" fill="#fff"/></g><path d="M161.6,218.988a1.578,1.578,0,0,0,.655,1.446l2.266,1.317a1.585,1.585,0,0,1-.655-1.446l-.05-15.194-2.264-1.308Z" transform="translate(-149.838 -187.419)" fill="#fcce0e"/><path d="M181.262,38.484a1.6,1.6,0,0,0-1.6.158L163.7,47.851a5.028,5.028,0,0,0-2.244,3.885l.009,2.98,2.264,1.308v-.007h.007l-.014-2.964a5.066,5.066,0,0,1,2.244-3.892l15.957-9.209a1.634,1.634,0,0,1,1.6-.158Z" transform="translate(-149.751 -38.333)" fill="#fcce0e"/><path d="M268.828,191.205l4.243.572c.413.053.415.735,0,1.264-4.334,5.554-4.226,5.575-4.566,5.771s-.65.064-.651-.373l-.017-6.033C267.838,191.844,268.384,191.143,268.828,191.205Z" transform="translate(-245.602 -176.066)" fill="#fcce0e"/><path d="M238.091,293.065c.684-.395,1.239-.078,1.241.707a2.717,2.717,0,0,1-1.233,2.136c-.683.395-1.238.077-1.241-.708A2.716,2.716,0,0,1,238.091,293.065Z" transform="translate(-217.688 -267.691)" fill="#fcce0e"/><path d="M85.373,317.964v3.221a1.785,1.785,0,0,1-1.035,1.44L66.867,332.778a5.483,5.483,0,0,1-5,0L44.293,322.632a1.789,1.789,0,0,1-1.048-1.46l.007-3.221A1.758,1.758,0,0,0,44.3,319.4l17.577,10.152a5.483,5.483,0,0,0,5,0L84.344,319.4a1.762,1.762,0,0,0,1.029-1.44Z" transform="translate(-43.244 -290.267)" fill="#fff"/><path d="M84.4,205.554c1.387.8,1.389,2.1.011,2.9L66.944,218.6a5.5,5.5,0,0,1-5,0l-17.58-10.15c-1.386-.8-1.394-2.093-.016-2.894l17.471-10.153a5.508,5.508,0,0,1,5,0Z" transform="translate(-43.315 -179.314)" fill="#fff"/><path d="M184.485,109.549l20.457-11.811.043,15.2a4.948,4.948,0,0,1-2.245,3.889l-15.952,9.21c-1.244.718-2.256.142-2.26-1.288Z" transform="translate(-170.5 -91.856)" fill="#fff"/><path d="M202.6,51.956c1.244-.718,2.256-.142,2.26,1.288l.008,2.967L184.408,68.022l-.008-2.967a4.948,4.948,0,0,1,2.245-3.889Z" transform="translate(-170.424 -50.329)" fill="#fff"/><path d="M161.61,219.042a1.578,1.578,0,0,0,.655,1.446l2.266,1.317a1.585,1.585,0,0,1-.655-1.446l-.05-15.194-2.264-1.308Z" transform="translate(-149.847 -187.468)" fill="#fcce0e"/><path d="M181.272,38.538a1.6,1.6,0,0,0-1.6.158L163.71,47.9a5.028,5.028,0,0,0-2.244,3.885l.009,2.98,2.264,1.308v-.007h.007l-.014-2.964a5.066,5.066,0,0,1,2.244-3.892l15.957-9.209a1.634,1.634,0,0,1,1.6-.158Z" transform="translate(-149.76 -38.382)" fill="#fcce0e"/><path d="M268.838,191.258l4.243.572c.413.053.415.735,0,1.264-4.334,5.554-4.226,5.575-4.566,5.771s-.65.064-.651-.373l-.017-6.033c0-.563.544-1.263.988-1.2Z" transform="translate(-245.611 -176.114)" fill="#fcce0e"/><path d="M238.1,293.119c.684-.395,1.239-.078,1.241.707a2.717,2.717,0,0,1-1.233,2.136c-.683.395-1.238.077-1.241-.708A2.716,2.716,0,0,1,238.1,293.119Z" transform="translate(-217.697 -267.74)" fill="#fcce0e"/></g><g transform="translate(0 0)"><path d="M81.924,61.776,75.3,57.95a4.114,4.114,0,0,0,.161-1.1c0-1.618-.046-16.315-.052-18.163a1.89,1.89,0,0,0-.8-1.69l-2.266-1.309a1.858,1.858,0,0,0-1.883.158L54.507,45.058a5.3,5.3,0,0,0-2.384,4.127c0,.131.022,6.888.02,6.466l-10.55,6.131a2.017,2.017,0,0,0-1.166,1.678h0v0l-.007,3.219a2.047,2.047,0,0,0,1.188,1.7L59.182,78.529a5.8,5.8,0,0,0,5.276,0L81.929,68.377A2.043,2.043,0,0,0,83.1,66.7c0-.807,0-2.421,0-3.228a2.032,2.032,0,0,0-1.182-1.692ZM74.9,56.856A4.644,4.644,0,0,1,72.8,60.5l-15.952,9.21a1.332,1.332,0,0,1-1.32.159A1.41,1.41,0,0,1,55,68.666c-.06-20.605-.039-13.5-.044-15.036l19.9-11.49Zm-.573-19.37a1.315,1.315,0,0,1,.521,1.206l.008,2.8-19.9,11.489c0-.867-.008-2.6-.008-2.485a4.739,4.739,0,0,1,2.106-3.647l15.952-9.21A1.433,1.433,0,0,1,74.329,37.487ZM54.785,45.542l15.956-9.208a1.34,1.34,0,0,1,1.326-.159l1.26.728a3.662,3.662,0,0,0-.6.257L56.772,46.369A5.318,5.318,0,0,0,54.389,50.5c0,.076.012,2.649.012,2.489L52.689,52l-.009-2.819A4.75,4.75,0,0,1,54.785,45.542Zm-2.094,7.107,1.705.985c0,1.538-.018-5.568.048,15.033a3.071,3.071,0,0,0,.07.621l-1.26-.732a1.32,1.32,0,0,1-.518-1.206h0ZM82.546,66.693a1.543,1.543,0,0,1-.9,1.2L64.178,78.047a5.181,5.181,0,0,1-4.716,0L41.885,67.9a1.547,1.547,0,0,1-.91-1.218l0-2a4.668,4.668,0,0,0,.63.478l17.58,10.15a5.835,5.835,0,0,0,5.276,0L81.936,65.156a4.011,4.011,0,0,0,.61-.46Zm-.89-2.019L64.185,74.826a5.236,5.236,0,0,1-4.717,0L41.889,64.672a1.545,1.545,0,0,1-.905-1.206,1.5,1.5,0,0,1,.889-1.2L52.145,56.3l.035,11.056a1.844,1.844,0,0,0,.794,1.686l2.266,1.316.009,0a1.873,1.873,0,0,0,1.873-.161l15.952-9.21a5.124,5.124,0,0,0,2.039-2.5l6.531,3.771c1.21.7,1.191,1.727.01,2.415Z" transform="translate(-40.418 -35.502)"/><path d="M266.108,196.522c.4-.234.182-.126,4.646-5.842.5-.648.512-1.622-.187-1.711l-4.242-.571c-.667-.086-1.306.8-1.306,1.478l.017,6.033A.67.67,0,0,0,266.108,196.522Zm.142-7.572,4.29.615a.916.916,0,0,1-.227.774c-4.368,5.613-4.239,5.559-4.485,5.7-.175.1-.232.058-.233-.132l-.017-6.032C265.577,189.4,266.041,188.925,266.25,188.95Z" transform="translate(-242.783 -173.255)"/><path d="M210.318,249.23l2.033-1.174c.206.746.907.927,1.6.528a3,3,0,0,0,1.361-2.237l9.915-5.725a.279.279,0,1,0-.279-.483l-9.7,5.6c-.228-.719-.912-.87-1.584-.483a3.006,3.006,0,0,0-1.356,2.181l-2.266,1.308a.279.279,0,1,0,.279.483Zm3.622-3.489c.495-.286.822-.1.823.467a2.45,2.45,0,0,1-1.093,1.894c-.485.279-.821.115-.823-.467A2.451,2.451,0,0,1,213.941,245.741Z" transform="translate(-193.12 -219.846)"/></g></g></g></g></svg>