<svg xmlns="http://www.w3.org/2000/svg" width="90.914" height="90.914" viewBox="0 0 90.914 90.914"><g transform="translate(-1008.141 -687.169)"><g transform="translate(1008.141 687.169)"><rect width="90.914" height="90.914" rx="45.457" transform="translate(0.001)" fill="#e8e8e8" opacity="0.859"/><rect width="90.914" height="90.914" rx="45.457" fill="none"/></g><g transform="translate(1021.141 696.621)"><path d="M41.97,45.18l-28,16.28a.849.849,0,0,1-.88-.09,2.724,2.724,0,0,1-1.24-2.15l.07-26.28L39.93,16.66l-.07,26.28a2.739,2.739,0,0,0,1.24,2.15.811.811,0,0,0,.87.09Z" fill="#fff"/><path d="M13.64,61.8a1.312,1.312,0,0,1-.68-.21,2.93,2.93,0,0,1-1.36-2.36l.07-26.28a.244.244,0,0,1,.12-.21L39.8,16.46a.275.275,0,0,1,.25,0,.24.24,0,0,1,.12.22L40.1,42.96a2.492,2.492,0,0,0,1.12,1.93.626.626,0,0,0,.63.08.249.249,0,1,1,.25.43L14.09,61.68a.892.892,0,0,1-.45.12ZM12.16,33.09l-.07,26.14a2.509,2.509,0,0,0,1.11,1.93.65.65,0,0,0,.64.09L41.12,45.4a1.093,1.093,0,0,1-.15-.08,2.93,2.93,0,0,1-1.36-2.36l.07-25.85Z" fill="#111925"/><path d="M9.42,31.51,37.43,15.23l2.49,1.44L11.91,32.95Z" fill="#cf6b20"/><path d="M11.91,33.2a.238.238,0,0,1-.12-.03L9.3,31.73a.235.235,0,0,1-.12-.21.244.244,0,0,1,.12-.21L37.31,15.03a.275.275,0,0,1,.25,0l2.49,1.44a.235.235,0,0,1,.12.21.244.244,0,0,1-.12.21L12.04,33.16a.284.284,0,0,1-.13.04ZM9.92,31.51l1.99,1.15L39.42,16.67l-1.99-1.15Z" fill="#111925"/><path d="M15.63,59.1l-2.5-1.46L13.01,16.7l2.51,1.46Z" fill="#e4e8f2"/><path d="M15.63,59.35a.238.238,0,0,1-.12-.03L13,57.86a.235.235,0,0,1-.12-.21L12.76,16.7a.245.245,0,0,1,.37-.22l2.51,1.46a.235.235,0,0,1,.12.21l.11,40.94a.275.275,0,0,1-.12.22.159.159,0,0,1-.12.04ZM13.37,57.5l2.01,1.17L15.27,18.3l-2.01-1.17Z" fill="#111925"/><path d="M15.52,18.16,13.01,16.7,39.72,1.25l2.51,1.46Z" fill="#e4e8f2"/><path d="M15.52,18.41a.238.238,0,0,1-.12-.03l-2.51-1.46a.235.235,0,0,1-.12-.21.257.257,0,0,1,.12-.21L39.6,1.04a.275.275,0,0,1,.25,0L42.36,2.5a.235.235,0,0,1,.12.21.257.257,0,0,1-.12.21L15.64,18.37a.245.245,0,0,1-.12.04ZM13.51,16.7l2.01,1.17L41.74,2.71,39.73,1.54Z" fill="#111925"/><path d="M42.23,2.71l.11,40.94L15.63,59.1l-.11-40.94Z" fill="#fff"/><path d="M15.63,59.35a.238.238,0,0,1-.12-.03.235.235,0,0,1-.12-.21l-.11-40.94a.275.275,0,0,1,.12-.22L42.11,2.49a.275.275,0,0,1,.25,0,.235.235,0,0,1,.12.21l.11,40.94a.275.275,0,0,1-.12.22L15.76,59.32a.277.277,0,0,1-.13.03Zm.14-41.05.11,40.37L42.09,43.51,41.98,3.14Z" fill="#111925"/><path d="M14.38,43.24,42.39,26.97l2.49,1.43L16.87,44.68Z" fill="#cf6b20"/><path d="M16.87,44.93a.238.238,0,0,1-.12-.03l-2.49-1.44a.235.235,0,0,1-.12-.21.244.244,0,0,1,.12-.21L42.27,26.76a.275.275,0,0,1,.25,0L45,28.19a.235.235,0,0,1,.12.21.244.244,0,0,1-.12.21L17,44.89a.22.22,0,0,1-.13.04Zm-1.99-1.69,1.99,1.15L44.38,28.4l-1.99-1.15Z" fill="#111925"/><path d="M35.69,33.74,33.21,32.3l-.01-5.06,2.43,1.42Z" fill="#b15b1b"/><path d="M35.69,33.99a.238.238,0,0,1-.12-.03l-2.48-1.44a.235.235,0,0,1-.12-.21l-.02-5.06a.245.245,0,0,1,.37-.22l2.44,1.42a.225.225,0,0,1,.12.21l.06,5.08a.275.275,0,0,1-.12.22.5.5,0,0,1-.13.03Zm-2.23-1.84,1.98,1.15-.05-4.5-1.94-1.13Z" fill="#111925"/><path d="M35.63,28.66,33.2,27.24l9.22-5.31,2.44,1.42Z" fill="#cf6b20"/><path d="M35.63,28.9a.238.238,0,0,1-.12-.03l-2.44-1.42a.235.235,0,0,1-.12-.21.257.257,0,0,1,.12-.21l9.23-5.31a.275.275,0,0,1,.25,0l2.44,1.42a.24.24,0,0,1,.12.22.244.244,0,0,1-.12.21l-9.23,5.31A.507.507,0,0,1,35.63,28.9Zm-1.94-1.66,1.94,1.13,8.73-5.02-1.94-1.13Z" fill="#111925"/><path d="M44.88,28.4l-.06,17.42a2.591,2.591,0,0,1-1.08,2.39L15.73,64.49a2.617,2.617,0,0,0,1.09-2.39l.06-17.42L35.7,33.74l-.06-5.08,9.23-5.31Z" fill="#ff8225"/><path d="M15.73,64.74a.225.225,0,0,1-.21-.12.247.247,0,0,1,.09-.34l.01-.01a2.4,2.4,0,0,0,.96-2.17l.06-17.42a.244.244,0,0,1,.12-.21L35.44,33.6l-.06-4.94a.275.275,0,0,1,.12-.22l9.23-5.31a.275.275,0,0,1,.25,0,.235.235,0,0,1,.12.21l.02,5.06-.06,17.42a2.817,2.817,0,0,1-1.21,2.6l-28,16.27a.01.01,0,0,0-.01.01.15.15,0,0,1-.11.04Zm1.39-19.92L17.06,62.1a3.759,3.759,0,0,1-.27,1.48L43.61,48a2.368,2.368,0,0,0,.96-2.18l.06-17.42-.01-4.63L35.89,28.8l.06,4.94a.275.275,0,0,1-.12.22Z" fill="#111925"/><path d="M11.91,32.95l-.07,26.28a2.739,2.739,0,0,0,1.24,2.15c.69.4,1.25.08,1.25-.71l.05-17.42,2.49,1.44L16.82,62.1c-.01,2.37-1.68,3.32-3.74,2.13a8.211,8.211,0,0,1-3.72-6.44l.07-26.28Z" fill="#cf6b20"/><path d="M14.75,65a3.588,3.588,0,0,1-1.8-.55,8.459,8.459,0,0,1-3.84-6.66l.07-26.28a.244.244,0,0,1,.12-.21.275.275,0,0,1,.25,0l2.49,1.44a.24.24,0,0,1,.12.22l-.07,26.28a2.492,2.492,0,0,0,1.12,1.93.659.659,0,0,0,.63.09.65.65,0,0,0,.24-.58l.05-17.42a.244.244,0,0,1,.12-.21.275.275,0,0,1,.25,0l2.49,1.44a.24.24,0,0,1,.12.22L17.06,62.1a2.841,2.841,0,0,1-1.22,2.61,2.114,2.114,0,0,1-1.09.29ZM9.67,31.94,9.6,57.79a7.944,7.944,0,0,0,3.59,6.23,2.384,2.384,0,0,0,2.4.26,2.372,2.372,0,0,0,.97-2.18l.05-17.28-1.99-1.15-.05,16.99a1,1,0,0,1-1.62.92,2.93,2.93,0,0,1-1.36-2.36l.07-26.14Z" fill="#111925"/><path d="M47.45,31.15l.05,22.14,4.56,2.64L52,33.8Z" fill="#ffe08a"/><path d="M52.06,56.18a.238.238,0,0,1-.12-.03L47.38,53.5a.235.235,0,0,1-.12-.21L47.2,31.15a.245.245,0,0,1,.37-.22l4.56,2.65a.235.235,0,0,1,.12.21l.06,22.13a.275.275,0,0,1-.12.22A.22.22,0,0,1,52.06,56.18Zm-4.31-3.04,4.06,2.36-.06-21.56-4.06-2.36Z" fill="#111925"/><path d="M52,33.8l.06,22.13,4.59-2.64-.06-22.14Z" fill="#f8d555"/><path d="M52.06,56.18a.238.238,0,0,1-.12-.03.235.235,0,0,1-.12-.21L51.75,33.8a.275.275,0,0,1,.12-.22l4.59-2.65a.275.275,0,0,1,.25,0,.235.235,0,0,1,.12.21l.06,22.13a.275.275,0,0,1-.12.22l-4.59,2.65a.175.175,0,0,1-.12.04Zm.19-22.24.06,21.56,4.09-2.36-.06-21.56Z" fill="#111925"/><path d="M47.45,31.15,52,33.8l4.59-2.65L52.03,28.5Z" fill="#fff"/><path d="M52,34.05a.238.238,0,0,1-.12-.03l-4.56-2.65a.235.235,0,0,1-.12-.21.244.244,0,0,1,.12-.21l4.59-2.65a.275.275,0,0,1,.25,0l4.56,2.65a.235.235,0,0,1,.12.21.244.244,0,0,1-.12.21l-4.59,2.65A.277.277,0,0,1,52,34.05Zm-4.06-2.9L52,33.51l4.09-2.36-4.06-2.36Z" fill="#111925"/><path d="M39.82,41.19l.05,16.5,4.56,2.65-.06-16.51Z" fill="#00cb98"/><path d="M44.43,60.59a.238.238,0,0,1-.12-.03l-4.56-2.65a.235.235,0,0,1-.12-.21l-.06-16.5a.245.245,0,0,1,.37-.22l4.56,2.65a.235.235,0,0,1,.12.21l.06,16.51a.275.275,0,0,1-.12.22A.688.688,0,0,1,44.43,60.59Zm-4.31-3.04,4.06,2.36-.06-15.93-4.06-2.36Z" fill="#111925"/><path d="M44.37,43.83l.06,16.51,4.58-2.65-.06-16.5Z" fill="#02a879"/><path d="M44.43,60.59a.238.238,0,0,1-.12-.03.235.235,0,0,1-.12-.21l-.06-16.51a.275.275,0,0,1,.12-.22l4.58-2.65a.275.275,0,0,1,.25,0,.235.235,0,0,1,.12.21l.06,16.51a.275.275,0,0,1-.12.22l-4.58,2.65a.345.345,0,0,1-.13.03Zm.19-16.61.06,15.93,4.09-2.36-.06-15.93Z" fill="#111925"/><path d="M39.82,41.19l4.55,2.64,4.58-2.64L44.4,38.54Z" fill="#fff"/><path d="M44.37,44.08a.238.238,0,0,1-.12-.03L39.69,41.4a.235.235,0,0,1-.12-.21.244.244,0,0,1,.12-.21l4.58-2.65a.275.275,0,0,1,.25,0l4.56,2.65a.235.235,0,0,1,.12.21.244.244,0,0,1-.12.21L44.5,44.05A.308.308,0,0,1,44.37,44.08Zm-4.06-2.89,4.06,2.36,4.09-2.36L44.4,38.83Z" fill="#111925"/><path d="M32.18,51.72l.06,10.38,4.55,2.65-.05-10.38Z" fill="#ff8288"/><path d="M36.79,65a.238.238,0,0,1-.12-.03l-4.56-2.65a.235.235,0,0,1-.12-.21l-.06-10.38a.245.245,0,0,1,.37-.22l4.56,2.65a.235.235,0,0,1,.12.21l.06,10.38a.275.275,0,0,1-.12.22A.5.5,0,0,1,36.79,65Zm-4.3-3.04,4.06,2.36-.05-9.8-4.06-2.36Z" fill="#111925"/><path d="M36.74,54.37l.05,10.38,4.59-2.65-.06-10.38Z" fill="#ef5e70"/><path d="M36.79,65a.238.238,0,0,1-.12-.03.235.235,0,0,1-.12-.21l-.06-10.38a.275.275,0,0,1,.12-.22l4.59-2.65a.275.275,0,0,1,.25,0,.235.235,0,0,1,.12.21l.06,10.38a.275.275,0,0,1-.12.22l-4.59,2.65A.5.5,0,0,1,36.79,65Zm.2-10.49.05,9.81,4.09-2.36-.05-9.81Z" fill="#111925"/><path d="M32.18,51.72l4.56,2.65,4.58-2.65-4.55-2.65Z" fill="#fff"/><path d="M36.74,54.62a.238.238,0,0,1-.12-.03l-4.56-2.65a.235.235,0,0,1-.12-.21.244.244,0,0,1,.12-.21l4.59-2.65a.275.275,0,0,1,.25,0l4.56,2.65a.235.235,0,0,1,.12.21.244.244,0,0,1-.12.21l-4.59,2.65A.79.79,0,0,1,36.74,54.62Zm-4.06-2.9,4.06,2.36,4.09-2.36-4.06-2.36Z" fill="#111925"/><path d="M28.91,15.91c3.16-1.83,5.74-.36,5.75,3.28a12.578,12.578,0,0,1-5.71,9.89c-3.16,1.83-5.74.36-5.75-3.28a12.609,12.609,0,0,1,5.71-9.89Z" fill="#f8d555"/><path d="M26.38,30.12a3.181,3.181,0,0,1-1.62-.42,4.254,4.254,0,0,1-1.81-3.9,12.879,12.879,0,0,1,5.84-10.11c1.62-.93,3.15-1.08,4.32-.4a4.254,4.254,0,0,1,1.81,3.9A12.894,12.894,0,0,1,29.08,29.3a5.466,5.466,0,0,1-2.7.82Zm5.1-14.75a4.962,4.962,0,0,0-2.44.75,12.337,12.337,0,0,0-5.59,9.68,3.775,3.775,0,0,0,1.56,3.47,3.815,3.815,0,0,0,3.82-.4,12.352,12.352,0,0,0,5.59-9.68,3.775,3.775,0,0,0-1.56-3.47,2.8,2.8,0,0,0-1.38-.35Z" fill="#111925"/><path d="M28.92,18.32c2.01-1.16,3.64-.23,3.65,2.08a7.981,7.981,0,0,1-3.63,6.28c-2.01,1.16-3.64.23-3.65-2.08a8.008,8.008,0,0,1,3.63-6.28Z" fill="#fff"/><path d="M27.31,27.43a2.061,2.061,0,0,1-1.07-.28,2.781,2.781,0,0,1-1.19-2.55,8.282,8.282,0,0,1,3.75-6.5,2.808,2.808,0,0,1,2.83-.26,2.76,2.76,0,0,1,1.19,2.55,8.3,8.3,0,0,1-3.75,6.5A3.564,3.564,0,0,1,27.31,27.43Zm1.73-8.9a7.714,7.714,0,0,0-3.5,6.07,2.313,2.313,0,0,0,.94,2.12,2.327,2.327,0,0,0,2.33-.26,7.712,7.712,0,0,0,3.5-6.06,2.3,2.3,0,0,0-.94-2.12,2.348,2.348,0,0,0-2.33.25Z" fill="#111925"/><path d="M28.59,24.61a.69.69,0,0,1-.32-.08.775.775,0,0,1-.35-.7.25.25,0,0,1,.5,0,.334.334,0,0,0,.1.28c.06.04.17.02.29-.05a1.415,1.415,0,0,0,.64-1.1.334.334,0,0,0-.1-.28c-.06-.04-.17-.02-.29.05a.713.713,0,0,1-1.14-.65,1.915,1.915,0,0,1,.89-1.53.714.714,0,0,1,1.14.66.25.25,0,1,1-.5,0,.334.334,0,0,0-.1-.28c-.06-.04-.17-.02-.29.05a1.431,1.431,0,0,0-.64,1.1.334.334,0,0,0,.1.28c.06.04.17.02.29-.05a.713.713,0,0,1,1.14.65,1.915,1.915,0,0,1-.89,1.53,1.21,1.21,0,0,1-.47.12Z" fill="#111925"/><path d="M28.93,20.99a.248.248,0,0,1-.25-.25v-.51a.25.25,0,1,1,.5,0v.51A.261.261,0,0,1,28.93,20.99Z" fill="#111925"/><path d="M28.93,25.02a.248.248,0,0,1-.25-.25v-.51a.25.25,0,1,1,.5,0v.51A.261.261,0,0,1,28.93,25.02Z" fill="#111925"/><path d="M18.11,20.29l4.92-2.84" fill="#fff"/><path d="M18.11,20.54a.225.225,0,0,1-.21-.12.247.247,0,0,1,.09-.34l4.91-2.84a.249.249,0,0,1,.25.43l-4.91,2.84a.277.277,0,0,1-.13.03Z" fill="#111925"/><path d="M21.06,21.06l.74-.42" fill="#fff"/><path d="M21.06,21.31a.225.225,0,0,1-.21-.12.247.247,0,0,1,.09-.34l.74-.43a.249.249,0,0,1,.25.43l-.74.43a.277.277,0,0,1-.13.03Z" fill="#111925"/><path d="M18.11,22.77l1.83-1.06" fill="#fff"/><path d="M18.11,23.02a.225.225,0,0,1-.21-.12.247.247,0,0,1,.09-.34l1.83-1.06a.249.249,0,0,1,.25.43l-1.83,1.06a.277.277,0,0,1-.13.03Z" fill="#111925"/></g></g></svg>