<svg xmlns="http://www.w3.org/2000/svg" width="63" height="63" viewBox="0 0 63 63"><g transform="translate(-926.117 -1679)"><rect width="63" height="63" rx="5" transform="translate(926.117 1679)" fill="#dcbafa"/><g transform="translate(853.672 1684.996)"><g transform="translate(89.103 3.367)"><path d="M187.9,19.74V50.577a.479.479,0,0,1-.277.418l-2.335,1.176L164.764,8.047l2.287-.936a1.477,1.477,0,0,1,1.3.088l18.458,10.651A2.184,2.184,0,0,1,187.9,19.74Z" transform="translate(-158.217 -7)" fill="#8c8c8c"/><path d="M181.507,30.941v30.79a.673.673,0,0,1-1.01.583L160.769,50.934a1.029,1.029,0,0,1-.515-.891V18.752a.6.6,0,0,1,.907-.524l19.5,11.251a1.689,1.689,0,0,1,.845,1.463Z" transform="translate(-154.117 -17.133)" fill="#bfbfbf"/><path d="M181.507,48.746v27L160.254,63.732v-27Z" transform="translate(-154.117 -34.034)" fill="#f5f5f5"/><path d="M160.146,244.553l-.16,3.268a.222.222,0,0,1-.371.154l-2.41-2.188Z" transform="translate(-151.344 -222.957)" fill="#ffd9b3"/><path d="M96.415,87.715a4.322,4.322,0,0,1-3.019,1.25l-.013-.032-.5-1.764,2.632-1.09.891,1.6.013.032Z" transform="translate(-92.867 -78.89)" fill="#ffd9b3"/><path d="M192.2,112.219h0a7.044,7.044,0,0,0-.18-1.008,1.4,1.4,0,0,0,.446-.7l-.768-1.7a1.1,1.1,0,0,0-.783-.038A6.236,6.236,0,0,0,190.3,108a3.534,3.534,0,0,0-.165-1.129l-1.268-.8a1.5,1.5,0,0,0-.39.782h0a2.275,2.275,0,0,0-.7-.07,3.354,3.354,0,0,0-.679-.893l-1.025.567a3.531,3.531,0,0,0,.232,1.144,2.858,2.858,0,0,0-.367.663,1.266,1.266,0,0,0-.795-.133l-.182,1.6a2.97,2.97,0,0,0,.718.836h0a7.02,7.02,0,0,0,.18,1.008,1.4,1.4,0,0,0-.446.7l.768,1.7a1.1,1.1,0,0,0,.783.038,6.244,6.244,0,0,0,.621.763,3.535,3.535,0,0,0,.165,1.129l1.268.8a1.5,1.5,0,0,0,.39-.782h0a2.276,2.276,0,0,0,.7.07,3.354,3.354,0,0,0,.679.893l1.025-.567a3.53,3.53,0,0,0-.232-1.144,2.862,2.862,0,0,0,.367-.663,1.265,1.265,0,0,0,.795.133l.182-1.6A2.971,2.971,0,0,0,192.2,112.219Zm-1.391.361c-.148,1.309-1.106,1.839-2.14,1.184a4.016,4.016,0,0,1-1.6-3.555c.148-1.309,1.106-1.839,2.14-1.184a4.016,4.016,0,0,1,1.6,3.555Z" transform="translate(-176.577 -96.898)" fill="#6cf"/><g transform="translate(0 7.039)"><path d="M94.253,85.555c-.727.3-1.4.352-1.495.114s.411-.675,1.138-.977,1.4-.352,1.495-.114-.411.675-1.138.977Z" transform="translate(-92.746 -84.428)" fill="#ff5959"/><path d="M105.529,117.849c-.834.345-1.6.4-1.714.131l-5.243-12.657a4.322,4.322,0,0,0,3.019-1.25l5.243,12.657c.113.273-.471.775-1.3,1.12Z" transform="translate(-98.042 -102.286)" fill="#ff5959"/><path d="M205.357,282.526V286.1l-2.338-1.351v-3.576Z" transform="translate(-192.994 -263.289)" fill="#ff5959"/></g><path d="M243.938,275.1v6.277l-2.338-1.351v-6.277Z" transform="translate(-228.068 -249.498)" fill="#ffdf40"/><path d="M282.519,267.671v8.978l-2.338-1.35v-8.978l2.338,1.351Z" transform="translate(-263.141 -242.746)" fill="#52cc7b"/><path d="M322.321,249.423V262.15l-2.338-1.351V248.072Z" transform="translate(-299.325 -226.156)" fill="#6cf"/></g><path d="M102.877,39.312a.364.364,0,0,1,.5-.138l2.964,1.675a.364.364,0,1,1-.358.633l-2.964-1.675a.364.364,0,0,1-.138-.5ZM119.15,16.106V46.939s0,.012,0,.015a.844.844,0,0,1-.481.735l-2.33,1.174a1.027,1.027,0,0,1-1.037,0L95.574,37.482a1.4,1.4,0,0,1-.7-1.206V26.609l-.136-.123a.559.559,0,0,1-.2-.248s-5.266-12.715-5.27-12.728l-.5-1.753c-.068-.194-.051-.491.369-.851a4.133,4.133,0,0,1,2.071-.858c.551-.042.774.156.863.341l.885,1.594c.007.012,1.92,4.63,1.92,4.63V4.985a.958.958,0,0,1,.484-.838C95.411,4.118,97.8,3.14,97.8,3.14a1.853,1.853,0,0,1,1.618.109L117.876,13.9a2.554,2.554,0,0,1,1.274,2.206Zm-29.5-4.682a3.522,3.522,0,0,0,1.564-.648,3.521,3.521,0,0,0-1.564.648Zm.243,1.618a3.476,3.476,0,0,0,2.293-.95l-.448-.807-.012.011a3.736,3.736,0,0,1-.976.572,3.681,3.681,0,0,1-1.111.285Zm6.558,12.59a2.647,2.647,0,0,0,1.082-.708L92.5,12.781a4.2,4.2,0,0,1-2.347.973L95.186,25.9A2.648,2.648,0,0,0,96.452,25.632Zm.278.672a4.842,4.842,0,0,1-.819.26L97.4,27.913l.1-2a4.9,4.9,0,0,1-.765.4Zm19.4,18.982L95.6,33.688v2.588a.667.667,0,0,0,.333.576l19.728,11.381a.31.31,0,0,0,.465-.268V45.287Zm0-27L95.6,6.693V18.368l2.626,6.341a.555.555,0,0,1,.036.3l-.159,3.235a.581.581,0,0,1-.361.512.591.591,0,0,1-.226.045.582.582,0,0,1-.392-.153L95.6,27.269v5.584l20.526,11.6V18.291Zm0-1.117a1.329,1.329,0,0,0-.663-1.148l-19.5-11.25a.241.241,0,0,0-.361.209v.873l20.526,11.6v-.281Zm2.293-1.068a1.825,1.825,0,0,0-.91-1.576L99.054,3.879a1.121,1.121,0,0,0-.979-.066l-1.36.557L115.831,15.4a2.058,2.058,0,0,1,1.027,1.778V47.787l1.489-.75a.122.122,0,0,0,.077-.1V16.106ZM99.234,17a1.978,1.978,0,0,1,1-1.644,1.723,1.723,0,0,1,1.7.194,4.354,4.354,0,0,1,1.77,3.9,1.978,1.978,0,0,1-1,1.644,1.466,1.466,0,0,1-.638.144A1.991,1.991,0,0,1,101,20.9,4.354,4.354,0,0,1,99.234,17Zm2.159,3.288a1.03,1.03,0,0,0,.994.153,1.285,1.285,0,0,0,.591-1.07,3.679,3.679,0,0,0-1.436-3.206,1.277,1.277,0,0,0-.67-.224.742.742,0,0,0-.323.071,1.285,1.285,0,0,0-.591,1.07,3.679,3.679,0,0,0,1.436,3.206Zm-4.22-3.538a.363.363,0,0,1-.048-.225l.182-1.6a.364.364,0,0,1,.287-.315,1.442,1.442,0,0,1,.679.031q.071-.137.153-.262a3.718,3.718,0,0,1-.191-1.08.364.364,0,0,1,.187-.325l1.025-.567a.363.363,0,0,1,.419.048,3.477,3.477,0,0,1,.644.8q.116,0,.233.018a1.626,1.626,0,0,1,.4-.626.364.364,0,0,1,.446-.045l1.268.8a.364.364,0,0,1,.152.2,3.856,3.856,0,0,1,.181,1.1c.143.156.281.324.413.5a1.5,1.5,0,0,1,.765.108.364.364,0,0,1,.194.187l.768,1.7a.364.364,0,0,1,.018.251,1.813,1.813,0,0,1-.393.72c.053.236.094.472.123.706a3.337,3.337,0,0,1,.686.838.363.363,0,0,1,.048.225l-.182,1.6a.364.364,0,0,1-.287.315,1.442,1.442,0,0,1-.679-.031q-.071.137-.153.262a3.723,3.723,0,0,1,.191,1.08.364.364,0,0,1-.187.325l-1.025.567a.364.364,0,0,1-.419-.048,3.476,3.476,0,0,1-.644-.8q-.116,0-.233-.018a1.626,1.626,0,0,1-.4.626.364.364,0,0,1-.446.045l-1.268-.8a.363.363,0,0,1-.152-.2,3.852,3.852,0,0,1-.181-1.095c-.143-.156-.281-.324-.413-.5a1.5,1.5,0,0,1-.765-.108.364.364,0,0,1-.194-.187l-.768-1.7a.364.364,0,0,1-.018-.251,1.812,1.812,0,0,1,.393-.72c-.053-.236-.094-.472-.123-.706a3.339,3.339,0,0,1-.686-.838Zm.689-.267a2.564,2.564,0,0,0,.567.633.364.364,0,0,1,.137.25,6.673,6.673,0,0,0,.17.955.364.364,0,0,1-.119.368,1,1,0,0,0-.289.407l.644,1.428a.7.7,0,0,0,.4-.013.363.363,0,0,1,.413.138,5.88,5.88,0,0,0,.585.719.364.364,0,0,1,.1.257,3.17,3.17,0,0,0,.111.89l.867.549a1.583,1.583,0,0,0,.125-.371.364.364,0,0,1,.444-.275,1.921,1.921,0,0,0,.587.06h.022a.364.364,0,0,1,.319.189,3.335,3.335,0,0,0,.424.617l.584-.323a3.358,3.358,0,0,0-.2-.812.364.364,0,0,1,.051-.344,2.5,2.5,0,0,0,.32-.579.364.364,0,0,1,.492-.195,1.293,1.293,0,0,0,.315.106l.132-1.165a2.563,2.563,0,0,0-.568-.634.385.385,0,0,1-.031-.028.364.364,0,0,1-.1-.22,6.711,6.711,0,0,0-.171-.956.364.364,0,0,1,.119-.368,1,1,0,0,0,.289-.407l-.644-1.428a.7.7,0,0,0-.4.013.364.364,0,0,1-.413-.138,5.886,5.886,0,0,0-.585-.719.364.364,0,0,1-.1-.257,3.17,3.17,0,0,0-.111-.89l-.867-.549a1.579,1.579,0,0,0-.125.371.364.364,0,0,1-.444.275,1.921,1.921,0,0,0-.587-.06.363.363,0,0,1-.341-.188,3.337,3.337,0,0,0-.424-.617l-.584.323a3.358,3.358,0,0,0,.2.812.364.364,0,0,1-.051.344,2.5,2.5,0,0,0-.32.579.364.364,0,0,1-.492.195,1.294,1.294,0,0,0-.315-.106l-.132,1.165ZM109.4,38.009V25.282a.364.364,0,0,1,.545-.315l2.338,1.351a.364.364,0,0,1,.182.315V39.36a.364.364,0,0,1-.545.315l-2.338-1.351a.364.364,0,0,1-.182-.315Zm.727-.21,1.611.93V26.843l-1.611-.93ZM105.78,26.941a.364.364,0,0,1,.545-.315l2.338,1.351a.364.364,0,0,1,.182.315V37.27a.364.364,0,0,1-.545.315l-2.338-1.351a.364.364,0,0,1-.182-.315Zm.727,8.768,1.611.93V28.5l-1.611-.93Zm-4.677-6.067v3.576a.364.364,0,0,1-.545.315l-2.338-1.35a.364.364,0,0,1-.182-.315V28.292a.364.364,0,0,1,.545-.315l2.338,1.35A.364.364,0,0,1,101.831,29.642Zm-.727.21-1.611-.93v2.736l1.611.93Zm4.235-.885v6.277a.364.364,0,0,1-.545.315l-2.338-1.35a.364.364,0,0,1-.182-.315V27.616a.364.364,0,0,1,.545-.315l2.338,1.35A.364.364,0,0,1,105.338,28.967Zm-.727.21L103,28.246v5.437l1.611.93Z" transform="translate(0 0)"/></g></g></svg>