<svg xmlns="http://www.w3.org/2000/svg" width="63" height="63" viewBox="0 0 63 63"><g transform="translate(-307.117 -1679)"><rect width="63" height="63" rx="5" transform="translate(307.117 1679)" fill="#dcbafa"/><g transform="translate(309.694 1684.7)"><g transform="translate(13.329 9.997)"><g transform="translate(21.148 0.19)"><path d="M51.3,15.876a.345.345,0,0,0-.354.038l-3.927,2.272a1.1,1.1,0,0,0-.5.858l.06,20.727a.338.338,0,0,0,.143.316L42.353,37.55a.344.344,0,0,1-.143-.324l-.06-20.719a1.1,1.1,0,0,1,.5-.858l3.935-2.272a.328.328,0,0,1,.346-.03Z" transform="translate(-42.15 -13.311)" fill="#ec5f0f"/><g transform="translate(4.371 2.535)"><path d="M52.391,16.748c.271-.158.5-.03.5.286l.06,20.727a1.083,1.083,0,0,1-.5.858L48.517,40.89c-.271.158-.5.03-.5-.286l-.06-20.727a1.083,1.083,0,0,1,.5-.858Z" transform="translate(-47.96 -16.68)" fill="#f28f57"/></g><g transform="translate(4.424 2.527)"><path d="M52.958,37.758a1.1,1.1,0,0,1-.5.85L48.534,40.88c-.271.158-.5.03-.5-.286l-.008-1.4,2.7-1.557a1.075,1.075,0,0,0,.489-.858l-.053-19.327,1.226-.715c.271-.158.5-.03.5.286Z" transform="translate(-48.03 -16.67)" fill="#e88554"/></g></g><g transform="translate(20.96)"><path d="M46.662,40.2a.2.2,0,0,1-.09-.023L42.2,37.645a.545.545,0,0,1-.233-.489L41.9,16.437a1.254,1.254,0,0,1,.594-1.016l3.935-2.272a.525.525,0,0,1,.542-.03l4.363,2.528a.187.187,0,0,1-.188.323c-.023-.015-.083-.015-.166.038l-3.935,2.272a.9.9,0,0,0-.4.692l.06,20.727c0,.1.03.143.045.15a.186.186,0,0,1,.068.256.163.163,0,0,1-.158.1Zm.075-26.775a.26.26,0,0,0-.128.038l-3.935,2.272a.888.888,0,0,0-.4.692l.06,20.719c0,.045.008.135.06.166L46.331,39.6l-.06-20.636a1.276,1.276,0,0,1,.587-1.016l3.859-2.227-3.942-2.287a.326.326,0,0,0-.038-.008Z" transform="translate(-41.9 -13.058)" fill="#1c1d23"/><g transform="translate(4.363 2.534)"><path d="M48.227,41.075a.46.46,0,0,1-.226-.06.538.538,0,0,1-.241-.481L47.7,19.807a1.276,1.276,0,0,1,.587-1.016l3.935-2.272a.544.544,0,0,1,.542-.038.538.538,0,0,1,.241.481l.06,20.727a1.276,1.276,0,0,1-.587,1.016l-3.935,2.272a.575.575,0,0,1-.316.1Zm4.19-24.232-3.935,2.272a.909.909,0,0,0-.4.692l.06,20.727a.207.207,0,0,0,.053.158c.023.015.083.015.166-.038L52.3,38.382a.909.909,0,0,0,.4-.692l-.06-20.727a.207.207,0,0,0-.053-.158.237.237,0,0,0-.166.038Z" transform="translate(-47.7 -16.426)" fill="#1c1d23"/></g></g><g transform="translate(0.188 8.331)"><g transform="translate(13.978 0.191)"><path d="M42.018,26.969a.341.341,0,0,0-.354.03l-3.927,2.272a1.1,1.1,0,0,0-.5.85l.053,16.423a.338.338,0,0,0,.143.316l-4.371-2.543A.338.338,0,0,1,32.923,44L32.87,27.586a1.1,1.1,0,0,1,.5-.858L37.3,24.457a.332.332,0,0,1,.346-.038Z" transform="translate(-32.87 -24.386)" fill="#ffbd2a"/><g transform="translate(4.363 2.554)"><path d="M43.1,27.848c.271-.158.5-.03.5.286l.045,16.416a1.083,1.083,0,0,1-.5.858l-3.935,2.272c-.271.158-.5.03-.5-.286L38.67,30.977a1.083,1.083,0,0,1,.5-.858Z" transform="translate(-38.67 -27.78)" fill="#ffd16a"/></g><g transform="translate(4.409 2.561)"><path d="M43.658,44.544a1.1,1.1,0,0,1-.489.858l-3.935,2.272c-.271.158-.5.03-.5-.278l-.008-1.362,3.145-1.813a1.1,1.1,0,0,0,.5-.85l-.045-15.054.79-.459c.278-.158.5-.03.5.286Z" transform="translate(-38.73 -27.79)" fill="#ffbd2a"/></g></g><g transform="translate(13.79)"><path d="M37.367,46.986a.2.2,0,0,1-.09-.023h-.008l-4.363-2.543a.524.524,0,0,1-.233-.481L32.62,27.523a1.3,1.3,0,0,1,.594-1.023l3.935-2.272a.513.513,0,0,1,.534-.038l4.348,2.528c.008.008.015.008.03.015a.19.19,0,0,1,.06.256.192.192,0,0,1-.256.068l-.015-.008c-.023-.015-.083-.008-.158.038l-3.927,2.272a.887.887,0,0,0-.4.685l.053,16.423a.194.194,0,0,0,.045.15.186.186,0,0,1,.068.256.179.179,0,0,1-.166.113Zm.09-22.464a.289.289,0,0,0-.128.045l-3.935,2.272a.888.888,0,0,0-.4.692l.053,16.416c0,.1.03.143.045.15l3.95,2.295-.053-16.325a1.254,1.254,0,0,1,.594-1.016l3.852-2.227L37.5,24.529c-.015,0-.023-.008-.038-.008Z" transform="translate(-32.62 -24.132)" fill="#1c1d23"/><g transform="translate(4.363 2.554)"><path d="M38.932,47.864a.46.46,0,0,1-.226-.06.538.538,0,0,1-.241-.481L38.42,30.907a1.276,1.276,0,0,1,.587-1.016l3.935-2.272a.544.544,0,0,1,.542-.038.538.538,0,0,1,.241.481l.045,16.416a1.276,1.276,0,0,1-.587,1.016l-3.935,2.272A.575.575,0,0,1,38.932,47.864Zm4.205-19.922L39.2,30.215a.909.909,0,0,0-.4.692l.045,16.416a.207.207,0,0,0,.053.158c.023.015.083.015.166-.038L43,45.171a.909.909,0,0,0,.4-.692l-.045-16.416a.207.207,0,0,0-.053-.158A.227.227,0,0,0,43.137,27.943Z" transform="translate(-38.42 -27.526)" fill="#1c1d23"/></g></g><g transform="translate(6.989 7.537)"><path d="M32.728,36.716a.345.345,0,0,0-.354.038l-3.927,2.272a1.094,1.094,0,0,0-.5.858l.038,13.128a.338.338,0,0,0,.143.316l-4.371-2.543a.338.338,0,0,1-.143-.316L23.58,37.348a1.1,1.1,0,0,1,.5-.858L28,34.218a.341.341,0,0,1,.354-.03Z" transform="translate(-23.58 -34.151)" fill="#a8aab0"/><g transform="translate(4.363 2.535)"><path d="M33.811,37.588c.271-.158.5-.03.5.286L34.345,51a1.083,1.083,0,0,1-.5.858l-3.935,2.272c-.271.158-.5.03-.5-.286L29.38,40.717a1.083,1.083,0,0,1,.5-.858Z" transform="translate(-29.38 -37.52)" fill="#c2c4c8"/></g><g transform="translate(4.409 2.527)"><path d="M34.36,50.992a1.107,1.107,0,0,1-.489.858l-3.935,2.272c-.271.158-.5.03-.5-.278V52.767l3.115-1.8a1.107,1.107,0,0,0,.489-.858l-.038-12.06.82-.474c.271-.158.5-.03.5.286Z" transform="translate(-29.44 -37.51)" fill="#babcbf"/></g></g><g transform="translate(6.801 7.355)"><path d="M28.07,53.455a.232.232,0,0,1-.1-.023L23.6,50.889a.524.524,0,0,1-.233-.481L23.33,37.287a1.273,1.273,0,0,1,.594-1.016L27.851,34a.523.523,0,0,1,.549-.03L32.764,36.5a.186.186,0,0,1,.068.256.193.193,0,0,1-.256.075c-.038-.023-.1-.008-.166.03l-3.935,2.272a.9.9,0,0,0-.4.692l.038,13.128c0,.045.008.128.053.158a.19.19,0,0,1,.06.256A.2.2,0,0,1,28.07,53.455Zm.1-19.177a.253.253,0,0,0-.135.045L24.112,36.6a.888.888,0,0,0-.4.692l.038,13.121c0,.1.03.143.045.15l3.95,2.295-.038-13.038A1.265,1.265,0,0,1,28.3,38.8l3.859-2.227-3.942-2.287a.1.1,0,0,0-.045-.008Z" transform="translate(-23.33 -33.908)" fill="#1c1d23"/><g transform="translate(4.363 2.527)"><path d="M29.634,54.317a.46.46,0,0,1-.226-.06.538.538,0,0,1-.241-.481L29.13,40.647a1.276,1.276,0,0,1,.587-1.016l3.935-2.272a.544.544,0,0,1,.542-.038.538.538,0,0,1,.241.481l.038,13.128a1.276,1.276,0,0,1-.587,1.016L29.95,54.219a.575.575,0,0,1-.316.1Zm4.341-16.672a.217.217,0,0,0-.128.045l-3.935,2.272a.909.909,0,0,0-.4.692l.038,13.128a.207.207,0,0,0,.053.158c.023.015.083.015.166-.038L33.7,51.631a.909.909,0,0,0,.4-.692l-.038-13.128a.207.207,0,0,0-.053-.158c-.015,0-.023-.008-.038-.008Z" transform="translate(-29.13 -37.266)" fill="#1c1d23"/></g></g><g transform="translate(0 16.051)"><path d="M23.438,48.035a.345.345,0,0,0-.354.038L19.15,50.344a1.086,1.086,0,0,0-.489.858l.023,8.652a.338.338,0,0,0,.143.316l-4.371-2.543a.338.338,0,0,1-.143-.316l-.023-8.644a1.1,1.1,0,0,1,.489-.858l3.942-2.272a.313.313,0,0,1,.346-.03Z" transform="translate(-14.29 -45.468)" fill="#3db285"/><g transform="translate(4.371 2.537)"><path d="M24.531,48.908c.271-.158.5-.03.5.286l.023,8.652a1.083,1.083,0,0,1-.5.858l-3.935,2.272c-.271.158-.5.03-.5-.286L20.1,52.037a1.083,1.083,0,0,1,.5-.858Z" transform="translate(-20.1 -48.84)" fill="#78c9aa"/></g><g transform="translate(4.394 2.545)"><path d="M25.058,57.848a1.073,1.073,0,0,1-.489.85L20.634,60.97c-.271.158-.5.03-.5-.278L20.13,59.3l3.1-1.783a1.115,1.115,0,0,0,.5-.858l-.015-7.267.828-.474c.271-.158.5-.03.5.278Z" transform="translate(-20.13 -48.85)" fill="#3db285"/></g></g></g><g transform="translate(0 24.202)"><path d="M18.765,60.3a.232.232,0,0,1-.1-.023L14.3,57.733a.524.524,0,0,1-.233-.481l-.023-8.644a1.254,1.254,0,0,1,.587-1.016l3.942-2.272a.525.525,0,0,1,.542-.03l4.363,2.528a.187.187,0,0,1-.188.324c-.023-.015-.083-.008-.166.038l-3.935,2.272a.913.913,0,0,0-.4.692L18.81,59.8c0,.045.008.128.053.158a.19.19,0,0,1,.06.256.2.2,0,0,1-.158.083Zm.113-14.7a.351.351,0,0,0-.12.038l-3.942,2.272a.909.909,0,0,0-.4.692l.023,8.644c0,.1.03.143.045.15l3.942,2.295L18.4,51.128a1.271,1.271,0,0,1,.579-1.016l3.867-2.227L18.908,45.6h-.03Z" transform="translate(-14.04 -45.228)" fill="#1c1d23"/><g transform="translate(4.371 2.527)"><path d="M20.339,61.16a.46.46,0,0,1-.226-.06.538.538,0,0,1-.241-.481l-.023-8.652a1.276,1.276,0,0,1,.587-1.016l3.935-2.272a.544.544,0,0,1,.542-.038.538.538,0,0,1,.241.481l.023,8.652a1.276,1.276,0,0,1-.587,1.016l-3.935,2.272a.613.613,0,0,1-.316.1ZM24.56,49.01l-3.935,2.272a.909.909,0,0,0-.4.692l.023,8.652a.207.207,0,0,0,.053.158c.023.015.083.015.166-.038L24.4,58.475a.909.909,0,0,0,.4-.692l-.023-8.652a.207.207,0,0,0-.053-.158c-.023-.015-.083-.015-.166.038Z" transform="translate(-19.85 -48.586)" fill="#1c1d23"/></g></g><g transform="translate(21.152 2.639)"><path d="M46.726,19.45a.2.2,0,0,1-.09-.023l-4.386-2.513a.187.187,0,0,1,.188-.323L46.823,19.1a.186.186,0,0,1,.068.256A.189.189,0,0,1,46.726,19.45Z" transform="translate(-42.156 -16.566)" fill="#1c1d23"/></g><g transform="translate(14.097 11.089)"><path d="M37.421,30.583a.2.2,0,0,1-.09-.023l-4.454-2.407a.189.189,0,0,1,.181-.331l4.454,2.407a.188.188,0,0,1-.09.354Z" transform="translate(-32.778 -27.798)" fill="#1c1d23"/></g><g transform="translate(7.136 18.385)"><path d="M28.065,40.44a.232.232,0,0,1-.1-.023l-4.348-2.573a.187.187,0,0,1,.188-.324l4.348,2.573a.185.185,0,0,1-.09.346Z" transform="translate(-23.526 -37.496)" fill="#1c1d23"/></g><g transform="translate(0.155 26.879)"><path d="M18.778,51.761a.165.165,0,0,1-.1-.03l-4.341-2.6a.187.187,0,0,1,.188-.324l4.341,2.6a.186.186,0,0,1,.068.256.178.178,0,0,1-.158.1Z" transform="translate(-14.246 -48.786)" fill="#1c1d23"/></g></g><g transform="translate(11.17 0.698)"><g transform="translate(2.091 2.62)"><g transform="translate(14.52)"><path d="M40.092,4.94c.083.782.6,1.166,1.286.986l-6.312,10.42c-.083-.782-.6-1.159-1.286-.97Z" transform="translate(-33.381 -4.368)" fill="#e4e3ff"/><path d="M34.815,16.729l-.06-.549a.968.968,0,0,0-.369-.73.808.808,0,0,0-.685-.075l-.451.12L40.1,4.18l.06.557a.98.98,0,0,0,.361.737.808.808,0,0,0,.685.075l.451-.12Zm-.8-1.775a1.068,1.068,0,0,1,1,.715l5.876-9.7a1.067,1.067,0,0,1-.587-.188,1.166,1.166,0,0,1-.414-.542Z" transform="translate(-33.25 -4.18)" fill="#1c1d23"/></g><g transform="translate(8.734 9.081)"><path d="M25.98,19.14a4.023,4.023,0,0,0,1.3-2.46l3.528,2.249a3.919,3.919,0,0,0-1.159,2.55Z" transform="translate(-25.664 -16.357)" fill="#e4e3ff"/><path d="M29.728,21.712,25.56,19.056l.188-.166a3.774,3.774,0,0,0,1.234-2.332l.03-.308L31,18.793l-.166.166a3.73,3.73,0,0,0-1.106,2.415ZM26.177,19l3.2,2.039A4.134,4.134,0,0,1,30.4,18.861L27.32,16.889A4.271,4.271,0,0,1,26.177,19Z" transform="translate(-25.56 -16.25)" fill="#1c1d23"/></g><g transform="translate(0 10.51)"><path d="M20.95,19.05c.008.858.481,1.309,1.144,1.211L15.872,30.749a.967.967,0,0,0-1.362-.843Z" transform="translate(-14.089 -18.373)" fill="#e4e3ff"/><path d="M15.635,31.067l-.083-.512a.93.93,0,0,0-.384-.662.855.855,0,0,0-.737-.03l-.481.158L20.992,18.15l.008.677a1.141,1.141,0,0,0,.323.88.733.733,0,0,0,.609.15l.391-.06Zm-.843-1.648a1.11,1.11,0,0,1,.564.15,1.09,1.09,0,0,1,.429.489l5.831-9.833a1.041,1.041,0,0,1-.549-.241,1.258,1.258,0,0,1-.376-.609L14.74,29.412a.147.147,0,0,0,.053.008Z" transform="translate(-13.95 -18.15)" fill="#1c1d23"/></g></g><g transform="translate(22.457)"><g transform="translate(0.188 0.19)"><path d="M43.226,1.221a2.4,2.4,0,0,1,.406-.188,1.092,1.092,0,0,1,1.535.948,1.875,1.875,0,0,1,.03.369,4.347,4.347,0,0,1-1.956,3.393c-1.083.624-1.971.12-1.971-1.121a4.305,4.305,0,0,1,1.956-3.4Z" transform="translate(-41.27 -0.95)" fill="#a9abf2"/></g><g transform="translate(0.346 0.197)"><path d="M45.249,2.352a4.315,4.315,0,0,1-1.956,3.393c-.813.474-1.5.308-1.813-.323a1.886,1.886,0,0,0,.858-.271,4.3,4.3,0,0,0,1.956-3.393,2.854,2.854,0,0,0-.023-.369A1.433,1.433,0,0,0,44.143.96a1.07,1.07,0,0,1,1.083,1.023A2.77,2.77,0,0,1,45.249,2.352Z" transform="translate(-41.48 -0.959)" fill="#8487ec"/></g><path d="M42.3,6.131a1.207,1.207,0,0,1-.609-.158,1.546,1.546,0,0,1-.67-1.422A4.538,4.538,0,0,1,43.074.993a3.279,3.279,0,0,1,.444-.2,1.363,1.363,0,0,1,1.159.075,1.373,1.373,0,0,1,.617,1.016,2.314,2.314,0,0,1,.03.4A4.536,4.536,0,0,1,43.269,5.83,1.907,1.907,0,0,1,42.3,6.131Zm.963-4.807A4.11,4.11,0,0,0,41.4,4.559a1.2,1.2,0,0,0,.481,1.1,1.231,1.231,0,0,0,1.211-.135,4.117,4.117,0,0,0,1.866-3.227,1.62,1.62,0,0,0-.03-.339,1.052,1.052,0,0,0-.444-.76.982.982,0,0,0-.843-.038,1.475,1.475,0,0,0-.376.166Z" transform="translate(-41.02 -0.698)" fill="#1c1d23"/></g><g transform="translate(14.407 13.113)"><g transform="translate(0.196 0.19)"><path d="M32.536,18.651a2.4,2.4,0,0,1,.406-.188,1.092,1.092,0,0,1,1.535.948,1.876,1.876,0,0,1,.03.369,4.347,4.347,0,0,1-1.956,3.393c-1.083.624-1.971.12-1.971-1.121a4.286,4.286,0,0,1,1.956-3.4Z" transform="translate(-30.58 -18.38)" fill="#a9abf2"/></g><g transform="translate(0.346 0.197)"><path d="M34.549,19.782a4.315,4.315,0,0,1-1.956,3.393c-.813.474-1.5.308-1.813-.323a1.886,1.886,0,0,0,.858-.271,4.3,4.3,0,0,0,1.956-3.393,2.853,2.853,0,0,0-.023-.369,1.433,1.433,0,0,0-.128-.429,1.07,1.07,0,0,1,1.083,1.023A2.77,2.77,0,0,1,34.549,19.782Z" transform="translate(-30.78 -18.389)" fill="#8487ec"/></g><path d="M31.6,23.561a1.207,1.207,0,0,1-.609-.158,1.546,1.546,0,0,1-.67-1.422,4.538,4.538,0,0,1,2.054-3.558,2.907,2.907,0,0,1,.444-.2,1.272,1.272,0,0,1,1.775,1.091,2.314,2.314,0,0,1,.03.4,4.536,4.536,0,0,1-2.054,3.551,1.886,1.886,0,0,1-.97.3Zm1.753-5.056a1.207,1.207,0,0,0-.414.075,1.844,1.844,0,0,0-.376.173A4.11,4.11,0,0,0,30.7,21.989a1.2,1.2,0,0,0,.481,1.1,1.231,1.231,0,0,0,1.211-.135,4.117,4.117,0,0,0,1.866-3.227,1.62,1.62,0,0,0-.03-.339,1.037,1.037,0,0,0-.444-.76A.753.753,0,0,0,33.352,18.506Z" transform="translate(-30.32 -18.128)" fill="#1c1d23"/></g><g transform="translate(8.546 10.059)"><g transform="translate(0.196 0.19)"><path d="M24.746,14.591a2.4,2.4,0,0,1,.406-.188,1.092,1.092,0,0,1,1.535.948,1.875,1.875,0,0,1,.03.369,4.347,4.347,0,0,1-1.956,3.393c-1.083.632-1.971.12-1.971-1.121a4.305,4.305,0,0,1,1.956-3.4Z" transform="translate(-22.79 -14.32)" fill="#a9abf2"/></g><g transform="translate(0.354 0.197)"><path d="M26.769,15.722a4.315,4.315,0,0,1-1.956,3.393c-.813.474-1.5.308-1.813-.323a1.886,1.886,0,0,0,.858-.271,4.3,4.3,0,0,0,1.956-3.393,2.853,2.853,0,0,0-.023-.369,1.432,1.432,0,0,0-.128-.429,1.07,1.07,0,0,1,1.083,1.023C26.754,15.466,26.769,15.586,26.769,15.722Z" transform="translate(-23 -14.329)" fill="#8487ec"/></g><path d="M23.809,19.5a1.207,1.207,0,0,1-.609-.158,1.546,1.546,0,0,1-.67-1.422,4.538,4.538,0,0,1,2.054-3.558,3.279,3.279,0,0,1,.444-.2A1.272,1.272,0,0,1,26.8,15.251a2.314,2.314,0,0,1,.03.4A4.536,4.536,0,0,1,24.779,19.2,1.866,1.866,0,0,1,23.809,19.5Zm1.753-5.056a1.239,1.239,0,0,0-.414.075,1.844,1.844,0,0,0-.376.173,4.11,4.11,0,0,0-1.866,3.235,1.2,1.2,0,0,0,.481,1.1,1.231,1.231,0,0,0,1.211-.135,4.117,4.117,0,0,0,1.866-3.227,1.62,1.62,0,0,0-.03-.339,1.052,1.052,0,0,0-.444-.76.752.752,0,0,0-.429-.12Z" transform="translate(-22.53 -14.068)" fill="#1c1d23"/></g><g transform="translate(0 24.12)"><g transform="translate(0.188 0.19)"><path d="M13.376,33.281a2.4,2.4,0,0,1,.406-.188,1.092,1.092,0,0,1,1.535.948,1.875,1.875,0,0,1,.03.369A4.347,4.347,0,0,1,13.391,37.8c-1.083.632-1.971.12-1.971-1.121A4.305,4.305,0,0,1,13.376,33.281Z" transform="translate(-11.42 -33.01)" fill="#a9abf2"/></g><g transform="translate(0.346 0.197)"><path d="M15.4,34.412A4.315,4.315,0,0,1,13.443,37.8c-.813.474-1.5.308-1.813-.324a1.886,1.886,0,0,0,.858-.271,4.3,4.3,0,0,0,1.956-3.393,2.854,2.854,0,0,0-.023-.369,1.433,1.433,0,0,0-.128-.429,1.07,1.07,0,0,1,1.083,1.023,2.771,2.771,0,0,1,.023.369Z" transform="translate(-11.63 -33.019)" fill="#8487ec"/></g><path d="M12.449,38.191a1.207,1.207,0,0,1-.609-.158,1.546,1.546,0,0,1-.67-1.422,4.538,4.538,0,0,1,2.054-3.558,2.559,2.559,0,0,1,.444-.2,1.272,1.272,0,0,1,1.775,1.091,2.314,2.314,0,0,1,.03.4,4.536,4.536,0,0,1-2.054,3.551A1.907,1.907,0,0,1,12.449,38.191Zm1.745-5.056a1.239,1.239,0,0,0-.414.075,1.844,1.844,0,0,0-.376.173,4.11,4.11,0,0,0-1.866,3.235,1.2,1.2,0,0,0,.481,1.1,1.231,1.231,0,0,0,1.211-.135A4.117,4.117,0,0,0,15.1,34.354a1.62,1.62,0,0,0-.03-.339,1.052,1.052,0,0,0-.444-.76A.736.736,0,0,0,14.194,33.136Z" transform="translate(-11.17 -32.758)" fill="#1c1d23"/></g></g></g></g></svg>