<svg xmlns="http://www.w3.org/2000/svg" width="90.914" height="90.914" viewBox="0 0 90.914 90.914"><g transform="translate(-248.141 -687.036)"><g transform="translate(248.141 687.036)"><rect width="90.914" height="90.914" rx="45.457" transform="translate(0.001)" fill="#e8e8e8" opacity="0.859"/><rect width="90.914" height="90.914" rx="45.457" fill="none"/></g><g transform="translate(258.679 703.4)"><path d="M146,41.279a7.03,7.03,0,0,0-2.152.942c-1.267.579-2.492,1.234-3.7,1.929-1.784,1.028-3.447,2.239-5.205,3.3a11.212,11.212,0,0,0-1.135.576c-.247.2-.188.054-.182.374a13.294,13.294,0,0,1,.218,1.537,2.7,2.7,0,0,1-.4,1.2,24.957,24.957,0,0,0,2.137,1.322c1.277.721,2.514,1.509,3.777,2.254.562.331,1.135.512,1.7.814s1.072.747,1.651,1.051c.742.39,1.4.894,2.122,1.33.511.308,2.312,1.73,2.859,1.393a5.373,5.373,0,0,0,.641-.732,4.016,4.016,0,0,1,.965-.789,2.445,2.445,0,0,1,1.973-.064,2.681,2.681,0,0,1,.983.47c.2.151.364.424.625.454.415.047.715-.441.976-.683.637-.591,1.322-1.2,2-1.732,1.359-1.065,2.713-2.136,4.033-3.253.706-.6,1.4-1.2,2.141-1.754.335-.25,1.173-.653,1.314-1.014-.727-.193-1.091-1.822-1.064-2.458.015-.355.371-.724.29-1.074-.126-.539-1.184-.9-1.615-1.066a35.742,35.742,0,0,1-6.39-2.6c-.583-.361-1.124-.779-1.734-1.091-.294-.151-.884-.641-1.2-.657-.382-.019-.693.64-1.049.836a3,3,0,0,1-2.743.076C147.095,41.674,146.93,41.267,146,41.279Z" transform="translate(-112.479 -36.546)" fill="#ffdc0f"/><path d="M107.278,135.525c.293.679-.074,1.86-.12,2.567-.068,1.042-.051,2.087-.051,3.132,0,1.487.142,2.98.259,4.457.038.475.029.956.074,1.43.062.654.032.529.566.452a2.369,2.369,0,0,1,2.141.934,2.915,2.915,0,0,1,.186,2.835c-.177.369-.326.421-.079.752a7.126,7.126,0,0,0,1.807,1.266,48.634,48.634,0,0,0,5.5,2.756,45.208,45.208,0,0,1,4.027,2.215c.417.248.859.524,1.29.727s.388.108.684-.309c.622-.877,1.481-2.058,2.737-1.763a8.18,8.18,0,0,0-.081-1.23c-.03-.824-.016-1.65-.05-2.474a47.448,47.448,0,0,1-.075-5.188c.136-2.011.338-4.03.438-6.043.029-.589.01-1.177.033-1.766a3.419,3.419,0,0,0,.043-.927c-.127-.444-.549-.433-.943-.6a2.838,2.838,0,0,1-1.538-1.442,2.79,2.79,0,0,1-.039-1.3c.029-.221.2-.638.082-.847-.27-.467-1.587-.754-2.027-.954-4.163-1.9-7.961-4.571-12-6.656-.411-.212-.449-.235-.753-.043-.329.208-.4.592-.8.754a3.538,3.538,0,0,1-1.248.1c-.7.018-.348.293-.286.911.168,1.661.052,3.375.1,5.045C107.167,135,107.011,134.907,107.278,135.525Z" transform="translate(-88.967 -112.838)" fill="#ff8225"/><path d="M288.87,123.416a7.445,7.445,0,0,1-1.933,1.67c-1.02.8-1.935,1.71-2.922,2.541-1.377,1.158-2.871,2.163-4.229,3.33-.146.125-.863.605-.9.814-.02.108.264.6.293.772a2.427,2.427,0,0,1-.706,2.346,3.189,3.189,0,0,1-1.613.782,6.076,6.076,0,0,1-1.181.349,2.137,2.137,0,0,1,.168,1.2,24.9,24.9,0,0,1-.3,3.293,39.482,39.482,0,0,0-.258,5.522c0,1.458.039,2.9.088,4.358.029.863-.268,2.21.091,3.008a3.185,3.185,0,0,1,1.952.308c.386.22.684.98,1.035.933.307-.041.993-.861,1.216-1.054.711-.613,1.5-1.092,2.252-1.649a47.488,47.488,0,0,1,4.338-3A18.644,18.644,0,0,0,288.9,147.5a2.589,2.589,0,0,1-.481-2.348,3.408,3.408,0,0,1,2.852-2.286,5.853,5.853,0,0,1-.049-1.321c-.036-.868-.116-1.733-.119-2.6-.006-1.939-.034-3.84.039-5.777.077-2.011-.1-4.037-.08-6.047.008-.817-.079-1.632-.046-2.45a7.028,7.028,0,0,0,.08-1.163A7.11,7.11,0,0,0,288.87,123.416Z" transform="translate(-238.123 -109.255)" fill="#ff3535"/><path d="M20.2,265.988a19.129,19.129,0,0,0-2.926,1.528c-1.534.848-3.025,1.776-4.574,2.6-.814.431-1.649.814-2.469,1.228-.348.175-1.135.37-1.253.75-.1.337.17.934.26,1.236.205.691.456,1.368.645,2.063a4.459,4.459,0,0,0,.335,1.2c.245.371.751.459,1.148.661,1.041.53,2.084,1.055,3.126,1.584a24.573,24.573,0,0,1,3.157,1.639,48.281,48.281,0,0,0,4.956,3.5c1.616.867,3.256,1.7,4.839,2.63s3.12,1.96,4.724,2.852a31.316,31.316,0,0,0,4.286,2.2c1.213.442,2.12.725,3.285.075a36.754,36.754,0,0,0,3.186-2.31c1.839-1.3,3.606-2.713,5.377-4.1.829-.651,1.721-1.18,2.57-1.8,1.177-.858,2.417-1.62,3.608-2.457,1.311-.922,2.551-1.936,3.862-2.856.57-.4,1.121-.833,1.682-1.245.862-.633,1.752-1.244,2.625-1.865s1.717-1.1,1.936-2.182c.193-.958.92-2.162.7-3.153-.113-.508-.869-.762-1.331-.986-.921-.445-1.931-.712-2.853-1.162-1.087-.531-2.1-1.144-3.243-1.57a10.424,10.424,0,0,1-1.76-.8c-.226-.135-.479-.4-.748-.4.05.733-.006,1.481-.007,2.226a14,14,0,0,1-.042,2.415,5.185,5.185,0,0,1-2.1,2.947c-1.323,1.032-2.719,2.02-4.1,2.976-2.26,1.565-4.295,3.407-6.765,4.649a9.291,9.291,0,0,1-4.869,1.081,5.075,5.075,0,0,1-1.613-.325c-.887-.4-1.861-.7-2.706-1.18-.862-.491-1.7-.94-2.592-1.381-1-.5-2.044-.942-3.02-1.494-.815-.461-1.545-1.1-2.36-1.536a18.126,18.126,0,0,1-2.826-1.338,3.008,3.008,0,0,1-1.029-2.23c-.151-.979-.352-1.951-.451-2.937a8.159,8.159,0,0,0-.211-2.488C20.572,266.053,20.294,265.729,20.2,265.988Z" transform="translate(-2.196 -234.608)" fill="#b2b2b2"/><g transform="translate(15.682 0.45)"><path d="M90.663,309.045c-.775,2.424,1.819,4.093,3.943,3.259a2.568,2.568,0,0,0,1.67-2.747,2.218,2.218,0,0,0-1.681-1.971,3.925,3.925,0,0,0-1.963-.406A3.094,3.094,0,0,0,90.663,309.045Z" transform="translate(-90.134 -272.54)" fill="#f4f4f4"/><path d="M254.357,384.418a2.925,2.925,0,0,0-2.862,2.3,3.041,3.041,0,0,0,1.031,2.667c1.938,1.783,5.776-.386,4.748-3C256.861,385.339,255.593,383.9,254.357,384.418Z" transform="translate(-232.703 -340.885)" fill="#f4f4f4"/><path d="M391.971,293.767c-2.229.941-2.879,4.582-.113,5.251a3.056,3.056,0,0,0,3.747-3.965C395.116,293.366,393.6,292.9,391.971,293.767Z" transform="translate(-355.449 -260.304)" fill="#f4f4f4"/><path d="M261.344,182.735a3.566,3.566,0,0,0-2.273,3.31,2.875,2.875,0,0,0,2.384,2.347,3.115,3.115,0,0,0,3.264-1.481,2.849,2.849,0,0,0,.143-2.934C264.33,183.081,262.29,182.575,261.344,182.735Z" transform="translate(-239.433 -162.298)" fill="#f4f4f4"/><path d="M390.291,80.584a2.883,2.883,0,0,0-1.329,3.364,2.271,2.271,0,0,0,2.536,1.479,3.058,3.058,0,0,0,2.589-4.437C393.368,79.72,391.307,80.182,390.291,80.584Z" transform="translate(-354.369 -71.459)" fill="#f4f4f4"/><path d="M246.812,4.156c-1.945.671-1.165,4.136.369,4.822,2.316,1.035,5.071-.848,3.95-3.459a2.276,2.276,0,0,0-1.475-1.241A3.916,3.916,0,0,0,246.812,4.156Z" transform="translate(-227.558 -3.943)" fill="#f4f4f4"/><path d="M89.743,86.624a2.91,2.91,0,0,0-2.624,2.662,2.746,2.746,0,0,0,1.558,2.633,3.42,3.42,0,0,0,3.157-.461,2.689,2.689,0,0,0,.771-3.146C92.234,87.057,90.808,86.017,89.743,86.624Z" transform="translate(-87.114 -77.027)" fill="#f4f4f4"/></g><path d="M62.679,33.65a10.864,10.864,0,0,0-2.082-.856c-1.077-.4-2.106-.871-3.141-1.372-.74-.359-1.5-.688-2.251-1.016a7.411,7.411,0,0,0-1.75-.752,48.864,48.864,0,0,1-.022-4.994c.155-2.725.029-5.439.3-8.162.049-.5.082-1,.111-1.5a3,3,0,0,0,.76-.335,3.953,3.953,0,0,0,1.855-2.858c.269-2.416-2.673-3.821-4.627-3a3.65,3.65,0,0,0-1.217.9c-.346-.124-.693-.252-1.035-.4a41.668,41.668,0,0,1-3.914-1.823c-1.977-1.1-4.019-2.032-5.954-3.19A3.633,3.633,0,0,0,40,3.235c.269-2.416-2.673-3.821-4.627-3-1.313.552-2.625,2.443-2.259,3.878a63.366,63.366,0,0,0-7.7,4.08c-.924.616-1.841,1.235-2.762,1.847q-.653.332-1.3.668a3.682,3.682,0,0,0-3.973-.959c-1.651.694-3.3,3.506-1.616,4.864a3.75,3.75,0,0,0,.867.776,4.3,4.3,0,0,0,.994.489,50.653,50.653,0,0,0-.19,7.244c.152,2.561.195,5.138.349,7.7-1.237.687-2.412,1.543-3.632,2.253-1.71.995-3.535,1.758-5.306,2.633-1,.494-2.433.977-2.366,2.3a20.5,20.5,0,0,0,.319,2.32,2.5,2.5,0,0,0,.664,1.421,27.668,27.668,0,0,0,3.987,2.706C13,45.538,14.638,46.521,16.262,47.5c2.963,1.781,5.879,3.648,8.909,5.314,3.132,1.722,6.323,3.192,9.285,5.2,1.058.716,1.75.488,2.749-.168,1.758-1.156,3.466-2.384,5.226-3.539,6.285-4.124,12.3-8.778,18.2-13.423,1.223-.963,2.491-1.728,2.591-3.388C63.3,36.29,63.926,34.478,62.679,33.65ZM37.929,43.678q-.013-3.982.036-7.966c.023-1.978.058-3.955.138-5.932.036-.884.093-1.78.128-2.677a2.862,2.862,0,0,0,1.543-.442A3.953,3.953,0,0,0,41.629,23.8a2.564,2.564,0,0,0-.219-1.379c.981-.652,1.948-1.326,2.883-2.04,1.563-1.193,3.063-2.468,4.572-3.728.808-.675,1.656-1.35,2.47-2.056a3.8,3.8,0,0,0,1.236.46c-.033.272-.062.536-.078.783-.077,1.183-.221,2.357-.274,3.544-.111,2.475-.159,5.011-.136,7.488.019,2.12.155,4.26.265,6.384a2.907,2.907,0,0,0-.433.141c-1.541.647-3.082,3.14-1.909,4.573-.578.386-1.168.757-1.759,1.128-2.026,1.271-3.99,2.619-5.922,4.03-.765.558-1.5,1.15-2.245,1.737A3.651,3.651,0,0,0,37.929,43.678ZM21.208,37.263a2.429,2.429,0,0,1-3.165,2.521,2.073,2.073,0,0,1-1.438-2.645C17.269,35.1,20.838,34.966,21.208,37.263Zm-2.043-2.8c.018-.359.035-.7.029-.982-.053-2.572-.122-5.177-.3-7.745a59.439,59.439,0,0,1-.2-8.429c.031-.421.078-.841.127-1.261a2.887,2.887,0,0,0,1.332-.436,3.931,3.931,0,0,0,.476-.352c.279.154.557.307.823.465,1.618.964,3.295,1.818,4.95,2.715,2.828,1.531,5.641,3.174,8.522,4.611a2.139,2.139,0,0,0,.468,2.622,3.75,3.75,0,0,0,.867.776,4.444,4.444,0,0,0,.81.423c-.222,2.943-.271,5.924-.312,8.847-.037,2.657-.073,5.308-.065,7.961a2.963,2.963,0,0,0-.628.182,4.157,4.157,0,0,0-1.83,1.727c-3.787-1.915-7.641-3.75-11.254-5.983a10.826,10.826,0,0,0-1.072-.551,3.7,3.7,0,0,0,.443-1.363C22.555,35.822,20.851,34.561,19.165,34.459ZM40.49,23.38A2.429,2.429,0,0,1,37.325,25.9a2.073,2.073,0,0,1-1.438-2.645C36.551,21.22,40.12,21.083,40.49,23.38ZM34.945,46.309c.663-2.037,4.232-2.174,4.6.124a2.429,2.429,0,0,1-3.165,2.521A2.073,2.073,0,0,1,34.945,46.309ZM50.8,35.854a2.291,2.291,0,0,1,1.61-1.45.012.012,0,0,1,0,0,2.317,2.317,0,0,1,.259-.03,1.314,1.314,0,0,1,.15-.058,2.141,2.141,0,0,1,2.582,1.66A2.429,2.429,0,0,1,52.236,38.5,2.073,2.073,0,0,1,50.8,35.854Zm4.517-24.471A2.429,2.429,0,0,1,52.151,13.9a2.073,2.073,0,0,1-1.438-2.645C51.377,9.222,54.945,9.085,55.316,11.383ZM34.259,2.689c.663-2.037,4.232-2.174,4.6.124A2.429,2.429,0,0,1,35.7,5.334,2.073,2.073,0,0,1,34.259,2.689ZM22.264,11.627c.084-.043.168-.089.252-.132,2.461-1.254,4.892-2.573,7.3-3.916,1.173-.654,2.343-1.316,3.523-1.957.193-.1.392-.211.594-.319a3.882,3.882,0,0,0,.688.572,3.147,3.147,0,0,0,3.521.218,4,4,0,0,0,.872-.737c.6.374,1.208.741,1.814,1.1.971.575,2.049.941,3.039,1.484.942.516,1.872,1,2.85,1.448,1,.458,1.99.953,3.018,1.355.041.016.082.03.123.045a2.237,2.237,0,0,0,.352,2.881c.025.032.054.061.08.091-.512.471-1.016.949-1.535,1.381-1.473,1.228-2.945,2.458-4.446,3.651-1.177.936-2.409,1.812-3.662,2.648A3.691,3.691,0,0,0,37,20.8a3.884,3.884,0,0,0-1.478,1.2l-.076-.041c-2.98-1.534-5.905-3.2-8.871-4.773-1.664-.88-3.339-1.74-4.977-2.668l-.215-.119A3.757,3.757,0,0,0,22,12.747a2.612,2.612,0,0,0-.061-.933C22.05,11.752,22.158,11.691,22.264,11.627Zm-6,.575c.664-2.037,4.232-2.174,4.6.124A2.429,2.429,0,0,1,17.7,14.846,2.073,2.073,0,0,1,16.263,12.2ZM35.531,55.276a16.064,16.064,0,0,0-.122,1.821,2.1,2.1,0,0,1-.524-.323c-2.255-1.8-5.066-2.838-7.6-4.161C24.6,51.214,22,49.607,19.411,48.04s-5.235-3.136-7.724-4.883c-1.117-.784-3.518-1.713-3.734-3.194-.037-.255-.2-.975-.257-1.546a23.472,23.472,0,0,0,1.938,1.46,39.965,39.965,0,0,0,3.909,2.4c2.649,1.5,5.352,2.833,8.048,4.242,2.955,1.544,5.812,3.247,8.8,4.732,1.318.655,2.637,1.381,4.012,1.91.587.226,1.159.252,1.287.928C35.709,54.193,35.551,55.053,35.531,55.276Zm-.067-2.542c-.865-.369-1.728-.673-2.563-1.114-3.048-1.612-6.22-3-9.176-4.778-1.323-.8-2.725-1.449-4.07-2.2-1.363-.764-2.843-1.294-4.2-2.08-1.5-.869-3-1.756-4.5-2.643a19.1,19.1,0,0,1-3.233-2.19c.231-.483,1.686-.97,2.137-1.189,1.64-.8,3.3-1.54,4.857-2.5,1.081-.665,2.1-1.421,3.136-2.142.063.906.054,1.81.064,2.715-.066.022-.131.046-.2.073-1.651.694-3.3,3.506-1.616,4.864a3.75,3.75,0,0,0,.867.776,3.147,3.147,0,0,0,3.521.218,3.986,3.986,0,0,0,.673-.524c.263.131.522.266.766.414,1.2.722,2.43,1.358,3.641,2.055,2.422,1.395,4.887,2.78,7.409,3.986.258.123.52.255.783.387a1.913,1.913,0,0,0,.679,1.857,3.75,3.75,0,0,0,.867.776,3.147,3.147,0,0,0,3.521.218,3.953,3.953,0,0,0,1.855-2.858,2.635,2.635,0,0,0-.032-.805c.321-.261.64-.522.961-.773,1.2-.944,2.455-1.821,3.7-2.711,1.822-1.3,3.829-2.371,5.666-3.657.061.045.122.09.185.131a3.147,3.147,0,0,0,3.521.218A3.953,3.953,0,0,0,56.541,36.4a3.077,3.077,0,0,0-2.9-3.2c-.041-.778-.087-1.562-.13-2.348a8.855,8.855,0,0,1,1,.542c.58.27,1.172.518,1.758.775,1.489.654,2.95,1.314,4.453,1.93.551.226,1.253.4,1.474.962A15.868,15.868,0,0,0,60,36.49c-1.083.739-2.111,1.542-3.209,2.259-2.269,1.482-4.624,2.957-6.79,4.58-2.458,1.843-5.033,3.512-7.549,5.272-1.119.783-2.261,1.532-3.4,2.292a36.169,36.169,0,0,1-2.93,2.184A2.841,2.841,0,0,0,35.464,52.734ZM62.041,37.12a2.777,2.777,0,0,1-1,1.918c-.707.62-1.487,1.18-2.241,1.74-5.246,3.9-10.374,7.931-15.759,11.647-1.339.924-2.725,1.773-4.056,2.708-.658.462-1.306.942-1.978,1.385a9.37,9.37,0,0,1-.828.534c.009-.583.075-1.2.133-1.775a5.508,5.508,0,0,0,.149-1.668,14.07,14.07,0,0,0,2.262-1.588c1.141-.82,2.351-1.554,3.516-2.338,2.529-1.7,5.1-3.389,7.544-5.21,2.1-1.562,4.335-2.937,6.489-4.426,1.122-.776,2.244-1.529,3.349-2.33A20.5,20.5,0,0,1,62.247,35.9C62.2,36.318,62.1,36.765,62.041,37.12Z" transform="translate(0 0)"/></g></g></svg>