<svg xmlns="http://www.w3.org/2000/svg" width="63" height="63" viewBox="0 0 63 63"><g transform="translate(-611.117 -1679)"><rect width="63" height="63" rx="5" transform="translate(611.117 1679)" fill="#dcbafa"/><g transform="translate(614.015 1686.001)"><g transform="translate(14.809 13.593)"><g transform="translate(16.133)"><g transform="translate(0 3.146)"><path d="M48.534,22.912l-.05,18.121a.644.644,0,0,1-.371.528L44,43.96a1.99,1.99,0,0,1-1.819,0l-4.142-2.4a.641.641,0,0,1-.38-.536L37.7,22.907a.644.644,0,0,0,.38.532l4.142,2.4a2,2,0,0,0,1.823,0l4.113-2.4a.641.641,0,0,0,.375-.528Z" transform="translate(-37.369 -22.62)" fill="#fff"/><path d="M42.975,44.355a2.126,2.126,0,0,1-1.055-.26l-4.141-2.4a.918.918,0,0,1-.523-.791L37.3,22.794a.287.287,0,0,1,.287-.287h0a.287.287,0,0,1,.287.287c0,.093.086.2.235.283l4.143,2.4a1.717,1.717,0,0,0,1.534,0l4.112-2.4c.147-.086.232-.187.233-.278v0a.287.287,0,0,1,.287-.287h0a.287.287,0,0,1,.287.287h0l-.05,18.119a.919.919,0,0,1-.511.774l-4.12,2.4a2.12,2.12,0,0,1-1.054.259ZM37.875,23.6l-.044,17.308c0,.094.088.2.236.286l4.143,2.4a1.7,1.7,0,0,0,1.529,0l4.118-2.4c.144-.086.228-.188.228-.279l.048-17.311-4.053,2.365a2.292,2.292,0,0,1-2.112,0Z" transform="translate(-37.256 -22.507)"/></g><g transform="translate(0 3.146)"><g transform="translate(0.288 0.287)"><path d="M43.266,26.051a1.908,1.908,0,0,1-1.043-.212l-4.142-2.4a.644.644,0,0,1-.38-.532l-.046,18.117a.641.641,0,0,0,.38.536l4.142,2.4a1.916,1.916,0,0,0,1.089.21Z" transform="translate(-37.656 -22.907)" fill="#ffd63c"/></g><path d="M42.969,44.352a2.113,2.113,0,0,1-1.05-.257l-4.141-2.4a.918.918,0,0,1-.523-.791L37.3,22.794a.287.287,0,0,1,.287-.287h0a.287.287,0,0,1,.287.287c0,.093.086.2.235.283l4.143,2.4a1.612,1.612,0,0,0,.881.174.28.28,0,0,1,.214.078.288.288,0,0,1,.09.209V44.057a.287.287,0,0,1-.264.286c-.069.006-.139.009-.208.009ZM37.875,23.6l-.044,17.308c0,.094.088.2.236.286l4.143,2.4a1.486,1.486,0,0,0,.657.176V26.225a2.066,2.066,0,0,1-.9-.251Z" transform="translate(-37.256 -22.507)"/></g><g transform="translate(0.046)"><path d="M48.172,21.149a.561.561,0,0,1,.006,1.059l-4.114,2.4a2,2,0,0,1-1.821,0l-4.141-2.4a.56.56,0,0,1-.006-1.059l4.114-2.4a2,2,0,0,1,1.821,0Z" transform="translate(-37.433 -18.242)" fill="#fff"/><path d="M43.042,25a2.142,2.142,0,0,1-1.056-.258l-4.141-2.4a.841.841,0,0,1-.007-1.556l4.114-2.4a2.287,2.287,0,0,1,2.11,0l4.141,2.4a.843.843,0,0,1,.006,1.556l-4.114,2.4A2.132,2.132,0,0,1,43.042,25Zm-.035-6.3a1.558,1.558,0,0,0-.764.181l-4.114,2.4c-.146.085-.233.189-.233.279s.089.2.238.283l4.141,2.4a1.708,1.708,0,0,0,1.532,0l4.114-2.4c.145-.084.231-.188.231-.279s-.088-.2-.236-.283l-4.141-2.4A1.57,1.57,0,0,0,43.006,18.7Z" transform="translate(-37.321 -18.13)"/></g></g><g transform="translate(8.067 7.892)"><g transform="translate(0 3.146)"><path d="M37.311,33.892l-.05,14.935a.644.644,0,0,1-.371.528l-4.117,2.4a1.99,1.99,0,0,1-1.819,0l-4.142-2.4a.641.641,0,0,1-.38-.536l.046-14.931a.644.644,0,0,0,.38.532L31,36.819a2,2,0,0,0,1.823,0l4.113-2.4a.641.641,0,0,0,.375-.528Z" transform="translate(-26.145 -33.601)" fill="#fff"/><path d="M31.751,52.15a2.126,2.126,0,0,1-1.055-.26l-4.141-2.4a.918.918,0,0,1-.523-.791l.046-14.926a.287.287,0,0,1,.287-.286h0a.287.287,0,0,1,.287.287c0,.092.088.2.236.283l4.143,2.4a1.716,1.716,0,0,0,1.534,0l4.112-2.4c.147-.086.232-.187.233-.278v0a.287.287,0,0,1,.287-.286h0a.287.287,0,0,1,.287.287h0v0l-.05,14.932a.919.919,0,0,1-.511.773l-4.12,2.4a2.12,2.12,0,0,1-1.054.259Zm-5.1-17.565-.044,14.123c0,.093.088.2.236.286l4.143,2.4a1.7,1.7,0,0,0,1.529,0l4.118-2.4c.144-.086.228-.188.228-.279l.047-14.124-4.053,2.365a2.293,2.293,0,0,1-2.112,0Z" transform="translate(-26.032 -33.488)"/></g><g transform="translate(0 3.146)"><g transform="translate(0.288 0.287)"><path d="M32.043,37.032A1.908,1.908,0,0,1,31,36.819l-4.142-2.4a.644.644,0,0,1-.38-.532l-.046,14.931a.641.641,0,0,0,.38.536l4.142,2.4a1.916,1.916,0,0,0,1.089.21V37.032Z" transform="translate(-26.433 -33.888)" fill="#ffd63c"/></g><path d="M31.745,52.147A2.109,2.109,0,0,1,30.7,51.89l-4.141-2.4a.918.918,0,0,1-.523-.791l.046-14.926a.287.287,0,0,1,.287-.286h0a.287.287,0,0,1,.287.287c0,.092.088.2.236.283l4.143,2.4a1.626,1.626,0,0,0,.881.174.3.3,0,0,1,.214.078.288.288,0,0,1,.09.209V51.852a.287.287,0,0,1-.264.286q-.1.009-.208.009ZM26.651,34.585l-.044,14.123c0,.093.088.2.236.286l4.143,2.4a1.486,1.486,0,0,0,.657.176V37.206a2.068,2.068,0,0,1-.9-.25Z" transform="translate(-26.032 -33.488)"/></g><g transform="translate(0.047)"><path d="M36.948,32.13a.561.561,0,0,1,.006,1.059l-4.114,2.4a2,2,0,0,1-1.821,0l-4.141-2.4a.56.56,0,0,1-.006-1.059l4.114-2.4a2,2,0,0,1,1.821,0Z" transform="translate(-26.209 -29.223)" fill="#fff"/><path d="M31.818,35.983a2.144,2.144,0,0,1-1.056-.258l-4.141-2.4a.841.841,0,0,1-.007-1.556l4.114-2.4a2.289,2.289,0,0,1,2.11,0l4.141,2.4a.843.843,0,0,1,.007,1.556l-4.114,2.4a2.129,2.129,0,0,1-1.054.258Zm-.035-6.3a1.555,1.555,0,0,0-.764.181l-4.114,2.4c-.146.085-.233.189-.233.279s.089.2.238.283l4.141,2.4a1.707,1.707,0,0,0,1.532,0l4.114-2.4c.145-.084.231-.188.231-.279s-.088-.2-.236-.283l-4.141-2.4a1.572,1.572,0,0,0-.768-.181Z" transform="translate(-26.097 -29.111)"/></g></g><g transform="translate(0 16.33)"><g transform="translate(0 3.147)"><path d="M26.087,45.632l-.05,11.2a.644.644,0,0,1-.371.528l-4.117,2.4a1.99,1.99,0,0,1-1.819,0l-4.142-2.4a.641.641,0,0,1-.38-.536l.046-11.2a.644.644,0,0,0,.38.532l4.142,2.4a2,2,0,0,0,1.823,0l4.113-2.4a.641.641,0,0,0,.375-.528Z" transform="translate(-14.921 -45.341)" fill="#fff"/><path d="M20.528,60.158a2.126,2.126,0,0,1-1.055-.26l-4.141-2.4a.918.918,0,0,1-.523-.79l.046-11.193h0a.287.287,0,0,1,.287-.286h0a.287.287,0,0,1,.287.287c0,.092.088.2.236.283l4.143,2.4a1.716,1.716,0,0,0,1.534,0l4.112-2.4c.148-.087.233-.188.233-.279h0a.287.287,0,0,1,.287-.286.282.282,0,0,1,.287.287h0v0l-.05,11.2a.919.919,0,0,1-.511.773l-4.12,2.4a2.12,2.12,0,0,1-1.054.259Zm-5.1-13.834-.043,10.392c0,.093.089.2.236.286l4.143,2.4a1.7,1.7,0,0,0,1.529,0L25.409,57c.144-.086.228-.188.228-.279l.046-10.392L21.632,48.7a2.293,2.293,0,0,1-2.112,0Z" transform="translate(-14.809 -45.228)"/></g><g transform="translate(0 3.147)"><g transform="translate(0.288 0.287)"><path d="M20.819,48.771a1.908,1.908,0,0,1-1.043-.212l-4.142-2.4a.644.644,0,0,1-.38-.532l-.046,11.2a.641.641,0,0,0,.38.536l4.142,2.4a1.916,1.916,0,0,0,1.089.21Z" transform="translate(-15.209 -45.628)" fill="#ffd63c"/></g><path d="M20.522,60.155a2.109,2.109,0,0,1-1.049-.257l-4.141-2.4a.918.918,0,0,1-.523-.79l.046-11.193h0a.287.287,0,0,1,.287-.286h0a.287.287,0,0,1,.287.287c0,.092.088.2.236.283l4.143,2.4a1.616,1.616,0,0,0,.881.174.29.29,0,0,1,.214.078.288.288,0,0,1,.09.209v11.2a.287.287,0,0,1-.264.286q-.1.009-.208.009ZM15.427,46.324l-.043,10.392c0,.093.089.2.236.286l4.143,2.4a1.486,1.486,0,0,0,.657.176V48.946a2.068,2.068,0,0,1-.9-.25Z" transform="translate(-14.809 -45.228)"/></g><g transform="translate(0.046 0)"><path d="M25.725,43.869a.561.561,0,0,1,.006,1.059l-4.114,2.4a2,2,0,0,1-1.821,0l-4.141-2.4a.56.56,0,0,1-.006-1.059l4.114-2.4a2,2,0,0,1,1.821,0Z" transform="translate(-14.986 -40.963)" fill="#fff"/><path d="M20.595,47.722a2.143,2.143,0,0,1-1.056-.258l-4.141-2.4a.841.841,0,0,1-.007-1.556l4.114-2.4a2.289,2.289,0,0,1,2.11,0l4.141,2.4a.843.843,0,0,1,.007,1.556l-4.114,2.4a2.132,2.132,0,0,1-1.054.258Zm-.035-6.3a1.555,1.555,0,0,0-.764.181l-4.114,2.4c-.146.085-.233.189-.233.279s.089.2.238.283l4.141,2.4a1.706,1.706,0,0,0,1.532,0l4.114-2.4c.145-.084.231-.188.231-.279s-.088-.2-.236-.283l-4.141-2.4a1.572,1.572,0,0,0-.768-.181Z" transform="translate(-14.873 -40.85)"/></g></g></g><g transform="translate(17.11 1.999)"><g transform="translate(0)"><g transform="translate(2.042 30.959)"><path d="M23.315,46.686l-2.061-1.2-.018-.011,2.061,1.2.018.011Z" transform="translate(-20.96 -45.186)" fill="#fff"/><path d="M23.2,46.86a.273.273,0,0,1-.138-.038L21,45.62a.3.3,0,0,1-.112-.4.279.279,0,0,1,.384-.109l2.06,1.2a.3.3,0,0,1,.112.4A.287.287,0,0,1,23.2,46.86Z" transform="translate(-20.852 -45.074)"/></g><g transform="translate(0 8.48)"><path d="M20.664,35.6c-.24.4-.257.839-.035.986L22.5,37.88l-2.058-1.2L18.57,35.391c-.222-.153-.211-.593.035-.986L29.663,16.458c.24-.393.257-.834.041-.986L27.927,14.2l2.058,1.2,1.778,1.268c.216.158.2.6-.041.986Z" transform="translate(-18.123 -13.91)" fill="#f4c531"/><path d="M22.386,38.055a.285.285,0,0,1-.145-.039l-2.058-1.2-1.889-1.3c-.361-.248-.38-.839-.046-1.375L29.306,16.194c.186-.306.162-.566.12-.6l-1.779-1.275a.287.287,0,0,1,.312-.482l2.058,1.2,1.8,1.282a1.036,1.036,0,0,1,.036,1.371L20.8,35.639c-.19.317-.158.565-.122.6l1.875,1.295a.287.287,0,0,1-.164.524Zm7.644-22.3a1.514,1.514,0,0,1-.234.74L18.737,34.443c-.192.307-.161.567-.117.6l1.454,1a1.559,1.559,0,0,1,.231-.7l0,0L31.364,17.392c.192-.311.161-.57.115-.6Z" transform="translate(-18.01 -13.798)"/></g><g transform="translate(2.061 1.203)"><path d="M40.555,4.146c.349-.2.618.031.519.492L38.558,16.655a1.2,1.2,0,0,1-.516.755.358.358,0,0,1-.394.023L36,16.268a.408.408,0,0,0-.445.027,1.172,1.172,0,0,0-.4.408L24.145,34.593a1.2,1.2,0,0,1-.4.407.406.406,0,0,1-.438.031l-1.873-1.287c-.221-.152-.207-.592.035-.986L32.529,14.81c.238-.393.256-.83.042-.986l-1.78-1.272c-.281-.2-.111-.885.311-1.207L40.471,4.2a.825.825,0,0,1,.084-.056Z" transform="translate(-20.991 -3.785)" fill="#fff"/><path d="M23.367,35.257a.58.58,0,0,1-.335-.1L21.16,33.868c-.357-.246-.377-.836-.047-1.373L32.172,14.546c.19-.312.161-.571.117-.6l-1.777-1.27a.672.672,0,0,1-.258-.557A1.473,1.473,0,0,1,30.815,11l9.369-7.143a1.106,1.106,0,0,1,.116-.077.644.644,0,0,1,.715-.006.762.762,0,0,1,.227.807L38.727,16.6a1.48,1.48,0,0,1-.653.945.634.634,0,0,1-.7.008l-1.645-1.164c-.011-.006-.059,0-.134.041a.882.882,0,0,0-.294.308L24.277,34.631a1.49,1.49,0,0,1-.5.5.821.821,0,0,1-.411.121ZM40.675,4.241s-.032.008-.087.04h0a.558.558,0,0,0-.055.037l-9.366,7.141a.915.915,0,0,0-.334.6.239.239,0,0,0,.019.147l1.777,1.27a1.041,1.041,0,0,1,.036,1.369L21.6,32.8c-.188.308-.16.568-.116.6l1.873,1.287a.226.226,0,0,0,.131-.042.919.919,0,0,0,.3-.309L34.805,16.44a1.445,1.445,0,0,1,.5-.506.688.688,0,0,1,.755-.013L37.7,17.086a.534.534,0,0,0,.084-.037.917.917,0,0,0,.379-.566L40.68,4.466a.318.318,0,0,0-.005-.225Zm-.232-.208h.007Z" transform="translate(-20.878 -3.673)"/></g><g transform="translate(9.378)"><path d="M43.8,3.636a.382.382,0,0,0-.38.041.392.392,0,0,0-.082.053l-9.373,7.144c-.421.323-.591,1-.31,1.209l-2.058-1.2c-.281-.205-.111-.886.31-1.209l9.367-7.138a.761.761,0,0,1,.088-.059.365.365,0,0,1,.38-.035Z" transform="translate(-31.171 -2.112)" fill="#ffd63c"/><path d="M33.542,12.258a.287.287,0,0,1-.145-.04l-2.058-1.2a.681.681,0,0,1-.28-.574,1.479,1.479,0,0,1,.56-1.111l9.368-7.139a1.126,1.126,0,0,1,.114-.076.646.646,0,0,1,.675-.037l2.057,1.2a.288.288,0,0,1-.279.5c-.011-.007-.047,0-.1.034L34.026,10.99a.923.923,0,0,0-.333.6.234.234,0,0,0,.02.145.287.287,0,0,1-.17.519Zm7.94-9.684a.2.2,0,0,0-.086.033l-.061.041L31.968,9.786a.925.925,0,0,0-.333.605.234.234,0,0,0,.02.144l1.486.867a1.514,1.514,0,0,1,.537-.87l9.3-7.089-1.494-.869h0Z" transform="translate(-31.058 -1.999)"/></g></g></g></g></g></svg>