<svg xmlns="http://www.w3.org/2000/svg" width="90.914" height="90.914" viewBox="0 0 90.914 90.914"><g transform="translate(-755.141 -684.169)"><g transform="translate(755.141 684.169)"><rect width="90.914" height="90.914" rx="45.457" transform="translate(0.001)" fill="#e8e8e8" opacity="0.859"/><rect width="90.914" height="90.914" rx="45.457" fill="none"/></g><g transform="translate(766 695.493)"><path d="M57.708,46.224l-.01,5.655a2.458,2.458,0,0,1-1.418,1.994l-18.759,10.9a7.627,7.627,0,0,1-6.9,0l-18.888-10.9a2.451,2.451,0,0,1-1.439-2.014l.02-5.645a2.444,2.444,0,0,0,1.438,1.994l18.878,10.9a7.628,7.628,0,0,0,6.9,0l18.759-10.9a2.424,2.424,0,0,0,1.419-1.984Z" fill="#ffd63c"/><path d="M34.068,66a7.454,7.454,0,0,1-3.651-.874L11.528,54.22a2.859,2.859,0,0,1-1.639-2.36l.021-5.646a.4.4,0,0,1,.4-.4h0a.4.4,0,0,1,.4.4,2.078,2.078,0,0,0,1.237,1.646l18.879,10.9a7.191,7.191,0,0,0,6.5,0l18.759-10.9a2.07,2.07,0,0,0,1.22-1.638h0a.4.4,0,0,1,.8,0h0v.005L58.1,51.88a2.85,2.85,0,0,1-1.615,2.338l-18.761,10.9A7.466,7.466,0,0,1,34.068,66ZM10.7,47.923l-.014,3.938a2.1,2.1,0,0,0,1.238,1.667l18.889,10.9a7.187,7.187,0,0,0,6.5,0l18.758-10.9A2.093,2.093,0,0,0,57.3,51.874l.008-3.93a4.065,4.065,0,0,1-.815.61l-18.758,10.9a8.07,8.07,0,0,1-7.3,0l-18.879-10.9a4.105,4.105,0,0,1-.845-.631Z"/><path d="M56.27,44.208c1.913,1.1,1.923,2.9.023,4l-18.758,10.9a7.612,7.612,0,0,1-6.907,0l-18.88-10.9c-1.913-1.1-1.923-2.9-.023-4l18.758-10.9a7.612,7.612,0,0,1,6.907,0Z" fill="#fff"/><path d="M34.085,60.333a7.479,7.479,0,0,1-3.658-.875l-18.88-10.9a2.5,2.5,0,0,1-.023-4.693l18.758-10.9a8.061,8.061,0,0,1,7.308,0l18.881,10.9a2.5,2.5,0,0,1,.023,4.693l-18.758,10.9a7.427,7.427,0,0,1-3.65.876Zm-.154-27.46a6.608,6.608,0,0,0-3.247.779l-18.758,10.9a2.049,2.049,0,0,0-1.22,1.647,2.077,2.077,0,0,0,1.241,1.662l18.88,10.9a7.179,7.179,0,0,0,6.506,0l18.758-10.9a2.05,2.05,0,0,0,1.22-1.647,2.077,2.077,0,0,0-1.241-1.662l-18.881-10.9a6.661,6.661,0,0,0-3.258-.779Z"/><path d="M53.088,40.426l-.008,4.553a1.979,1.979,0,0,1-1.142,1.606l-15.1,8.779a6.141,6.141,0,0,1-5.559,0L16.069,46.584a1.973,1.973,0,0,1-1.158-1.622l.016-4.545a1.967,1.967,0,0,0,1.158,1.605l15.2,8.779a6.142,6.142,0,0,0,5.559,0l15.1-8.779a1.951,1.951,0,0,0,1.142-1.6Z" fill="#ffd63c"/><path d="M34.055,56.434a6.06,6.06,0,0,1-2.979-.724L15.869,46.931a2.376,2.376,0,0,1-1.358-1.968l.017-4.544h0a.4.4,0,0,1,.4-.4h0a.4.4,0,0,1,.4.4,1.6,1.6,0,0,0,.956,1.258l15.2,8.78a5.8,5.8,0,0,0,5.157,0l15.1-8.779a1.6,1.6,0,0,0,.943-1.249v0a.4.4,0,0,1,.8,0h0v0L53.48,44.98a2.368,2.368,0,0,1-1.339,1.949l-15.105,8.78a6.061,6.061,0,0,1-2.98.725ZM15.322,41.973l-.011,2.992a1.619,1.619,0,0,0,.958,1.274l15.207,8.779a5.794,5.794,0,0,0,5.158,0l15.1-8.778a1.612,1.612,0,0,0,.942-1.265l.006-2.985a3.483,3.483,0,0,1-.539.381l-15.1,8.778a6.5,6.5,0,0,1-5.959,0l-15.2-8.779a3.47,3.47,0,0,1-.562-.4Z"/><path d="M51.93,38.8c1.54.889,1.548,2.332.018,3.221L36.846,50.8a6.129,6.129,0,0,1-5.561,0l-15.2-8.777c-1.54-.889-1.548-2.332-.018-3.221l15.1-8.778a6.129,6.129,0,0,1,5.561,0Z" fill="#fff"/><path d="M34.069,51.874a6.075,6.075,0,0,1-2.984-.727l-15.2-8.777a2.093,2.093,0,0,1-.02-3.913l15.1-8.778a6.478,6.478,0,0,1,5.962,0l15.2,8.777a2.093,2.093,0,0,1,.019,3.914l-15.1,8.777a6.031,6.031,0,0,1-2.979.727Zm-.124-22.121a5.238,5.238,0,0,0-2.575.618l-15.1,8.778a1.577,1.577,0,0,0-.943,1.258,1.6,1.6,0,0,0,.961,1.271l15.2,8.777a5.693,5.693,0,0,0,5.16,0l15.1-8.777a1.578,1.578,0,0,0,.943-1.259,1.6,1.6,0,0,0-.96-1.271l-15.2-8.777a5.283,5.283,0,0,0-2.584-.618Z"/><path d="M49.472,33.828l-.007,3.691a1.6,1.6,0,0,1-.926,1.3L36.3,45.935a4.978,4.978,0,0,1-4.506,0L19.466,38.82a1.6,1.6,0,0,1-.939-1.314l.013-3.684a1.6,1.6,0,0,0,.938,1.3L31.8,42.238a4.978,4.978,0,0,0,4.506,0l12.242-7.116a1.582,1.582,0,0,0,.926-1.295Z" fill="#ffd63c"/><path d="M34.044,46.878a4.985,4.985,0,0,1-2.452-.6L19.266,39.166a2,2,0,0,1-1.14-1.66l.014-3.686a.4.4,0,0,1,.4-.4h0a.4.4,0,0,1,.4.4,1.229,1.229,0,0,0,.737.954L32,41.892a4.611,4.611,0,0,0,4.1,0l12.241-7.116a1.224,1.224,0,0,0,.728-.947v0a.4.4,0,0,1,.8,0h0l-.007,3.688a1.993,1.993,0,0,1-1.123,1.645L36.5,46.281a4.987,4.987,0,0,1-2.454.6ZM18.935,35.241l-.008,2.266a1.242,1.242,0,0,0,.739.966l12.326,7.116a4.6,4.6,0,0,0,4.1,0l12.241-7.115a1.239,1.239,0,0,0,.727-.961l0-2.259a3.061,3.061,0,0,1-.324.215l-12.24,7.115a5.342,5.342,0,0,1-4.906,0l-12.32-7.116a3.019,3.019,0,0,1-.344-.228Z"/><path d="M48.533,32.512c1.248.721,1.255,1.89.015,2.611L36.307,42.238a4.968,4.968,0,0,1-4.507,0L19.478,35.123c-1.248-.721-1.255-1.89-.015-2.611L31.7,25.4a4.968,4.968,0,0,1,4.507,0Z" fill="#fff"/><path d="M34.056,43.182a5,5,0,0,1-2.457-.6L19.278,35.469a1.77,1.77,0,0,1-.016-3.3L31.5,25.052a5.339,5.339,0,0,1,4.909,0l12.32,7.115a1.77,1.77,0,0,1,.016,3.3l-12.24,7.115a4.97,4.97,0,0,1-2.452.6Zm-.1-17.921a4.19,4.19,0,0,0-2.05.483L19.665,32.858a1.208,1.208,0,0,0-.727.955,1.241,1.241,0,0,0,.74.964L32,41.892a4.6,4.6,0,0,0,4.106,0l12.24-7.115a1.212,1.212,0,0,0,.728-.955,1.246,1.246,0,0,0-.741-.964l-12.32-7.114a4.228,4.228,0,0,0-2.057-.483Z"/><path d="M31.978,37.1,29.157,35.46a.914.914,0,0,1-.38-.841l-.053-13.447a.588.588,0,0,0-.24-.534L31.3,22.28a.577.577,0,0,1,.247.534l.047,13.447a.939.939,0,0,0,.387.841Z" fill="#ffd63c"/><path d="M31.978,37.5a.4.4,0,0,1-.2-.054l-2.82-1.642a1.3,1.3,0,0,1-.58-1.186l-.053-13.446a.289.289,0,0,0-.045-.192.4.4,0,0,1,.406-.689L31.5,21.934a.965.965,0,0,1,.446.879l.047,13.445a.583.583,0,0,0,.192.5.4.4,0,0,1-.206.743ZM29.125,21.476l.052,13.142a.574.574,0,0,0,.179.495l1.835,1.068-.047-13.365c0-.129-.034-.181-.043-.187Z"/><path d="M36.306,4.13a.931.931,0,0,0-.933.1,2.821,2.821,0,0,0-1.094,1.294L27.043,22.086c-.38.861-.253,1.588.167,1.828L24.39,22.273c-.42-.24-.547-.961-.167-1.828L31.458,3.883a2.822,2.822,0,0,1,1.094-1.294.931.931,0,0,1,.933-.1Z" fill="#ffd63c"/><path d="M27.21,24.315a.4.4,0,0,1-.2-.053L27,24.255l-2.812-1.637c-.638-.365-.774-1.325-.331-2.334L31.091,3.723a3.215,3.215,0,0,1,1.259-1.48,1.312,1.312,0,0,1,1.336-.1l2.82,1.642a.4.4,0,1,1-.4.691h0a.586.586,0,0,0-.527.1,2.429,2.429,0,0,0-.931,1.11L27.41,22.246c-.315.716-.189,1.208,0,1.319l.006,0a.4.4,0,0,1-.2.746ZM33.149,2.8a.825.825,0,0,0-.395.13,2.436,2.436,0,0,0-.931,1.11L24.589,20.605c-.316.721-.187,1.214,0,1.321l1.831,1.065a2.917,2.917,0,0,1,.259-1.067l7.235-16.56A3.226,3.226,0,0,1,35.13,3.909L33.284,2.834a.267.267,0,0,0-.135-.031Z"/><path d="M35.371,4.228a.836.836,0,0,1,1.092.035l7.311,8.157c.595.662-.032,2.386-1.087,3L40.124,16.9a1.84,1.84,0,0,0-.836,1.444l.051,13.443a2.887,2.887,0,0,1-1.311,2.273l-5.109,2.952c-.728.421-1.322.087-1.324-.75l-.051-13.443c0-.529-.373-.746-.837-.477l-2.563,1.481c-1.06.612-1.69-.387-1.1-1.732L34.279,5.524a2.811,2.811,0,0,1,1.092-1.3Z" fill="#fff"/><path d="M42.69,15.417,40.124,16.9a1.835,1.835,0,0,0-.836,1.443l.051,13.445a2.894,2.894,0,0,1-1.309,2.273l-5.113,2.949c-.575.332-1.066.2-1.245-.287,3.792-3.907,6.313-6.39,6.313-14.319a30.475,30.475,0,0,0-4.111-15.96l.4-.919a2.836,2.836,0,0,1,1.091-1.3.847.847,0,0,1,1.1.038l7.309,8.152c.594.664-.032,2.388-1.085,3Z" fill="#e9edf4"/><path d="M32.322,37.588a1.079,1.079,0,0,1-.541-.14,1.314,1.314,0,0,1-.587-1.189l-.051-13.443a.291.291,0,0,0-.044-.192.3.3,0,0,0-.192.06l-2.563,1.48a1.251,1.251,0,0,1-1.508-.028,1.929,1.929,0,0,1-.159-2.211L33.914,5.364a3.193,3.193,0,0,1,1.258-1.482A1.22,1.22,0,0,1,36.762,4l7.31,8.156a1.612,1.612,0,0,1,.3,1.355,3.356,3.356,0,0,1-1.486,2.254l-2.563,1.48a1.444,1.444,0,0,0-.636,1.1l.051,13.443a3.287,3.287,0,0,1-1.511,2.62l-5.109,2.952a1.606,1.606,0,0,1-.8.234ZM31.084,21.823a.823.823,0,0,1,.415.108.974.974,0,0,1,.445.882l.051,13.443a.57.57,0,0,0,.186.5.59.59,0,0,0,.538-.094l5.109-2.952a2.488,2.488,0,0,0,1.11-1.925l-.051-13.443a2.254,2.254,0,0,1,1.036-1.792l2.563-1.48a2.54,2.54,0,0,0,1.1-1.687.869.869,0,0,0-.107-.7L36.166,4.529c-.158-.179-.469-.029-.594.044a2.417,2.417,0,0,0-.926,1.11L27.409,22.246c-.274.627-.228,1.126-.04,1.294.161.144.455,0,.574-.068l2.563-1.48a1.163,1.163,0,0,1,.577-.168Zm4.288-17.6h.01Z"/></g></g></svg>