<svg xmlns="http://www.w3.org/2000/svg" width="64.05" height="58.534" viewBox="0 0 64.05 58.534"><g transform="translate(0 -73)"><path d="M40,118.591H72.794v-.375A6.76,6.76,0,0,1,75.271,113H43.189A3.219,3.219,0,0,0,40,116.227Z" transform="translate(-38.499 -38.499)" fill="#4e4cd3" fill-rule="evenodd"/><path d="M73.545,120.092H40v5.591h61.048v-9.456A3.251,3.251,0,0,0,97.821,113H79.4a5.206,5.206,0,0,0-5.1,5.216v1.126A.753.753,0,0,1,73.545,120.092Zm6.491,2.289a3.039,3.039,0,1,1,0-6.079,3.04,3.04,0,0,1,0,6.079Zm8.255,0a3.039,3.039,0,1,1,0-6.079,3.039,3.039,0,0,1,0,6.079Zm8.292,0a3.039,3.039,0,0,1,0-6.079,3.04,3.04,0,0,1,0,6.079Z" transform="translate(-38.499 -38.499)" fill="#3e4095" fill-rule="evenodd"/><path d="M1066,242.538a1.52,1.52,0,1,0,3.039,0,1.52,1.52,0,1,0-3.039,0Z" transform="translate(-1026.002 -161.696)" fill="#f06277" fill-rule="evenodd"/><path d="M1286,242.538a1.57,1.57,0,0,0,1.538,1.538,1.545,1.545,0,0,0,1.539-1.538,1.522,1.522,0,0,0-1.539-1.538A1.545,1.545,0,0,0,1286,242.538Z" transform="translate(-1237.747 -161.696)" fill="#fcad42" fill-rule="evenodd"/><path d="M1507,242.538a1.52,1.52,0,1,0,3.039,0,1.52,1.52,0,1,0-3.039,0Z" transform="translate(-1450.455 -161.696)" fill="#22b37f" fill-rule="evenodd"/><path d="M40,491v38.16a3.187,3.187,0,0,0,3.189,3.189H97.821a3.219,3.219,0,0,0,3.227-3.189V491Z" transform="translate(-38.499 -402.316)" fill="#dbe3fd" fill-rule="evenodd"/><g transform="translate(0 73)"><g transform="translate(9.005 20.562)"><g transform="translate(0 30.093)"><path d="M286.077,1424.5H240.75a.75.75,0,1,1,0-1.5h45.326a.75.75,0,1,1,0,1.5Z" transform="translate(-240 -1423)" fill="#000002" fill-rule="evenodd"/></g><g transform="translate(3.114 14.971)"><path d="M328.591,1036.622a.753.753,0,0,1-.75-.75v-14.258a.12.12,0,0,0-.113-.113h-3.114a.169.169,0,0,0-.113.113v14.258a.75.75,0,1,1-1.5,0v-14.258a1.625,1.625,0,0,1,1.613-1.613h3.114a1.625,1.625,0,0,1,1.613,1.613v14.258A.753.753,0,0,1,328.591,1036.622Z" transform="translate(-323 -1020)" fill="#000002" fill-rule="evenodd"/></g><g transform="translate(14.709 8.78)"><path d="M637.591,877.813a.753.753,0,0,1-.75-.75V856.614a.169.169,0,0,0-.113-.113h-3.152c-.037,0-.075.075-.075.113v20.449a.75.75,0,0,1-1.5,0V856.614A1.618,1.618,0,0,1,633.576,855h3.152a1.651,1.651,0,0,1,1.613,1.614v20.449A.753.753,0,0,1,637.591,877.813Z" transform="translate(-632 -855)" fill="#000002" fill-rule="evenodd"/></g><g transform="translate(26.265 14.971)"><path d="M945.591,1036.622a.753.753,0,0,1-.75-.75v-14.258a.12.12,0,0,0-.113-.113h-3.114a.12.12,0,0,0-.113.113v14.258a.75.75,0,1,1-1.5,0v-14.258a1.626,1.626,0,0,1,1.614-1.613h3.114a1.625,1.625,0,0,1,1.613,1.613v14.258A.753.753,0,0,1,945.591,1036.622Z" transform="translate(-940 -1020)" fill="#000002" fill-rule="evenodd"/></g><g transform="translate(37.822 8.78)"><path d="M1253.591,877.813a.753.753,0,0,1-.75-.75V856.614a.12.12,0,0,0-.113-.113h-3.114a.169.169,0,0,0-.113.113v20.449a.75.75,0,1,1-1.5,0V856.614a1.625,1.625,0,0,1,1.613-1.614h3.114a1.625,1.625,0,0,1,1.613,1.614v20.449A.753.753,0,0,1,1253.591,877.813Z" transform="translate(-1248 -855)" fill="#000002" fill-rule="evenodd"/></g><g transform="translate(7.312 2.535)"><path d="M454.46,696.654a.757.757,0,0,1-.413-.113c-2.289-1.538-5.516-3.677-7.654-5.253a.75.75,0,1,1,.9-1.2c2.214,1.613,5.7,3.94,7.579,5.178a.778.778,0,0,1,.225,1.051A.737.737,0,0,1,454.46,696.654Zm-18.836-.3a.733.733,0,0,1-.525-1.276c2.214-2.1,5.966-5.1,7.692-6.379a.769.769,0,0,1,1.051.188.734.734,0,0,1-.15,1.051,95.157,95.157,0,0,0-7.579,6.229A.713.713,0,0,1,435.624,696.354Zm22.551,0a.676.676,0,0,1-.6-.338.694.694,0,0,1,.188-1.013l8.367-5.741a.694.694,0,0,1,1.013.188.742.742,0,0,1-.188,1.051l-8.367,5.741A.756.756,0,0,1,458.175,696.354Z" transform="translate(-434.869 -688.57)" fill="#000002" fill-rule="evenodd"/></g><g transform="translate(3.339 7.955)"><path d="M331.964,838.891a2.946,2.946,0,1,1,0-5.891,2.946,2.946,0,1,1,0,5.891Zm0-4.39a1.445,1.445,0,1,0,0,2.889,1.445,1.445,0,1,0,0-2.889Z" transform="translate(-329 -833)" fill="#000002" fill-rule="evenodd"/></g><g transform="translate(14.896 0)"><path d="M639.964,626.891a2.946,2.946,0,1,1,0-5.891,2.946,2.946,0,1,1,0,5.891Zm0-4.39a1.445,1.445,0,1,0,0,2.889,1.445,1.445,0,1,0,0-2.889Z" transform="translate(-637 -621)" fill="#000002" fill-rule="evenodd"/></g><g transform="translate(25.89 7.955)"><path d="M932.964,838.891a2.946,2.946,0,1,1,2.964-2.927A2.963,2.963,0,0,1,932.964,838.891Zm0-4.39a1.445,1.445,0,1,0,0,2.889,1.445,1.445,0,1,0,0-2.889Z" transform="translate(-930 -833)" fill="#000002" fill-rule="evenodd"/></g><g transform="translate(38.047 0)"><path d="M1256.964,626.891a2.946,2.946,0,1,1,2.964-2.964A2.947,2.947,0,0,1,1256.964,626.891Zm0-4.39a1.445,1.445,0,1,0,0,2.889,1.445,1.445,0,1,0,0-2.889Z" transform="translate(-1254 -621)" fill="#000002" fill-rule="evenodd"/></g></g><path d="M35.045,81.592H.75a.75.75,0,1,1,0-1.5H34.295v-.375A6.718,6.718,0,0,1,40.936,73a.75.75,0,1,1,0,1.5,5.238,5.238,0,0,0-5.14,5.216v1.126A.753.753,0,0,1,35.045,81.592Z" transform="translate(0 -73)" fill="#000002" fill-rule="evenodd"/><g transform="translate(38.497 4.803)"><path d="M1029.039,207.079a3.039,3.039,0,0,1,0-6.079,3.039,3.039,0,0,1,0,6.079Zm0-4.578a1.522,1.522,0,0,0-1.538,1.538,1.52,1.52,0,1,0,3.039,0A1.514,1.514,0,0,0,1029.039,202.5Z" transform="translate(-1026 -201)" fill="#000002" fill-rule="evenodd"/></g><g transform="translate(46.752 4.803)"><path d="M1249.039,207.079a3.039,3.039,0,1,1,0-6.079,3.039,3.039,0,1,1,0,6.079Zm0-4.578a1.545,1.545,0,0,0-1.538,1.538,1.57,1.57,0,0,0,1.538,1.538,1.545,1.545,0,0,0,1.538-1.538A1.522,1.522,0,0,0,1249.039,202.5Z" transform="translate(-1246 -201)" fill="#000002" fill-rule="evenodd"/></g><g transform="translate(55.045 4.803)"><path d="M1470.039,207.079a3.039,3.039,0,0,1,0-6.079,3.039,3.039,0,0,1,0,6.079Zm0-4.578a1.522,1.522,0,0,0-1.538,1.538,1.52,1.52,0,1,0,3.039,0A1.514,1.514,0,0,0,1470.039,202.5Z" transform="translate(-1467 -201)" fill="#000002" fill-rule="evenodd"/></g><g transform="translate(0 14.183)"><path d="M63.3,452.5H.75a.75.75,0,0,1,0-1.5H63.3a.75.75,0,0,1,0,1.5Z" transform="translate(0 -451)" fill="#000002" fill-rule="evenodd"/></g><path d="M59.322,131.534H4.69A4.692,4.692,0,0,1,0,126.844V77.728A4.7,4.7,0,0,1,4.69,73H59.322a4.732,4.732,0,0,1,4.728,4.728v49.116A4.724,4.724,0,0,1,59.322,131.534ZM4.69,74.5A3.219,3.219,0,0,0,1.5,77.728v49.116a3.187,3.187,0,0,0,3.189,3.189H59.322a3.219,3.219,0,0,0,3.227-3.189V77.728A3.251,3.251,0,0,0,59.322,74.5Z" transform="translate(0 -73)" fill="#000002" fill-rule="evenodd"/></g><path d="M980,1073.62h3.339v-13.508a.12.12,0,0,0-.113-.113h-3.114a.12.12,0,0,0-.113.113Z" transform="translate(-943.229 -949.966)" fill="#e6375a" fill-rule="evenodd"/><path d="M675.339,914.811v-19.7a.169.169,0,0,0-.112-.113h-3.152c-.038,0-.075.075-.075.113v19.7Z" transform="translate(-646.785 -791.157)" fill="#159ce4" fill-rule="evenodd"/><path d="M366.339,1073.62v-13.508a.12.12,0,0,0-.113-.113h-3.114a.169.169,0,0,0-.113.113v13.508Z" transform="translate(-349.38 -949.966)" fill="#e6375a" fill-rule="evenodd"/><path d="M369,874.463a1.434,1.434,0,0,0,1.463,1.426,1.445,1.445,0,1,0,0-2.889A1.442,1.442,0,0,0,369,874.463Z" transform="translate(-355.154 -769.982)" fill="#e6375a" fill-rule="evenodd"/><path d="M677,662.426a1.465,1.465,0,0,0,1.463,1.463,1.445,1.445,0,1,0,0-2.889A1.458,1.458,0,0,0,677,662.426Z" transform="translate(-651.598 -565.937)" fill="#159ce4" fill-rule="evenodd"/><path d="M971.463,873a1.445,1.445,0,1,0,0,2.889,1.445,1.445,0,1,0,0-2.889Z" transform="translate(-933.604 -769.982)" fill="#e6375a" fill-rule="evenodd"/><g transform="translate(48.328 95.063)"><path d="M1294,662.426a1.442,1.442,0,0,0,1.463,1.463,1.445,1.445,0,1,0,0-2.889A1.434,1.434,0,0,0,1294,662.426Z" transform="translate(-1293.775 -661)" fill="#159ce4" fill-rule="evenodd"/><path d="M1291.227,895h-3.114a.169.169,0,0,0-.113.113v19.7h3.339v-19.7A.12.12,0,0,0,1291.227,895Z" transform="translate(-1288 -886.22)" fill="#159ce4" fill-rule="evenodd"/></g></g></svg>