<svg xmlns="http://www.w3.org/2000/svg" width="90.914" height="90.914" viewBox="0 0 90.914 90.914"><g transform="translate(-1261.141 -687.169)"><g transform="translate(1261.141 687.169)"><rect width="90.914" height="90.914" rx="45.457" transform="translate(0.001)" fill="#e8e8e8" opacity="0.859"/><rect width="90.914" height="90.914" rx="45.457" fill="none"/></g><g transform="translate(1272.427 698.626)"><path d="M22.8,58.474l-.01,6.122a1.211,1.211,0,0,1-.709.991,3.8,3.8,0,0,1-3.44,0,1.214,1.214,0,0,1-.716-1l.01-6.122a1.214,1.214,0,0,0,.716,1,3.8,3.8,0,0,0,3.44,0,1.211,1.211,0,0,0,.709-.991Z" fill="#fff"/><path d="M20.366,66.4a3.913,3.913,0,0,1-1.922-.468,1.588,1.588,0,0,1-.916-1.348l.01-6.12v0a.4.4,0,0,1,.4-.4.438.438,0,0,1,.4.4h0c0,.226.188.464.516.653a3.406,3.406,0,0,0,3.039,0c.324-.188.51-.424.51-.646a.4.4,0,0,1,.4-.4.429.429,0,0,1,.4.4h0l-.01,6.121a1.588,1.588,0,0,1-.908,1.337,3.886,3.886,0,0,1-1.918.468Zm-2.03-6.662-.008,4.848c0,.226.188.464.516.653a3.406,3.406,0,0,0,3.039,0c.324-.188.51-.423.51-.646l.008-4.849c-.034.022-.069.044-.105.065a4.175,4.175,0,0,1-3.841,0c-.041-.023-.08-.047-.118-.072Z"/><path d="M22.08,57.467a1.053,1.053,0,0,1,.009,1.994,3.8,3.8,0,0,1-3.44,0,1.052,1.052,0,0,1-.009-1.991,3.786,3.786,0,0,1,3.44,0Z" fill="#fff"/><path d="M20.371,60.276a3.911,3.911,0,0,1-1.922-.468,1.443,1.443,0,0,1-.009-2.683,4.178,4.178,0,0,1,3.841,0,1.444,1.444,0,0,1,.009,2.686,3.89,3.89,0,0,1-1.919.468Zm-.008-2.818a3.109,3.109,0,0,0-1.521.359c-.323.188-.509.424-.508.647s.188.462.516.652a3.408,3.408,0,0,0,3.039,0c.325-.189.511-.425.511-.649s-.189-.463-.518-.653a3.116,3.116,0,0,0-1.518-.356Z"/><path d="M58.242,38.006l-.01,6.122a1.211,1.211,0,0,1-.709.991,3.8,3.8,0,0,1-3.44,0,1.214,1.214,0,0,1-.716-1L53.377,38a1.214,1.214,0,0,0,.716,1,3.8,3.8,0,0,0,3.44,0A1.211,1.211,0,0,0,58.242,38.006Z" fill="#fff"/><path d="M55.8,45.934a3.911,3.911,0,0,1-1.922-.468,1.591,1.591,0,0,1-.916-1.348L52.977,38v0a.4.4,0,0,1,.4-.4h0a.4.4,0,0,1,.4.4h0c0,.226.188.464.516.653a3.406,3.406,0,0,0,3.039,0c.324-.188.51-.424.51-.646a.4.4,0,0,1,.4-.4h0a.4.4,0,0,1,.4.4h0l-.01,6.122a1.589,1.589,0,0,1-.908,1.336,3.889,3.889,0,0,1-1.919.468Zm-2.03-6.662-.008,4.848c0,.226.188.464.516.654a3.408,3.408,0,0,0,3.039,0c.324-.188.51-.424.51-.646l.008-4.849c-.034.022-.069.043-.106.064a4.174,4.174,0,0,1-3.841,0c-.041-.023-.08-.047-.118-.072Z"/><path d="M57.519,37a1.053,1.053,0,0,1,.009,1.994,3.8,3.8,0,0,1-3.44,0A1.052,1.052,0,0,1,54.079,37a3.786,3.786,0,0,1,3.44,0Z" fill="#fff"/><path d="M55.81,39.807a3.911,3.911,0,0,1-1.922-.468,1.443,1.443,0,0,1-.009-2.683,4.178,4.178,0,0,1,3.841,0,1.444,1.444,0,0,1,.009,2.686,3.889,3.889,0,0,1-1.919.468ZM55.8,36.989a3.109,3.109,0,0,0-1.521.359c-.324.188-.509.424-.509.648s.188.462.516.651a3.408,3.408,0,0,0,3.039,0c.325-.189.511-.425.511-.649s-.189-.463-.518-.653a3.116,3.116,0,0,0-1.518-.356Z"/><path d="M11.8,51.695l-.01,6.122a1.211,1.211,0,0,1-.709.991,3.8,3.8,0,0,1-3.44,0,1.214,1.214,0,0,1-.716-1l.01-6.122a1.214,1.214,0,0,0,.716,1,3.8,3.8,0,0,0,3.44,0,1.211,1.211,0,0,0,.709-.991Z" fill="#fff"/><path d="M9.36,59.622a3.913,3.913,0,0,1-1.922-.468,1.588,1.588,0,0,1-.916-1.348l.01-6.12v0a.4.4,0,0,1,.4-.4h0a.4.4,0,0,1,.4.4h0c0,.226.188.464.516.653a3.406,3.406,0,0,0,3.039,0c.324-.188.51-.424.51-.647a.4.4,0,0,1,.4-.4h0a.4.4,0,0,1,.4.4h0l-.01,6.122a1.588,1.588,0,0,1-.908,1.337,3.886,3.886,0,0,1-1.918.468Zm-2.03-6.662-.008,4.848c0,.226.188.464.516.653a3.406,3.406,0,0,0,3.039,0c.324-.188.51-.423.51-.646l.008-4.849c-.034.022-.069.044-.105.065a4.175,4.175,0,0,1-3.841,0c-.041-.023-.08-.047-.118-.072Z"/><path d="M11.075,50.688a1.053,1.053,0,0,1,.009,1.994,3.8,3.8,0,0,1-3.44,0,1.052,1.052,0,0,1-.009-1.991,3.786,3.786,0,0,1,3.44,0Z" fill="#fff"/><path d="M9.365,53.5a3.911,3.911,0,0,1-1.922-.468,1.443,1.443,0,0,1-.009-2.683,4.178,4.178,0,0,1,3.841,0,1.444,1.444,0,0,1,.009,2.686,3.89,3.89,0,0,1-1.919.468Zm-.008-2.818a3.109,3.109,0,0,0-1.521.359c-.323.188-.509.424-.508.647s.188.462.516.652a3.408,3.408,0,0,0,3.039,0c.325-.189.511-.425.511-.649s-.189-.463-.518-.653a3.116,3.116,0,0,0-1.518-.356Z"/><path d="M49.523,32.972l-.01,6.122a1.211,1.211,0,0,1-.709.991,3.8,3.8,0,0,1-3.44,0,1.214,1.214,0,0,1-.716-1l.01-6.122a1.214,1.214,0,0,0,.716,1,3.8,3.8,0,0,0,3.44,0A1.211,1.211,0,0,0,49.523,32.972Z" fill="#ffd63c"/><path d="M47.086,40.9a3.911,3.911,0,0,1-1.922-.468,1.591,1.591,0,0,1-.916-1.348l.01-6.122h0a.4.4,0,0,1,.4-.4h0a.4.4,0,0,1,.4.4h0c0,.226.188.464.516.653a3.406,3.406,0,0,0,3.039,0c.324-.188.51-.424.51-.646a.4.4,0,0,1,.4-.4h0a.4.4,0,0,1,.4.4h0l-.01,6.122A1.589,1.589,0,0,1,49,40.431a3.889,3.889,0,0,1-1.919.468Zm-2.03-6.662-.008,4.848c0,.226.188.464.516.654a3.408,3.408,0,0,0,3.039,0c.324-.188.51-.424.51-.646l.008-4.849c-.034.022-.069.043-.106.064a4.173,4.173,0,0,1-3.84,0c-.041-.024-.081-.048-.119-.073Z"/><path d="M48.8,31.965a1.053,1.053,0,0,1,.009,1.994,3.8,3.8,0,0,1-3.44,0,1.052,1.052,0,0,1-.009-1.991,3.786,3.786,0,0,1,3.44,0Z" fill="#fff"/><path d="M47.091,34.773a3.911,3.911,0,0,1-1.922-.468,1.444,1.444,0,0,1-.01-2.683,4.179,4.179,0,0,1,3.842,0A1.444,1.444,0,0,1,49.01,34.3a3.889,3.889,0,0,1-1.919.468Zm-.008-2.818a3.109,3.109,0,0,0-1.521.359c-.323.188-.509.424-.508.647s.188.462.516.652a3.408,3.408,0,0,0,3.039,0c.325-.188.511-.425.51-.648s-.189-.464-.518-.654a3.116,3.116,0,0,0-1.518-.356Z"/><path d="M57.038,9.441c2.838-1.638,5.138-.32,5.148,2.94l.058,20.294a11.268,11.268,0,0,1-5.114,8.858L22.551,61.5c-2.832,1.635-5.138.32-5.147-2.934L17.346,38.27a11.28,11.28,0,0,1,5.114-8.865Z" fill="#fff"/><path d="M62.248,32.68a11.271,11.271,0,0,1-5.12,8.85L22.548,61.5c-2.83,1.63-5.14.32-5.14-2.94l-.02-7.74a37.172,37.172,0,0,0,19.27-.46c15.79-4.43,25.98-17.26,22.78-28.67a17.145,17.145,0,0,0-7.13-9.52l4.73-2.73c2.84-1.64,5.14-.32,5.15,2.94Z" fill="#e9edf4"/><path d="M22.577,38.256a6.172,6.172,0,0,1,2.5-4.32L53.43,17.564a2.364,2.364,0,0,1,3.545,2.04l.037,13.087A6.163,6.163,0,0,1,54.514,37L26.159,53.375a2.364,2.364,0,0,1-3.545-2.04Z" fill="#fff"/><path d="M57.008,32.69A6.155,6.155,0,0,1,54.518,37L26.158,53.37a2.357,2.357,0,0,1-3.54-2.04l-.01-4.81a33.7,33.7,0,0,0,13.38-1.49c12.67-3.97,20.86-13.91,18.27-22.18a10.86,10.86,0,0,0-2.57-4.28l1.74-1.01a2.371,2.371,0,0,1,3.55,2.04Z" fill="#e9edf4"/><path d="M20.25,62.6a3.046,3.046,0,0,1-1.54-.4A3.959,3.959,0,0,1,17,58.565l-.058-20.294a11.735,11.735,0,0,1,5.313-9.212L56.838,9.1a4,4,0,0,1,4.04-.364,3.969,3.969,0,0,1,1.708,3.649l.058,20.294A11.728,11.728,0,0,1,57.33,41.88L22.751,61.844a5.071,5.071,0,0,1-2.5.759ZM59.339,9.135a4.294,4.294,0,0,0-2.1.652L22.66,29.752a10.852,10.852,0,0,0-4.914,8.518L17.8,58.563a3.212,3.212,0,0,0,1.306,2.949,3.254,3.254,0,0,0,3.241-.361L56.929,41.188a10.846,10.846,0,0,0,4.915-8.511l-.058-20.294a3.222,3.222,0,0,0-1.307-2.958,2.253,2.253,0,0,0-1.14-.289Zm-2.3.306h.01Z"/><path d="M5.756,31.537l.057,20.289a3.553,3.553,0,0,0,1.5,3.288L18.9,61.853a3.553,3.553,0,0,1-1.5-3.288l-.057-20.3a9.828,9.828,0,0,1,1-4.081L6.762,27.448a9.851,9.851,0,0,0-1.005,4.09Z" fill="#f4c531"/><path d="M49.093,2.349a3.614,3.614,0,0,0-3.648.351L10.864,22.667a10.9,10.9,0,0,0-4.1,4.78l11.593,6.737a10.91,10.91,0,0,1,4.1-4.78L57.038,9.438a3.591,3.591,0,0,1,3.648-.351Z" fill="#ffd63c"/><path d="M11.958,57.81l-4.65-2.7a3.531,3.531,0,0,1-1.49-3.28l-.06-20.29a9.835,9.835,0,0,1,1-4.09l4.83,2.8c0,.01-.01.01-.01.02a9.677,9.677,0,0,0-1,4.08l.05,20.29a3.62,3.62,0,0,0,1.33,3.17Z" fill="#e8b72d"/><path d="M60.6,9.04l-.09-.03-6.6-3.84a3.6,3.6,0,0,0-3.65.35L15.678,25.48a10.949,10.949,0,0,0-4.09,4.77l-4.83-2.8a10.948,10.948,0,0,1,4.11-4.78L45.448,2.7a3.586,3.586,0,0,1,3.64-.35Z" fill="#e8b72d"/><path d="M18.9,62.253a.393.393,0,0,1-.2-.053l-.035-.02L7.109,55.461a3.931,3.931,0,0,1-1.7-3.634L5.356,31.538A10.212,10.212,0,0,1,6.4,27.279a.4.4,0,0,1,.243-.213.394.394,0,0,1,.321.036L18.556,33.84a.4.4,0,0,1,.161.515,9.4,9.4,0,0,0-.967,3.91l.057,20.3a3.207,3.207,0,0,0,1.269,2.927l.029.017a.4.4,0,0,1-.2.746ZM6.946,28.017a9.126,9.126,0,0,0-.79,3.519l.057,20.289a3.185,3.185,0,0,0,1.3,2.942l9.8,5.7a5.57,5.57,0,0,1-.3-1.9l-.057-20.3a9.954,9.954,0,0,1,.892-3.917Z"/><path d="M18.355,34.585a.4.4,0,0,1-.2-.054L6.561,27.793a.4.4,0,0,1-.161-.515,11.23,11.23,0,0,1,4.265-4.958L45.244,2.354A3.993,3.993,0,0,1,49.3,2L60.853,8.721l.037.021a.4.4,0,0,1-.4.69l-.03-.018a3.244,3.244,0,0,0-3.217.369L22.658,29.751a10.425,10.425,0,0,0-3.941,4.6.4.4,0,0,1-.362.231Zm-11.072-7.3,10.9,6.335a11.054,11.054,0,0,1,4.074-4.564L56.838,9.092a5.633,5.633,0,0,1,1.851-.7L48.892,2.7h0a3.244,3.244,0,0,0-3.247.354L11.065,23.013a10.267,10.267,0,0,0-3.781,4.274Z"/><path d="M24.977,54.1a2.773,2.773,0,0,1-2.763-2.76l-.037-13.079h0a6.551,6.551,0,0,1,2.7-4.668L53.23,17.218A2.763,2.763,0,0,1,57.376,19.6l.038,13.087a6.548,6.548,0,0,1-2.7,4.66L26.359,53.721a2.755,2.755,0,0,1-1.382.375ZM54.612,17.644a1.96,1.96,0,0,0-.981.266L25.276,34.282a5.778,5.778,0,0,0-2.3,3.973h0l.037,13.079a1.964,1.964,0,0,0,2.945,1.7L54.314,36.657a5.773,5.773,0,0,0,2.3-3.965l-.038-13.087a1.972,1.972,0,0,0-1.964-1.961Z"/><path d="M28.571,37.384a.341.341,0,0,1,.351-.037.336.336,0,0,1,.145.319l.019,6.684,1.021-.589a.3.3,0,0,1,.313-.032.3.3,0,0,1,.13.285.837.837,0,0,1-.128.428.891.891,0,0,1-.313.323L26.928,46.6a.309.309,0,0,1-.311.037.3.3,0,0,1-.123-.284.859.859,0,0,1,.121-.43.841.841,0,0,1,.31-.328l1.224-.707-.017-6-1.049,1.2a1.179,1.179,0,0,1-.236.2.323.323,0,0,1-.321.045.316.316,0,0,1-.123-.3.971.971,0,0,1,.264-.639l1.4-1.648a1.178,1.178,0,0,1,.288-.249Z"/><path d="M34.871,33.629a2.58,2.58,0,0,1,1.2-.393,1.061,1.061,0,0,1,.857.354,1.6,1.6,0,0,1,.317,1.072,3.731,3.731,0,0,1-.351,1.5,9.948,9.948,0,0,1-.846,1.538c-.329.49-.756,1.082-1.284,1.782q-.717.972-1.083,1.52a4.154,4.154,0,0,0-.507.987l3.581-2.068a.3.3,0,0,1,.313-.032.294.294,0,0,1,.13.285.818.818,0,0,1-.128.428.875.875,0,0,1-.313.323l-3.974,2.294a.394.394,0,0,1-.39.054q-.157-.081-.158-.355a3.2,3.2,0,0,1,.312-1.315,8.642,8.642,0,0,1,.757-1.358q.45-.654,1.177-1.62.628-.826,1-1.358a7.4,7.4,0,0,0,.616-1.053,2.251,2.251,0,0,0,.244-.947c0-.451-.131-.73-.388-.848s-.672-.01-1.243.32a7.5,7.5,0,0,0-1.757,1.441.8.8,0,0,1-.2.173.267.267,0,0,1-.279.029.281.281,0,0,1-.115-.265.878.878,0,0,1,.227-.569,8.936,8.936,0,0,1,2.283-1.921Z"/><path d="M39.814,33.28a.388.388,0,0,1,.17.371v.071a1.106,1.106,0,0,1-.168.563,1.133,1.133,0,0,1-.407.432l-.1.059a.353.353,0,0,1-.578-.329v-.071a1.267,1.267,0,0,1,.574-.995l.1-.059A.4.4,0,0,1,39.814,33.28Z"/><path d="M39.419,38.027a.392.392,0,0,1,.408-.038.383.383,0,0,1,.17.368v.071a1.267,1.267,0,0,1-.574.995l-.1.059a.352.352,0,0,1-.578-.329v-.071a1.279,1.279,0,0,1,.574-.995Z"/><path d="M45.992,28.358a3.832,3.832,0,0,1,.729,2.681,8.29,8.29,0,0,1-.712,3.515A5.037,5.037,0,0,1,43.944,36.9q-1.36.785-2.077.05a3.861,3.861,0,0,1-.724-2.686,8.3,8.3,0,0,1,.707-3.51,5.021,5.021,0,0,1,2.071-2.345q1.349-.779,2.072-.047Zm-.68,5.89a6.817,6.817,0,0,0,.473-2.668,3.418,3.418,0,0,0-.486-2.1c-.319-.39-.78-.413-1.376-.069a3.29,3.29,0,0,0-1.371,1.655,6.783,6.783,0,0,0-.473,2.654,3.445,3.445,0,0,0,.486,2.115c.319.39.777.415,1.376.069a3.3,3.3,0,0,0,1.371-1.655"/><path d="M52.457,24.626a3.832,3.832,0,0,1,.729,2.681,8.29,8.29,0,0,1-.712,3.515,5.043,5.043,0,0,1-2.066,2.342q-1.36.785-2.08.051a3.861,3.861,0,0,1-.724-2.686,8.3,8.3,0,0,1,.707-3.51,5.029,5.029,0,0,1,2.073-2.346q1.345-.776,2.072-.047Zm-.68,5.89a6.857,6.857,0,0,0,.473-2.668,3.439,3.439,0,0,0-.486-2.1c-.322-.389-.78-.413-1.376-.069a3.3,3.3,0,0,0-1.373,1.656,6.824,6.824,0,0,0-.473,2.654,3.466,3.466,0,0,0,.486,2.115c.322.389.78.413,1.378.068a3.3,3.3,0,0,0,1.371-1.655"/></g></g></svg>