<svg xmlns="http://www.w3.org/2000/svg" width="58.759" height="48.933" viewBox="0 0 58.759 48.933"><g transform="translate(-1.598 -7.017)"><g transform="translate(1.598 8.183)"><g transform="translate(0.363 0.368)"><path d="M16.568,10.918c-1.229-.716-2.939-.62-4.821.47A14.886,14.886,0,0,0,5,23.071c0,2.138.759,3.634,1.978,4.34l-3-1.742C2.758,24.963,2,23.456,2,21.318A14.874,14.874,0,0,1,8.744,9.635c1.881-1.08,3.591-1.186,4.821-.47Z" transform="translate(-1.999 -8.709)" fill="#ffd63c"/></g><g transform="translate(0.363 0.367)"><path d="M18.538,15.256a14.859,14.859,0,0,1-6.746,11.688c-1.886,1.088-3.591,1.179-4.824.462L3.976,25.665C2.76,24.967,2,23.452,2,21.322A14.873,14.873,0,0,1,8.745,9.634c1.877-1.079,3.591-1.188,4.824-.472l2.938,1.723c1.251.689,2.031,2.2,2.031,4.37Z" transform="translate(-1.999 -8.707)" fill="#ffd63c"/></g><path d="M8.724,28.2a3.877,3.877,0,0,1-1.976-.514L3.755,25.941C2.386,25.153,1.6,23.455,1.6,21.284a15.291,15.291,0,0,1,6.929-12C10.47,8.165,12.312,8,13.714,8.811l2.939,1.723c1.422.783,2.21,2.447,2.211,4.682a15.279,15.279,0,0,1-6.928,12,6.523,6.523,0,0,1-3.212.976ZM11.75,9.028a5.86,5.86,0,0,0-2.862.882A14.488,14.488,0,0,0,2.325,21.283c0,1.906.653,3.374,1.794,4.03l2.995,1.742c1.173.682,2.758.519,4.459-.463a14.472,14.472,0,0,0,6.565-11.372h0c0-1.959-.654-3.4-1.844-4.052L13.348,9.438a3.136,3.136,0,0,0-1.6-.41Zm7.113,6.19h.009Z" transform="translate(-1.598 -8.303)"/><g transform="translate(3.003 1.749)"><path d="M12.059,11.565c3.737-2.158,6.78-.428,6.792,3.866A14.873,14.873,0,0,1,12.1,27.12c-3.737,2.158-6.78.428-6.792-3.871a14.872,14.872,0,0,1,6.748-11.684Z" transform="translate(-4.947 -10.27)" fill="#fff"/><path d="M9.027,28.376a3.856,3.856,0,0,1-1.948-.5c-1.393-.8-2.162-2.457-2.169-4.663a15.292,15.292,0,0,1,6.93-12c1.931-1.115,3.767-1.287,5.169-.479s2.161,2.455,2.169,4.658a15.3,15.3,0,0,1-6.93,12,6.536,6.536,0,0,1-3.22.981Zm6.03-17.417a5.823,5.823,0,0,0-2.855.882A14.487,14.487,0,0,0,5.636,23.21c.005,1.936.646,3.369,1.8,4.036s2.747.5,4.443-.478a14.491,14.491,0,0,0,6.567-11.374c-.005-1.933-.646-3.365-1.8-4.031a3.146,3.146,0,0,0-1.589-.4Zm-3.036.568h.009Z" transform="translate(-4.91 -10.232)"/></g><g transform="translate(4.762 4.141)"><g transform="translate(0.363 0.363)"><path d="M60.429,48.9a1.819,1.819,0,0,1-2.886.57,2.74,2.74,0,0,1-.48,3.318,4.165,4.165,0,0,1-3.713.87,9.937,9.937,0,0,1-3.523-1.7l-.015-.015a3.378,3.378,0,0,1-2.873,4.221,6.264,6.264,0,0,1-2.6-.58q-6.74-2.521-13.451-5.059a.015.015,0,0,1-.01,0,1.6,1.6,0,0,1-.11.14,2.478,2.478,0,0,1-2.226.555,3.6,3.6,0,0,1-.58-.088c-.61-.13-1.205-.275-1.8-.448-.375-.1-.738-.218-1.1-.35a.335.335,0,0,1-.117-.028c-.405-.145-.813-.305-1.2-.465a2.29,2.29,0,0,1-.29-.13c-.423-.175-.828-.363-1.233-.565A24.661,24.661,0,0,1,11.24,38.6a9.151,9.151,0,0,1-1.115-3.193c-.19-1.783.493-3.641-.03-5.351a6.11,6.11,0,0,0-.58-1.248c-.45-.755-1.015-1.435-1.48-2.161a5.744,5.744,0,0,1-.565-1.06,2.991,2.991,0,0,1-.188-.653,2.724,2.724,0,0,1-.03-.363,13.86,13.86,0,0,1,6.224-10.488,5.714,5.714,0,0,1,2.566-.813h.045a3.414,3.414,0,0,1,.39.03.09.09,0,0,1,.06.015,11.345,11.345,0,0,1,3.278.943,55.34,55.34,0,0,1,9.5,4.526c4.934,3.176,8.732,7.874,13.593,11.183,4.046,2.771,8.775,4.541,12.431,7.789A4.5,4.5,0,0,1,57.193,41a2.014,2.014,0,0,1-2.088,1.843,14.909,14.909,0,0,1,4.221,3.118c.74.8,1.45,1.885,1.1,2.931Z" transform="translate(-7.251 -13.27)" fill="#fff"/></g><g transform="translate(0.362 0.768)"><path d="M60.429,48.935a1.816,1.816,0,0,1-2.884.571,2.749,2.749,0,0,1-.481,3.319,4.171,4.171,0,0,1-3.717.871A9.883,9.883,0,0,1,49.829,52l-.019-.018a3.381,3.381,0,0,1-2.874,4.225,6.418,6.418,0,0,1-2.593-.58Q37.6,53.1,30.888,50.567h-.009l-.109.136a2.478,2.478,0,0,1-2.221.553,2.9,2.9,0,0,1-.58-.082c-.616-.136-1.206-.281-1.8-.453-.372-.1-.735-.218-1.1-.345a.556.556,0,0,1-.118-.027c-.408-.145-.816-.308-1.206-.472a2.011,2.011,0,0,1-.29-.127c-.417-.172-.825-.363-1.233-.562a24.692,24.692,0,0,1-10.98-10.545,9.287,9.287,0,0,1-1.115-3.2c-.19-1.777.49-3.636-.027-5.35a6.486,6.486,0,0,0-.58-1.242c-.453-.762-1.016-1.442-1.478-2.167a5.705,5.705,0,0,1-.571-1.061,2.883,2.883,0,0,1-.182-.653,2.118,2.118,0,0,1-.036-.354,13.876,13.876,0,0,1,6.229-10.491,6.51,6.51,0,0,1,.843-.408c-5.4,10.69.127,24.953,12.767,32.379,10.917,6.42,23.7,5.7,31.309-.988a10.829,10.829,0,0,1,.925.9c.744.8,1.451,1.886,1.106,2.929Z" transform="translate(-7.249 -13.718)" fill="#e9edf4"/></g><path d="M46.685,56.5a7.217,7.217,0,0,1-2.509-.611q-6.62-2.476-13.216-4.97a2.825,2.825,0,0,1-2.5.624,3.8,3.8,0,0,1-.617-.094c-.649-.139-1.247-.287-1.817-.452-.365-.1-.721-.213-1.079-.341a.68.68,0,0,1-.136-.035c-.435-.155-.847-.317-1.243-.479a2.5,2.5,0,0,1-.332-.151c-.389-.158-.8-.349-1.214-.556a24.96,24.96,0,0,1-11.141-10.7,9.542,9.542,0,0,1-1.156-3.325,11.576,11.576,0,0,1,.068-2.346,7.53,7.53,0,0,0-.085-2.937,5.714,5.714,0,0,0-.545-1.168c-.244-.409-.531-.808-.81-1.193-.228-.317-.456-.632-.664-.957a6.2,6.2,0,0,1-.6-1.126,3.23,3.23,0,0,1-.206-.718,3.18,3.18,0,0,1-.036-.428,14.242,14.242,0,0,1,6.4-10.8A6.09,6.09,0,0,1,16,12.87h0a3.923,3.923,0,0,1,.483.032.451.451,0,0,1,.074.016,11.689,11.689,0,0,1,3.351.963,55.578,55.578,0,0,1,9.568,4.56,54.919,54.919,0,0,1,7.135,5.819,59.4,59.4,0,0,0,6.466,5.369c1.6,1.1,3.348,2.055,5.036,2.982a39.745,39.745,0,0,1,7.432,4.836c.875.781,2.03,2,1.976,3.532a2.375,2.375,0,0,1-.913,1.7,2.489,2.489,0,0,1-.462.3,15.114,15.114,0,0,1,3.41,2.7c1.114,1.2,1.512,2.307,1.184,3.294a0,0,0,0,0,0,0,1.965,1.965,0,0,1-1.486,1.241,2.373,2.373,0,0,1-1.059-.006,3.2,3.2,0,0,1-.913,2.8,4.532,4.532,0,0,1-4.04.964,8.977,8.977,0,0,1-2.968-1.3,3.759,3.759,0,0,1-.673,2.213,3.568,3.568,0,0,1-2.674,1.6c-.079.005-.159.008-.237.008Zm-15.74-6.36a.272.272,0,0,1,.038.012q6.717,2.542,13.45,5.058a5.979,5.979,0,0,0,2.444.558,3.016,3.016,0,0,0,2.553-3.747.363.363,0,0,1,.6-.368,9.384,9.384,0,0,0,3.354,1.614,3.8,3.8,0,0,0,3.39-.777,2.37,2.37,0,0,0,.428-2.857.363.363,0,0,1,.567-.448,1.433,1.433,0,0,0,1.325.329,1.249,1.249,0,0,0,.955-.765c.295-.892-.395-1.889-1.025-2.569a14.438,14.438,0,0,0-4.117-3.04.363.363,0,0,1-.183-.437.356.356,0,0,1,.406-.245,1.356,1.356,0,0,0,1.019-.338,1.643,1.643,0,0,0,.645-1.162c.033-.935-.519-1.877-1.735-2.963a39.172,39.172,0,0,0-7.3-4.742c-1.7-.935-3.463-1.9-5.094-3.019A59.888,59.888,0,0,1,36.119,24.8a54.457,54.457,0,0,0-7.039-5.745,54.976,54.976,0,0,0-9.438-4.494,11.082,11.082,0,0,0-3.171-.918.365.365,0,0,1-.1-.021c-.128-.013-.228-.023-.327-.023a5.373,5.373,0,0,0-2.435.767A13.442,13.442,0,0,0,7.576,24.545a2.3,2.3,0,0,0,.189.859A5.576,5.576,0,0,0,8.3,26.411c.2.314.421.619.643.925.287.4.584.81.845,1.247A6.439,6.439,0,0,1,10.4,29.9a8.188,8.188,0,0,1,.114,3.225,11.123,11.123,0,0,0-.069,2.2,8.9,8.9,0,0,0,1.078,3.065A24.236,24.236,0,0,0,22.344,48.78c.4.2.8.385,1.213.557a1.705,1.705,0,0,0,.215.1c.459.188.861.346,1.261.489a.347.347,0,0,1,.119.028c.354.129.707.241,1.072.341.559.162,1.14.306,1.78.443a3.31,3.31,0,0,0,.531.08,2.213,2.213,0,0,0,1.929-.434,1.286,1.286,0,0,0,.082-.105.363.363,0,0,1,.266-.155.371.371,0,0,1,.133.013Zm-.1.348h.009Zm29.548-1.625H60.4Z" transform="translate(-6.85 -12.87)"/><g transform="translate(32.248 26.541)"><path d="M60.823,52.521a.364.364,0,0,1-.29-.144c-.031-.041-3.264-4.152-17.88-9.532a.363.363,0,0,1,.25-.681c14.889,5.481,18.082,9.606,18.212,9.779a.363.363,0,0,1-.291.578Z" transform="translate(-42.415 -42.141)"/></g><g transform="translate(27.039 29.463)"><path d="M52.563,55.307a.363.363,0,0,1-.307-.17c-.028-.045-2.952-4.508-15.347-9.07a.363.363,0,0,1,.251-.681c12.682,4.669,15.594,9.178,15.712,9.368a.362.362,0,0,1-.116.5.357.357,0,0,1-.192.055Z" transform="translate(-36.671 -45.363)"/></g><g transform="translate(35.096 22.943)"><path d="M58.7,45.543a.361.361,0,0,1-.228-.081c-.061-.05-6.195-4.969-12.641-6.575a.363.363,0,0,1,.175-.7c6.6,1.646,12.86,6.665,12.923,6.715a.363.363,0,0,1-.228.645Z" transform="translate(-45.556 -38.173)"/></g><g transform="translate(13.898 22.798)"><path d="M32.164,53.332a.362.362,0,0,1-.273-.6c.019-.022.038-.045.056-.069a6.785,6.785,0,0,0-.267-3.187,7.96,7.96,0,0,0-1.817-2.815,13.434,13.434,0,0,0-2.707-2.1c-.2-.1-.415-.214-.635-.332-.3-.16-.593-.319-.9-.462l-.122-.053a5.582,5.582,0,0,1-2.956-2.842,3.034,3.034,0,0,1-.082-2.675.363.363,0,1,1,.632.355,2.331,2.331,0,0,0,.1,2,4.879,4.879,0,0,0,2.592,2.493l.132.057c.327.153.635.318.944.484.213.115.427.23.646.34a14.329,14.329,0,0,1,2.876,2.228,8.68,8.68,0,0,1,1.978,3.08,7.387,7.387,0,0,1,.274,3.668.358.358,0,0,1-.119.2c-.027.036-.055.07-.083.1a.36.36,0,0,1-.273.124Z" transform="translate(-22.178 -38.013)"/></g></g><g transform="translate(19.728 38.055)"><path d="M30.078,54.712a3.887,3.887,0,0,1-.579-.089,23.952,23.952,0,0,1-5.744-1.989,5.373,5.373,0,0,1,.3-.668,2.239,2.239,0,0,1,.475-.7,1.837,1.837,0,0,1,.549-.356,4.351,4.351,0,0,1,3.087.1,4.377,4.377,0,0,1,1.1.52,1.917,1.917,0,0,1,.727.95,2.842,2.842,0,0,1,.089.713,8.6,8.6,0,0,1,0,1.514Z" transform="translate(-23.393 -50.309)" fill="#fff"/><path d="M30.041,55.038h-.028a4.266,4.266,0,0,1-.631-.1,24.278,24.278,0,0,1-5.824-2.017.362.362,0,0,1-.185-.432,3.774,3.774,0,0,1,.234-.549l.081-.166a2.541,2.541,0,0,1,.556-.808,2.179,2.179,0,0,1,.644-.42,4.625,4.625,0,0,1,3.358.09,4.718,4.718,0,0,1,1.187.565,2.285,2.285,0,0,1,.868,1.141,2.551,2.551,0,0,1,.1.683l.006.114a8.867,8.867,0,0,1,0,1.578.363.363,0,0,1-.36.32ZM24.18,52.418a23.6,23.6,0,0,0,5.357,1.812c.058.013.115.025.171.036.014-.361-.008-.727-.029-1.084l-.006-.122a1.919,1.919,0,0,0-.065-.5,1.559,1.559,0,0,0-.6-.772,4.088,4.088,0,0,0-1-.47,3.942,3.942,0,0,0-2.826-.114,1.5,1.5,0,0,0-.437.28,1.864,1.864,0,0,0-.4.6l-.088.179c-.026.052-.051.1-.076.156Z" transform="translate(-23.356 -50.272)"/></g></g><g transform="translate(24.504 7.017)"><g transform="translate(15.729 9.234)"><path d="M59.519,17.2l-.043,16.491L44.207,42.566l.043-16.491Z" transform="translate(-44.207 -17.201)" fill="#fff"/></g><g transform="translate(15.73 9.23)"><path d="M59.52,17.2l-.046,16.5L44.208,42.561l.009-4.428q.37.027.74.027c6.857,0,12.417-5.022,12.417-11.221a10.511,10.511,0,0,0-2.666-6.948Z" transform="translate(-44.208 -17.197)" fill="#e9edf4"/></g><g transform="translate(15.366 8.871)"><path d="M44.169,42.891a.363.363,0,0,1-.363-.363l.043-16.491a.364.364,0,0,1,.181-.313L59.3,16.85a.363.363,0,0,1,.545.314L59.8,33.656a.364.364,0,0,1-.181.313L44.352,42.842a.364.364,0,0,1-.182.049Zm.406-16.645L44.533,41.9l14.543-8.451L59.117,17.8Z" transform="translate(-43.806 -16.801)"/></g><g transform="translate(0.363 9.236)"><path d="M42.67,26.075l-.043,16.491L27.261,33.695,27.3,17.2Z" transform="translate(-27.261 -17.203)" fill="#ffd63c"/></g><g transform="translate(0.364 9.239)"><path d="M42.646,37.129l-.018,5.433L27.262,33.7l.045-16.489,5.515,3.186a9.394,9.394,0,0,0-3.25,7.012c0,5.46,4.949,9.888,11.057,9.888a12.281,12.281,0,0,0,2.018-.164Z" transform="translate(-27.262 -17.207)" fill="#f4c531"/></g><g transform="translate(0 8.873)"><path d="M42.589,42.891a.36.36,0,0,1-.182-.049L27.042,33.971a.363.363,0,0,1-.182-.315L26.9,17.165a.364.364,0,0,1,.182-.313.36.36,0,0,1,.362,0l15.366,8.872a.363.363,0,0,1,.182.315l-.043,16.491a.364.364,0,0,1-.182.313.359.359,0,0,1-.181.048Zm-15-9.443L42.228,41.9l.042-15.655L27.628,17.793Z" transform="translate(-26.86 -16.803)"/></g><g transform="translate(0.407 0.363)"><path d="M57.943,16.289,42.674,25.162,27.309,16.29,42.577,7.417Z" transform="translate(-27.309 -7.417)" fill="#fff"/></g><g transform="translate(0.41 6.491)"><path d="M57.944,16.915,42.678,25.79,27.312,16.924l4.73-2.748c1.634,4.127,6.09,7.085,11.3,7.085a12.133,12.133,0,0,0,11.02-6.41Z" transform="translate(-27.312 -14.176)" fill="#e9edf4"/></g><g transform="translate(0.043)"><path d="M42.637,25.487a.36.36,0,0,1-.182-.049L27.09,16.567a.362.362,0,0,1,0-.627L42.357,7.067a.361.361,0,0,1,.364,0l15.366,8.871a.362.362,0,0,1,0,.627L42.819,25.438A.364.364,0,0,1,42.637,25.487ZM27.995,16.252l14.642,8.453,14.546-8.453L42.54,7.8Z" transform="translate(-26.908 -7.017)"/></g></g></g></svg>