<svg xmlns="http://www.w3.org/2000/svg" width="41.392" height="48.933" viewBox="0 0 41.392 48.933"><g transform="translate(-6.592 -1.599)"><g transform="translate(21.951 40.648)"><path d="M33.758,60.991,29.7,58.627a.533.533,0,0,1-.219-.257l-1.926-4.4a.569.569,0,0,0-.219-.257l4.063,2.364a.5.5,0,0,1,.219.257l1.926,4.4a.533.533,0,0,0,.219.257Z" transform="translate(-27.03 -53.409)" fill="#ffd63c"/><path d="M33.66,61.195a.3.3,0,0,1-.152-.041L29.446,58.79a.833.833,0,0,1-.344-.4l-1.926-4.4a.273.273,0,0,0-.094-.117h0a.3.3,0,0,1,.3-.522l4.063,2.364a.788.788,0,0,1,.344.4l1.926,4.4a.237.237,0,0,0,.094.117.3.3,0,0,1-.152.563Zm-5.636-6.772,1.632,3.729a.23.23,0,0,0,.095.117l3.119,1.815-1.631-3.729c-.038-.086-.07-.1-.085-.111Z" transform="translate(-26.932 -53.311)"/></g><g transform="translate(10.962 4.264)"><path d="M45.453,5.62c1.984-1.145,3.584-.222,3.59,2.046l.056,19.72a7.853,7.853,0,0,1-3.567,6.178l-11,6.353a2.191,2.191,0,0,0-.919,1.251l-1.895,6.606a2.151,2.151,0,0,1-.916,1.247c-.376.217-.753.2-.92-.186l-1.926-4.4c-.149-.35-.518-.422-.923-.188l-11,6.353c-1.979,1.142-3.584.228-3.59-2.046l-.056-19.72a7.853,7.853,0,0,1,3.567-6.178Z" transform="translate(-12.379 -5.128)" fill="#fff"/></g><g transform="translate(10.66 3.96)"><path d="M14.318,51.3a2.147,2.147,0,0,1-1.083-.279,2.787,2.787,0,0,1-1.2-2.562l-.056-19.72A8.207,8.207,0,0,1,15.7,22.3L45.2,5.26A2.811,2.811,0,0,1,48.047,5a2.787,2.787,0,0,1,1.2,2.562l.056,19.72a8.207,8.207,0,0,1-3.718,6.44l-11,6.353a1.884,1.884,0,0,0-.779,1.072l-1.9,6.607a2.461,2.461,0,0,1-1.055,1.425,1.07,1.07,0,0,1-.859.139.808.808,0,0,1-.489-.466l-1.925-4.4a.2.2,0,0,0-.124-.132.49.49,0,0,0-.372.084l-11,6.353a3.567,3.567,0,0,1-1.76.535ZM45.506,5.783,16,22.819a7.54,7.54,0,0,0-3.416,5.916l.056,19.72a2.223,2.223,0,0,0,.9,2.04,2.251,2.251,0,0,0,2.239-.254l11-6.353a1.061,1.061,0,0,1,.866-.134.81.81,0,0,1,.486.465l1.924,4.4c.048.109.105.128.124.134a.51.51,0,0,0,.369-.088,1.866,1.866,0,0,0,.777-1.069l1.9-6.606a2.488,2.488,0,0,1,1.058-1.429l11-6.353A7.54,7.54,0,0,0,48.7,27.288l-.056-19.72a2.222,2.222,0,0,0-.9-2.04,2.248,2.248,0,0,0-2.239.254Z" transform="translate(-11.979 -4.725)"/></g><g transform="translate(14.133 9.158)"><path d="M16.579,30.413a4.727,4.727,0,0,1,1.981-3.423l26.323-15.2a1.352,1.352,0,0,1,2.028,1.167l.046,16.022A4.729,4.729,0,0,1,44.975,32.4L18.652,47.6a1.352,1.352,0,0,1-2.028-1.167Z" transform="translate(-16.579 -11.609)" fill="#fff"/></g><g transform="translate(14.158 9.157)"><path d="M46.968,28.978a4.754,4.754,0,0,1-1.986,3.428L18.659,47.6a1.348,1.348,0,0,1-2.024-1.163l-.023-7.461c1.163.106,2.356.166,3.572.166,13.554,0,24.541-7.181,24.541-16.046a12.471,12.471,0,0,0-4.07-8.858l4.236-2.447a1.356,1.356,0,0,1,2.031,1.17Z" transform="translate(-16.612 -11.608)" fill="#e9edf4"/></g><g transform="translate(13.831 8.855)"><path d="M17.878,47.989a1.66,1.66,0,0,1-1.654-1.652l-.046-16.022A5,5,0,0,1,18.31,26.63l26.324-15.2a1.654,1.654,0,0,1,2.481,1.428l.045,16.022a5.007,5.007,0,0,1-2.132,3.685l-26.323,15.2a1.65,1.65,0,0,1-.827.224Zm-1.1-17.676.046,16.022a1.051,1.051,0,0,0,1.575.907l26.323-15.2a4.442,4.442,0,0,0,1.831-3.161l-.045-16.022a1.051,1.051,0,0,0-1.575-.907l-26.324,15.2a4.44,4.44,0,0,0-1.83,3.161Z" transform="translate(-16.178 -11.208)"/></g><g transform="translate(6.592 1.599)"><g transform="translate(0 20.831)"><g transform="translate(0.302 0.302)"><path d="M6.992,32.459l.06,19.724a2.507,2.507,0,0,0,1.042,2.3l4.062,2.364a2.507,2.507,0,0,1-1.042-2.3l-.053-19.724a6.861,6.861,0,0,1,.714-2.874l-4.07-2.363a6.855,6.855,0,0,0-.715,2.873Z" transform="translate(-6.992 -29.586)" fill="#f4c531"/></g><path d="M12.059,57.046a.3.3,0,0,1-.152-.041L7.845,54.642a2.792,2.792,0,0,1-1.192-2.557l-.06-19.723a7.13,7.13,0,0,1,.744-3,.3.3,0,0,1,.183-.159.3.3,0,0,1,.242.027L11.83,31.59a.3.3,0,0,1,.122.39,6.537,6.537,0,0,0-.685,2.744l.053,19.724a2.226,2.226,0,0,0,.893,2.036.3.3,0,0,1-.153.562ZM7.747,29.918A6.3,6.3,0,0,0,7.2,32.36l.06,19.724a2.226,2.226,0,0,0,.893,2.036l2.761,1.606a3.935,3.935,0,0,1-.2-1.278l-.053-19.723a6.956,6.956,0,0,1,.628-2.75Z" transform="translate(-6.592 -29.186)"/></g><g transform="translate(0.715)"><g transform="translate(0.302 0.304)"><path d="M42.843,2.243a2.524,2.524,0,0,0-2.545.249L10.8,19.528a7.565,7.565,0,0,0-2.857,3.3l4.07,2.363a7.577,7.577,0,0,1,2.85-3.3L44.368,4.856a2.524,2.524,0,0,1,2.545-.249Z" transform="translate(-7.939 -2.002)" fill="#ffd63c"/></g><path d="M11.91,25.4a.3.3,0,0,1-.152-.041L7.689,22.994a.3.3,0,0,1-.122-.39,7.821,7.821,0,0,1,2.98-3.437l29.5-17.035A2.806,2.806,0,0,1,42.9,1.884l4.067,2.362,0,0a.3.3,0,0,1-.3.522h0a2.241,2.241,0,0,0-2.242.25L14.911,22.054a7.221,7.221,0,0,0-2.728,3.17.3.3,0,0,1-.273.173ZM8.236,22.613l3.546,2.059a7.7,7.7,0,0,1,2.827-3.141L44.119,4.5a4.028,4.028,0,0,1,1.243-.483L42.593,2.406h0a2.242,2.242,0,0,0-2.242.25L10.849,19.69a7.093,7.093,0,0,0-2.613,2.922Z" transform="translate(-7.539 -1.599)"/></g></g><g transform="translate(17.151 17.088)"><g transform="translate(0 5.837)"><g transform="translate(0.304 0.304)"><path d="M24.225,33.956a2.322,2.322,0,0,1,2.308-.233,1.6,1.6,0,0,1,.346.266.144.144,0,0,0,.182,0,.477.477,0,0,0,.181-.212,7.44,7.44,0,0,1,.34-.662,6.623,6.623,0,0,1,2.3-2.428,2.3,2.3,0,0,1,2.349-.209c1.253.765,1.166,3.216-.1,5.409L27.5,43.9a1.193,1.193,0,0,1-.413.434.42.42,0,0,1-.414.043l-4.738-2.7c-1.277-.725-1.286-3.1-.015-5.295a6.613,6.613,0,0,1,2.3-2.427Z" transform="translate(-20.977 -30.243)" fill="#ffd63c"/></g><g transform="translate(0.86 0.303)"><path d="M32.312,35.889,27.688,43.9a1.227,1.227,0,0,1-.417.438.429.429,0,0,1-.409.043l-4.739-2.707a1.431,1.431,0,0,1-.409-.337,7.84,7.84,0,0,0,1.709.187c3.949,0,7.144-2.865,7.144-6.4a5.932,5.932,0,0,0-1.379-3.784,5.365,5.365,0,0,1,.876-.646,2.28,2.28,0,0,1,2.348-.208c1.249.761,1.163,3.217-.1,5.407Z" transform="translate(-21.714 -30.242)" fill="#f4c531"/></g><path d="M26.729,44.621a.6.6,0,0,1-.3-.075l-4.741-2.7a2.172,2.172,0,0,1-.991-1.374,5.992,5.992,0,0,1,.865-4.334,6.9,6.9,0,0,1,2.41-2.537,2.589,2.589,0,0,1,2.609-.235,1.912,1.912,0,0,1,.282.2l0,0c.1-.226.22-.456.353-.686a6.918,6.918,0,0,1,2.411-2.538,2.56,2.56,0,0,1,2.658-.205c1.394.851,1.4,3.407,0,5.818l-4.627,8.014a1.5,1.5,0,0,1-.524.545.836.836,0,0,1-.415.12Zm-1.142-10.91a2.679,2.679,0,0,0-1.31.408h0a6.292,6.292,0,0,0-2.189,2.316,5.472,5.472,0,0,0-.8,3.873,1.586,1.586,0,0,0,.707,1.008l4.739,2.7a.281.281,0,0,0,.113-.042.9.9,0,0,0,.3-.325l4.626-8.012c1.185-2.054,1.279-4.343.2-5a2,2,0,0,0-2.04.212,6.314,6.314,0,0,0-2.191,2.317c-.122.211-.232.424-.326.635a.778.778,0,0,1-.3.35.442.442,0,0,1-.547-.051,1.318,1.318,0,0,0-.282-.217,1.39,1.39,0,0,0-.7-.175Zm-1.461.146h.007Z" transform="translate(-20.575 -29.84)"/></g><g transform="translate(14.201)"><g transform="translate(0 3.356)"><path d="M41.447,26.622a.286.286,0,0,1,.471.271l.018,6.365.971-.561a.286.286,0,0,1,.3-.03.282.282,0,0,1,.125.272.794.794,0,0,1-.123.409.831.831,0,0,1-.3.309l-3.03,1.749a.25.25,0,0,1-.413-.236.824.824,0,0,1,.118-.412.794.794,0,0,1,.293-.312l1.167-.674-.016-5.713-1,1.141a1.089,1.089,0,0,1-.227.2.307.307,0,0,1-.3.041.3.3,0,0,1-.118-.284.918.918,0,0,1,.254-.609l1.332-1.569a1.066,1.066,0,0,1,.274-.239Z" transform="translate(-39.382 -26.555)"/></g><g transform="translate(4.523)"><path d="M49.991,22.449A3.645,3.645,0,0,1,50.686,25a7.88,7.88,0,0,1-.678,3.348,4.8,4.8,0,0,1-1.967,2.231q-1.294.747-1.98.048a3.677,3.677,0,0,1-.689-2.559,7.912,7.912,0,0,1,.673-3.345,4.792,4.792,0,0,1,1.974-2.235q1.284-.741,1.973-.044Zm-.647,5.61a6.5,6.5,0,0,0,.449-2.539,3.272,3.272,0,0,0-.462-2q-.458-.559-1.31-.068a3.142,3.142,0,0,0-1.307,1.579,6.483,6.483,0,0,0-.449,2.529,3.286,3.286,0,0,0,.462,2.012c.305.374.743.4,1.312.067a3.133,3.133,0,0,0,1.306-1.578" transform="translate(-45.372 -22.111)"/></g></g></g></g></svg>